Bangers.ufo
<glyph name="exclam" format="1">
  <advance width="269"/>
  <unicode hex="0021"/>
  <outline>
    <contour>
      <point x="398" y="765" type="qcurve"/>
      <point x="343" y="636"/>
      <point x="252" y="375"/>
      <point x="207" y="243" type="qcurve"/>
      <point x="177" y="243"/>
      <point x="118" y="239"/>
      <point x="88" y="237" type="qcurve"/>
      <point x="120" y="362"/>
      <point x="180" y="612"/>
      <point x="213" y="738" type="qcurve"/>
      <point x="232" y="741"/>
      <point x="283" y="748"/>
      <point x="334" y="756"/>
      <point x="382" y="762"/>
    </contour>
    <contour>
      <point x="86" y="-24" type="qcurve"/>
      <point x="64" y="-24"/>
      <point x="30" y="-7"/>
      <point x="8" y="20"/>
      <point x="-4" y="55"/>
      <point x="-4" y="73" type="qcurve"/>
      <point x="-4" y="92"/>
      <point x="8" y="128"/>
      <point x="34" y="156"/>
      <point x="72" y="174"/>
      <point x="98" y="174" type="qcurve"/>
      <point x="158" y="174"/>
      <point x="217" y="118"/>
      <point x="217" y="82" type="qcurve"/>
      <point x="217" y="62"/>
      <point x="200" y="24"/>
      <point x="167" y="-6"/>
      <point x="118" y="-24"/>
    </contour>
  </outline>
</glyph>
<glyph name="quotedbl" format="1">
  <advance width="431"/>
  <unicode hex="0022"/>
  <outline>
    <contour>
      <point x="345" y="802" type="qcurve"/>
      <point x="327" y="760"/>
      <point x="282" y="646"/>
      <point x="263" y="594" type="qcurve"/>
      <point x="240" y="533"/>
      <point x="218" y="470" type="qcurve"/>
      <point x="74" y="451" type="line"/>
      <point x="92" y="519"/>
      <point x="110" y="583" type="qcurve"/>
      <point x="117" y="610"/>
      <point x="133" y="669"/>
      <point x="148" y="726"/>
      <point x="161" y="778"/>
      <point x="166" y="799" type="qcurve"/>
      <point x="175" y="798"/>
      <point x="192" y="798"/>
      <point x="200" y="798" type="qcurve"/>
      <point x="238" y="798"/>
      <point x="305" y="802"/>
    </contour>
    <contour>
      <point x="584" y="807" type="qcurve"/>
      <point x="565" y="756"/>
      <point x="519" y="640"/>
      <point x="498" y="589" type="qcurve"/>
      <point x="473" y="530"/>
      <point x="448" y="471" type="qcurve"/>
      <point x="292" y="461" type="line"/>
      <point x="315" y="521"/>
      <point x="337" y="580" type="qcurve"/>
      <point x="356" y="631"/>
      <point x="396" y="744"/>
      <point x="410" y="791" type="qcurve"/>
      <point x="436" y="792"/>
      <point x="478" y="795"/>
      <point x="517" y="799"/>
      <point x="558" y="804"/>
    </contour>
  </outline>
</glyph>
<glyph name="numbersign" format="1">
  <advance width="641"/>
  <unicode hex="0023"/>
  <outline>
    <contour>
      <point x="660" y="329" type="line"/>
      <point x="656" y="304"/>
      <point x="650" y="264"/>
      <point x="644" y="227"/>
      <point x="637" y="187"/>
      <point x="634" y="162" type="qcurve"/>
      <point x="631" y="162"/>
      <point x="620" y="163"/>
      <point x="612" y="163" type="qcurve"/>
      <point x="601" y="163"/>
      <point x="574" y="162"/>
      <point x="548" y="162"/>
      <point x="526" y="161"/>
      <point x="522" y="161" type="qcurve"/>
      <point x="515" y="126"/>
      <point x="505" y="56"/>
      <point x="498" y="21" type="qcurve"/>
      <point x="414" y="24"/>
      <point x="333" y="24" type="qcurve"/>
      <point x="342" y="58"/>
      <point x="360" y="125"/>
      <point x="368" y="160" type="qcurve"/>
      <point x="362" y="160"/>
      <point x="330" y="158"/>
      <point x="294" y="155"/>
      <point x="262" y="153"/>
      <point x="256" y="153" type="qcurve"/>
      <point x="250" y="117"/>
      <point x="236" y="46"/>
      <point x="227" y="11" type="qcurve"/>
      <point x="185" y="9"/>
      <point x="102" y="2"/>
      <point x="60" y="-5" type="qcurve"/>
      <point x="72" y="32"/>
      <point x="94" y="106"/>
      <point x="104" y="143" type="qcurve"/>
      <point x="93" y="143"/>
      <point x="56" y="141"/>
      <point x="45" y="141" type="qcurve"/>
      <point x="63" y="310" type="line"/>
      <point x="67" y="310"/>
      <point x="89" y="311"/>
      <point x="115" y="313"/>
      <point x="137" y="314"/>
      <point x="141" y="314" type="qcurve"/>
      <point x="143" y="322"/>
      <point x="147" y="347"/>
      <point x="152" y="374"/>
      <point x="156" y="400"/>
      <point x="157" y="408" type="qcurve"/>
      <point x="87" y="408" type="line"/>
      <point x="88" y="419"/>
      <point x="93" y="467"/>
      <point x="95" y="491" type="qcurve"/>
      <point x="98" y="519"/>
      <point x="101" y="551" type="qcurve"/>
      <point x="182" y="556" type="line"/>
      <point x="189" y="590"/>
      <point x="195" y="623" type="qcurve"/>
      <point x="200" y="651"/>
      <point x="210" y="709"/>
      <point x="214" y="728" type="qcurve"/>
      <point x="226" y="729"/>
      <point x="264" y="732"/>
      <point x="309" y="736"/>
      <point x="357" y="740"/>
      <point x="378" y="741" type="qcurve"/>
      <point x="373" y="724"/>
      <point x="360" y="664"/>
      <point x="354" y="634" type="qcurve"/>
      <point x="347" y="599"/>
      <point x="339" y="560" type="qcurve"/>
      <point x="451" y="566" type="line"/>
      <point x="459" y="603"/>
      <point x="467" y="637" type="qcurve"/>
      <point x="474" y="666"/>
      <point x="489" y="726"/>
      <point x="494" y="743" type="qcurve"/>
      <point x="533" y="745"/>
      <point x="611" y="754"/>
      <point x="651" y="759" type="qcurve"/>
      <point x="645" y="741"/>
      <point x="629" y="679"/>
      <point x="621" y="650" type="qcurve"/>
      <point x="612" y="615"/>
      <point x="603" y="577" type="qcurve"/>
      <point x="706" y="581" type="line"/>
      <point x="699" y="554"/>
      <point x="693" y="527" type="qcurve"/>
      <point x="688" y="504"/>
      <point x="677" y="447"/>
      <point x="673" y="421" type="qcurve"/>
      <point x="566" y="415" type="line"/>
      <point x="564" y="406"/>
      <point x="559" y="382"/>
      <point x="555" y="356"/>
      <point x="550" y="331"/>
      <point x="548" y="322" type="qcurve"/>
    </contour>
    <contour>
      <point x="291" y="314" type="line"/>
      <point x="295" y="314"/>
      <point x="324" y="316"/>
      <point x="357" y="318"/>
      <point x="388" y="320"/>
      <point x="395" y="320" type="qcurve"/>
      <point x="398" y="320"/>
      <point x="405" y="345"/>
      <point x="412" y="377"/>
      <point x="418" y="408"/>
      <point x="420" y="414" type="qcurve"/>
      <point x="416" y="414"/>
      <point x="384" y="412"/>
      <point x="348" y="410"/>
      <point x="316" y="408"/>
      <point x="312" y="408" type="qcurve"/>
    </contour>
  </outline>
</glyph>
<glyph name="dollar" format="1">
  <advance width="453"/>
  <unicode hex="0024"/>
  <outline>
    <contour>
      <point x="372" y="514" type="line"/>
      <point x="374" y="526"/>
      <point x="376" y="534"/>
      <point x="376" y="537" type="qcurve"/>
      <point x="376" y="568"/>
      <point x="352" y="595"/>
      <point x="336" y="595" type="qcurve"/>
      <point x="326" y="595"/>
      <point x="304" y="586"/>
      <point x="285" y="571"/>
      <point x="273" y="549"/>
      <point x="273" y="537" type="qcurve"/>
      <point x="273" y="520"/>
      <point x="301" y="491"/>
      <point x="342" y="460"/>
      <point x="390" y="423"/>
      <point x="431" y="374"/>
      <point x="459" y="308"/>
      <point x="459" y="264" type="qcurve"/>
      <point x="459" y="222"/>
      <point x="432" y="149"/>
      <point x="384" y="90"/>
      <point x="320" y="47"/>
      <point x="283" y="35" type="qcurve"/>
      <point x="279" y="6"/>
      <point x="273" y="-51"/>
      <point x="273" y="-62" type="qcurve"/>
      <point x="145" y="-74" type="line"/>
      <point x="148" y="-58"/>
      <point x="152" y="-41" type="qcurve"/>
      <point x="155" y="-27"/>
      <point x="163" y="6"/>
      <point x="168" y="20" type="qcurve"/>
      <point x="131" y="24"/>
      <point x="56" y="67"/>
      <point x="21" y="111" type="qcurve"/>
      <point x="95" y="260" type="line"/>
      <point x="102" y="246"/>
      <point x="126" y="216"/>
      <point x="154" y="190"/>
      <point x="184" y="174"/>
      <point x="198" y="174" type="qcurve"/>
      <point x="224" y="174"/>
      <point x="267" y="208"/>
      <point x="267" y="250" type="qcurve"/>
      <point x="267" y="268"/>
      <point x="241" y="305"/>
      <point x="203" y="343"/>
      <point x="157" y="385"/>
      <point x="119" y="431"/>
      <point x="93" y="482"/>
      <point x="93" y="511" type="qcurve"/>
      <point x="93" y="542"/>
      <point x="121" y="600"/>
      <point x="169" y="649"/>
      <point x="231" y="688"/>
      <point x="264" y="702" type="qcurve"/>
      <point x="272" y="740"/>
      <point x="286" y="790"/>
      <point x="294" y="816" type="qcurve"/>
      <point x="434" y="832" type="line"/>
      <point x="393" y="729" type="line"/>
      <point x="421" y="728"/>
      <point x="469" y="713"/>
      <point x="505" y="683"/>
      <point x="525" y="636"/>
      <point x="525" y="603" type="qcurve"/>
      <point x="525" y="589"/>
      <point x="521" y="562"/>
      <point x="519" y="547" type="qcurve"/>
    </contour>
  </outline>
</glyph>
<glyph name="percent" format="1">
  <advance width="818"/>
  <unicode hex="0025"/>
  <outline>
    <contour>
      <point x="611" y="20" type="qcurve"/>
      <point x="576" y="20"/>
      <point x="526" y="43"/>
      <point x="494" y="82"/>
      <point x="479" y="135"/>
      <point x="479" y="165" type="qcurve"/>
      <point x="479" y="203"/>
      <point x="499" y="284"/>
      <point x="518" y="323" type="qcurve"/>
      <point x="470" y="252"/>
      <point x="385" y="125"/>
      <point x="353" y="76" type="qcurve"/>
      <point x="315" y="19"/>
      <point x="282" y="-30" type="qcurve"/>
      <point x="112" y="10" type="line"/>
      <point x="123" y="22"/>
      <point x="176" y="96"/>
      <point x="249" y="201"/>
      <point x="335" y="328"/>
      <point x="424" y="459"/>
      <point x="509" y="585"/>
      <point x="578" y="689"/>
      <point x="624" y="762"/>
      <point x="631" y="774" type="qcurve"/>
      <point x="665" y="766"/>
      <point x="698" y="760" type="qcurve"/>
      <point x="725" y="754"/>
      <point x="782" y="743"/>
      <point x="799" y="741" type="qcurve"/>
      <point x="755" y="677"/>
      <point x="642" y="509"/>
      <point x="582" y="419" type="qcurve"/>
      <point x="613" y="452"/>
      <point x="686" y="493"/>
      <point x="727" y="493" type="qcurve"/>
      <point x="756" y="493"/>
      <point x="799" y="467"/>
      <point x="827" y="424"/>
      <point x="840" y="365"/>
      <point x="840" y="332" type="qcurve"/>
      <point x="840" y="281"/>
      <point x="809" y="170"/>
      <point x="750" y="79"/>
      <point x="665" y="20"/>
    </contour>
    <contour>
      <point x="216" y="311" type="qcurve"/>
      <point x="181" y="311"/>
      <point x="131" y="334"/>
      <point x="99" y="373"/>
      <point x="84" y="426"/>
      <point x="84" y="456" type="qcurve"/>
      <point x="84" y="508"/>
      <point x="123" y="624"/>
      <point x="191" y="721"/>
      <point x="281" y="784"/>
      <point x="332" y="784" type="qcurve"/>
      <point x="361" y="784"/>
      <point x="403" y="758"/>
      <point x="431" y="715"/>
      <point x="444" y="656"/>
      <point x="444" y="623" type="qcurve"/>
      <point x="444" y="572"/>
      <point x="413" y="461"/>
      <point x="355" y="370"/>
      <point x="270" y="311"/>
    </contour>
    <contour>
      <point x="639" y="145" type="qcurve"/>
      <point x="662" y="145"/>
      <point x="699" y="169"/>
      <point x="726" y="205"/>
      <point x="740" y="248"/>
      <point x="740" y="268" type="qcurve"/>
      <point x="740" y="293"/>
      <point x="717" y="327"/>
      <point x="692" y="327" type="qcurve"/>
      <point x="674" y="327"/>
      <point x="641" y="300"/>
      <point x="617" y="260"/>
      <point x="602" y="213"/>
      <point x="602" y="193" type="qcurve"/>
      <point x="602" y="173"/>
      <point x="619" y="145"/>
    </contour>
    <contour>
      <point x="244" y="436" type="qcurve"/>
      <point x="267" y="436"/>
      <point x="304" y="460"/>
      <point x="331" y="496"/>
      <point x="345" y="539"/>
      <point x="345" y="559" type="qcurve"/>
      <point x="345" y="584"/>
      <point x="322" y="618"/>
      <point x="297" y="618" type="qcurve"/>
      <point x="279" y="618"/>
      <point x="246" y="591"/>
      <point x="222" y="551"/>
      <point x="207" y="504"/>
      <point x="207" y="484" type="qcurve"/>
      <point x="207" y="464"/>
      <point x="224" y="436"/>
    </contour>
  </outline>
</glyph>
<glyph name="ampersand" format="1">
  <advance width="548"/>
  <unicode hex="0026"/>
  <outline>
    <contour>
      <point x="258" y="116" type="qcurve"/>
      <point x="294" y="116"/>
      <point x="338" y="165"/>
      <point x="363" y="234"/>
      <point x="373" y="311"/>
      <point x="375" y="340" type="qcurve"/>
      <point x="323" y="336"/>
      <point x="250" y="308"/>
      <point x="204" y="266"/>
      <point x="183" y="216"/>
      <point x="183" y="189" type="qcurve"/>
      <point x="183" y="157"/>
      <point x="223" y="116"/>
    </contour>
    <contour>
      <point x="458" y="583" type="line"/>
      <point x="450" y="590"/>
      <point x="434" y="605"/>
      <point x="412" y="616"/>
      <point x="379" y="623"/>
      <point x="354" y="623" type="qcurve"/>
      <point x="334" y="623"/>
      <point x="303" y="608"/>
      <point x="283" y="582"/>
      <point x="273" y="550"/>
      <point x="273" y="533" type="qcurve"/>
      <point x="273" y="515"/>
      <point x="284" y="482"/>
      <point x="305" y="455"/>
      <point x="338" y="439"/>
      <point x="359" y="439" type="qcurve"/>
      <point x="364" y="439"/>
      <point x="376" y="439"/>
      <point x="382" y="441" type="qcurve"/>
      <point x="382" y="448"/>
      <point x="383" y="455" type="qcurve"/>
      <point x="384" y="461"/>
      <point x="385" y="475"/>
      <point x="386" y="481" type="qcurve"/>
      <point x="427" y="481"/>
      <point x="496" y="485"/>
      <point x="536" y="487" type="qcurve"/>
      <point x="534" y="482"/>
      <point x="534" y="472" type="qcurve"/>
      <point x="534" y="455" type="line"/>
      <point x="534" y="446" type="line"/>
      <point x="539" y="446"/>
      <point x="563" y="450"/>
      <point x="576" y="453" type="qcurve"/>
      <point x="590" y="456"/>
      <point x="607" y="460" type="qcurve"/>
      <point x="619" y="355" type="line"/>
      <point x="600" y="352"/>
      <point x="583" y="349" type="qcurve"/>
      <point x="569" y="347"/>
      <point x="542" y="344"/>
      <point x="538" y="344" type="qcurve"/>
      <point x="538" y="267"/>
      <point x="504" y="136"/>
      <point x="429" y="41"/>
      <point x="310" y="-13"/>
      <point x="224" y="-13" type="qcurve"/>
      <point x="170" y="-13"/>
      <point x="92" y="16"/>
      <point x="43" y="65"/>
      <point x="20" y="130"/>
      <point x="20" y="165" type="qcurve"/>
      <point x="20" y="203"/>
      <point x="46" y="282"/>
      <point x="92" y="350"/>
      <point x="158" y="401"/>
      <point x="199" y="413" type="qcurve"/>
      <point x="175" y="425"/>
      <point x="157" y="442" type="qcurve"/>
      <point x="141" y="456"/>
      <point x="116" y="499"/>
      <point x="116" y="526" type="qcurve"/>
      <point x="116" y="578"/>
      <point x="161" y="665"/>
      <point x="237" y="726"/>
      <point x="336" y="760"/>
      <point x="390" y="760" type="qcurve"/>
      <point x="438" y="760"/>
      <point x="519" y="716"/>
      <point x="542" y="677" type="qcurve"/>
    </contour>
  </outline>
</glyph>
<glyph name="parenleft" format="1">
  <advance width="342"/>
  <unicode hex="0028"/>
  <outline>
    <contour>
      <point x="231" y="-140" type="line"/>
      <point x="193" y="-121"/>
      <point x="125" y="-50"/>
      <point x="74" y="51"/>
      <point x="44" y="180"/>
      <point x="44" y="257" type="qcurve"/>
      <point x="44" y="345"/>
      <point x="84" y="520"/>
      <point x="164" y="684"/>
      <point x="283" y="834"/>
      <point x="361" y="898" type="qcurve"/>
      <point x="491" y="776" type="line"/>
      <point x="447" y="739"/>
      <point x="348" y="637"/>
      <point x="266" y="509"/>
      <point x="212" y="354"/>
      <point x="212" y="265" type="qcurve"/>
      <point x="212" y="218"/>
      <point x="241" y="127"/>
      <point x="286" y="51"/>
      <point x="340" y="-5"/>
      <point x="365" y="-18" type="qcurve"/>
    </contour>
  </outline>
</glyph>
<glyph name="parenright" format="1">
  <advance width="339"/>
  <unicode hex="0029"/>
  <outline>
    <contour>
      <point x="-58" y="2" type="line"/>
      <point x="8" y="31"/>
      <point x="109" y="138"/>
      <point x="176" y="271"/>
      <point x="211" y="420"/>
      <point x="211" y="492" type="qcurve"/>
      <point x="211" y="537"/>
      <point x="197" y="622"/>
      <point x="169" y="696"/>
      <point x="127" y="757"/>
      <point x="98" y="778" type="qcurve"/>
      <point x="259" y="898" type="line"/>
      <point x="331" y="817"/>
      <point x="401" y="619"/>
      <point x="401" y="510" type="qcurve"/>
      <point x="401" y="389"/>
      <point x="331" y="175"/>
      <point x="223" y="4"/>
      <point x="94" y="-115"/>
      <point x="35" y="-140" type="qcurve"/>
    </contour>
  </outline>
</glyph>
<glyph name="asterisk" format="1">
  <advance width="433"/>
  <unicode hex="002A"/>
  <outline>
    <contour>
      <point x="192" y="229" type="line"/>
      <point x="78" y="280" type="line"/>
      <point x="175" y="392" type="line"/>
      <point x="78" y="386" type="line"/>
      <point x="92" y="508" type="line"/>
      <point x="202" y="497" type="line"/>
      <point x="135" y="619" type="line"/>
      <point x="245" y="685" type="line"/>
      <point x="299" y="536" type="line"/>
      <point x="382" y="684" type="line"/>
      <point x="477" y="611" type="line"/>
      <point x="378" y="501" type="line"/>
      <point x="480" y="513" type="line"/>
      <point x="472" y="379" type="line"/>
      <point x="350" y="396" type="line"/>
      <point x="425" y="276" type="line"/>
      <point x="296" y="226" type="line"/>
      <point x="265" y="357" type="line"/>
    </contour>
  </outline>
</glyph>
<glyph name="plus" format="1">
  <advance width="318"/>
  <unicode hex="002B"/>
  <outline>
    <contour>
      <point x="79" y="392" type="line"/>
      <point x="90" y="392"/>
      <point x="119" y="393"/>
      <point x="132" y="394" type="qcurve"/>
      <point x="147" y="395"/>
      <point x="162" y="397" type="qcurve"/>
      <point x="165" y="418"/>
      <point x="169" y="438" type="qcurve"/>
      <point x="172" y="455"/>
      <point x="179" y="496"/>
      <point x="183" y="515" type="qcurve"/>
      <point x="215" y="517"/>
      <point x="276" y="521"/>
      <point x="307" y="526" type="qcurve"/>
      <point x="302" y="506"/>
      <point x="292" y="461"/>
      <point x="287" y="442" type="qcurve"/>
      <point x="282" y="419"/>
      <point x="277" y="398" type="qcurve"/>
      <point x="292" y="399"/>
      <point x="307" y="401" type="qcurve"/>
      <point x="320" y="403"/>
      <point x="347" y="405"/>
      <point x="358" y="407" type="qcurve"/>
      <point x="353" y="384"/>
      <point x="344" y="343"/>
      <point x="336" y="303"/>
      <point x="329" y="262"/>
      <point x="325" y="239" type="qcurve"/>
      <point x="314" y="239"/>
      <point x="287" y="240"/>
      <point x="274" y="240" type="qcurve"/>
      <point x="259" y="240"/>
      <point x="244" y="241" type="qcurve"/>
      <point x="243" y="220"/>
      <point x="240" y="200" type="qcurve"/>
      <point x="238" y="182"/>
      <point x="232" y="141"/>
      <point x="228" y="122" type="qcurve"/>
      <point x="106" y="115" type="line"/>
      <point x="111" y="134"/>
      <point x="121" y="178"/>
      <point x="125" y="197" type="qcurve"/>
      <point x="129" y="219"/>
      <point x="133" y="240" type="qcurve"/>
      <point x="51" y="240" type="line"/>
      <point x="53" y="267"/>
      <point x="56" y="293" type="qcurve"/>
      <point x="58" y="316"/>
      <point x="64" y="369"/>
      <point x="68" y="392" type="qcurve"/>
    </contour>
  </outline>
</glyph>
<glyph name="comma" format="1">
  <advance width="202"/>
  <unicode hex="002C"/>
  <outline>
    <contour>
      <point x="-35" y="-114" type="line"/>
      <point x="-27" y="-73"/>
      <point x="-8" y="12"/>
      <point x="8" y="91"/>
      <point x="22" y="159"/>
      <point x="25" y="184" type="qcurve"/>
      <point x="33" y="184"/>
      <point x="69" y="183"/>
      <point x="78" y="183" type="qcurve"/>
      <point x="92" y="183"/>
      <point x="138" y="183"/>
      <point x="159" y="184" type="qcurve"/>
      <point x="184" y="185"/>
      <point x="210" y="186" type="qcurve"/>
      <point x="202" y="148"/>
      <point x="174" y="45"/>
      <point x="160" y="-2" type="qcurve"/>
      <point x="143" y="-57"/>
      <point x="126" y="-114" type="qcurve"/>
    </contour>
  </outline>
</glyph>
<glyph name="hyphen" format="1">
  <advance width="369"/>
  <unicode hex="002D"/>
  <outline>
    <contour>
      <point x="91" y="426" type="line"/>
      <point x="119" y="425"/>
      <point x="146" y="424" type="qcurve"/>
      <point x="169" y="423"/>
      <point x="220" y="422"/>
      <point x="238" y="422" type="qcurve"/>
      <point x="259" y="422"/>
      <point x="318" y="423"/>
      <point x="345" y="424" type="qcurve"/>
      <point x="377" y="425"/>
      <point x="409" y="427" type="qcurve"/>
      <point x="374" y="244" type="line"/>
      <point x="338" y="245"/>
      <point x="303" y="246" type="qcurve"/>
      <point x="273" y="247"/>
      <point x="207" y="248"/>
      <point x="184" y="248" type="qcurve"/>
      <point x="166" y="248"/>
      <point x="118" y="247"/>
      <point x="95" y="246" type="qcurve"/>
      <point x="69" y="245"/>
      <point x="42" y="245" type="qcurve"/>
    </contour>
  </outline>
</glyph>
<glyph name="period" format="1">
  <advance width="214"/>
  <unicode hex="002E"/>
  <outline>
    <contour>
      <point x="82" y="-24" type="qcurve"/>
      <point x="60" y="-24"/>
      <point x="26" y="-7"/>
      <point x="4" y="20"/>
      <point x="-8" y="55"/>
      <point x="-8" y="73" type="qcurve"/>
      <point x="-8" y="92"/>
      <point x="4" y="128"/>
      <point x="30" y="156"/>
      <point x="68" y="174"/>
      <point x="94" y="174" type="qcurve"/>
      <point x="154" y="174"/>
      <point x="213" y="118"/>
      <point x="213" y="82" type="qcurve"/>
      <point x="213" y="62"/>
      <point x="196" y="24"/>
      <point x="163" y="-6"/>
      <point x="114" y="-24"/>
    </contour>
  </outline>
</glyph>
<glyph name="slash" format="1">
  <advance width="564"/>
  <unicode hex="002F"/>
  <outline>
    <contour>
      <point x="676" y="741" type="qcurve"/>
      <point x="645" y="695"/>
      <point x="568" y="580"/>
      <point x="484" y="455"/>
      <point x="397" y="325"/>
      <point x="356" y="264" type="qcurve"/>
      <point x="260" y="121"/>
      <point x="159" y="-30" type="qcurve"/>
      <point x="-11" y="10" type="line"/>
      <point x="11" y="40"/>
      <point x="84" y="141"/>
      <point x="173" y="268"/>
      <point x="273" y="414"/>
      <point x="374" y="564"/>
      <point x="469" y="710"/>
      <point x="508" y="774" type="qcurve"/>
      <point x="517" y="768"/>
      <point x="559" y="757"/>
      <point x="609" y="749"/>
      <point x="659" y="743"/>
    </contour>
  </outline>
</glyph>
<glyph name="zero" format="1">
  <advance width="485"/>
  <unicode hex="0030"/>
  <outline>
    <contour>
      <point x="248" y="173" type="qcurve"/>
      <point x="286" y="173"/>
      <point x="349" y="224"/>
      <point x="394" y="301"/>
      <point x="419" y="392"/>
      <point x="419" y="433" type="qcurve"/>
      <point x="419" y="477"/>
      <point x="385" y="539"/>
      <point x="348" y="539" type="qcurve"/>
      <point x="318" y="539"/>
      <point x="263" y="482"/>
      <point x="221" y="397"/>
      <point x="195" y="299"/>
      <point x="195" y="258" type="qcurve"/>
      <point x="195" y="220"/>
      <point x="219" y="173"/>
    </contour>
    <contour>
      <point x="217" y="1" type="qcurve"/>
      <point x="170" y="1"/>
      <point x="103" y="36"/>
      <point x="61" y="96"/>
      <point x="41" y="177"/>
      <point x="41" y="224" type="qcurve"/>
      <point x="41" y="279"/>
      <point x="66" y="401"/>
      <point x="112" y="518"/>
      <point x="177" y="625"/>
      <point x="254" y="705"/>
      <point x="342" y="753"/>
      <point x="389" y="753" type="qcurve"/>
      <point x="427" y="753"/>
      <point x="483" y="714"/>
      <point x="520" y="646"/>
      <point x="538" y="555"/>
      <point x="538" y="504" type="qcurve"/>
      <point x="538" y="449"/>
      <point x="519" y="332"/>
      <point x="481" y="220"/>
      <point x="427" y="120"/>
      <point x="355" y="45"/>
      <point x="268" y="1"/>
    </contour>
  </outline>
</glyph>
<glyph name="one" format="1">
  <advance width="328"/>
  <unicode hex="0031"/>
  <outline>
    <contour>
      <point x="100" y="686" type="qcurve"/>
      <point x="124" y="691"/>
      <point x="166" y="699" type="qcurve"/>
      <point x="202" y="706"/>
      <point x="320" y="724"/>
      <point x="409" y="738" type="qcurve"/>
      <point x="387" y="648"/>
      <point x="351" y="478"/>
      <point x="319" y="308"/>
      <point x="290" y="135"/>
      <point x="275" y="44" type="qcurve"/>
      <point x="252" y="37"/>
      <point x="190" y="23"/>
      <point x="161" y="17" type="qcurve"/>
      <point x="128" y="10"/>
      <point x="93" y="4" type="qcurve"/>
      <point x="114" y="96"/>
      <point x="133" y="188" type="qcurve"/>
      <point x="141" y="227"/>
      <point x="159" y="314"/>
      <point x="176" y="401"/>
      <point x="192" y="487"/>
      <point x="199" y="525" type="qcurve"/>
      <point x="174" y="523"/>
      <point x="151" y="519" type="qcurve"/>
      <point x="131" y="516"/>
      <point x="89" y="509"/>
      <point x="75" y="507" type="qcurve"/>
      <point x="77" y="521"/>
      <point x="85" y="580"/>
      <point x="90" y="610" type="qcurve"/>
      <point x="94" y="645"/>
    </contour>
  </outline>
</glyph>
<glyph name="two" format="1">
  <advance width="478"/>
  <unicode hex="0032"/>
  <outline>
    <contour>
      <point x="90" y="492" type="qcurve"/>
      <point x="90" y="552"/>
      <point x="137" y="647"/>
      <point x="212" y="712"/>
      <point x="307" y="746"/>
      <point x="354" y="746" type="qcurve"/>
      <point x="393" y="746"/>
      <point x="464" y="722"/>
      <point x="518" y="672"/>
      <point x="551" y="595"/>
      <point x="551" y="542" type="qcurve"/>
      <point x="551" y="491"/>
      <point x="498" y="393"/>
      <point x="403" y="300"/>
      <point x="274" y="212"/>
      <point x="199" y="172" type="qcurve"/>
      <point x="226" y="172"/>
      <point x="313" y="176"/>
      <point x="355" y="179" type="qcurve"/>
      <point x="404" y="183"/>
      <point x="458" y="187" type="qcurve"/>
      <point x="441" y="39" type="line"/>
      <point x="417" y="37"/>
      <point x="354" y="33"/>
      <point x="284" y="29"/>
      <point x="209" y="24"/>
      <point x="174" y="21" type="qcurve"/>
      <point x="91" y="15"/>
      <point x="1" y="9" type="qcurve"/>
      <point x="18" y="138" type="line"/>
      <point x="22" y="170"/>
      <point x="78" y="239"/>
      <point x="156" y="309"/>
      <point x="245" y="376"/>
      <point x="321" y="437"/>
      <point x="371" y="489"/>
      <point x="371" y="509" type="qcurve"/>
      <point x="371" y="540"/>
      <point x="347" y="573"/>
      <point x="330" y="573" type="qcurve"/>
      <point x="312" y="573"/>
      <point x="287" y="558"/>
      <point x="273" y="534"/>
      <point x="267" y="505"/>
      <point x="267" y="491" type="qcurve"/>
      <point x="267" y="480" type="line"/>
      <point x="267" y="477"/>
      <point x="268" y="476" type="qcurve"/>
      <point x="241" y="474"/>
      <point x="211" y="471" type="qcurve"/>
      <point x="185" y="469"/>
      <point x="123" y="462"/>
      <point x="92" y="459" type="qcurve"/>
      <point x="91" y="467"/>
      <point x="90" y="484"/>
    </contour>
  </outline>
</glyph>
<glyph name="three" format="1">
  <advance width="469"/>
  <unicode hex="0033"/>
  <outline>
    <contour>
      <point x="199" y="188" type="line"/>
      <point x="199" y="168"/>
      <point x="219" y="150"/>
      <point x="234" y="150" type="qcurve"/>
      <point x="248" y="150"/>
      <point x="279" y="163"/>
      <point x="306" y="185"/>
      <point x="324" y="214"/>
      <point x="324" y="231" type="qcurve"/>
      <point x="324" y="256"/>
      <point x="276" y="297"/>
      <point x="222" y="297" type="qcurve"/>
      <point x="182" y="297"/>
      <point x="104" y="286"/>
      <point x="78" y="284" type="qcurve"/>
      <point x="96" y="435" type="line"/>
      <point x="127" y="455"/>
      <point x="192" y="499"/>
      <point x="219" y="519" type="qcurve"/>
      <point x="251" y="542"/>
      <point x="280" y="565" type="qcurve"/>
      <point x="115" y="562" type="line"/>
      <point x="127" y="738" type="line"/>
      <point x="220" y="742"/>
      <point x="300" y="746" type="qcurve"/>
      <point x="334" y="747"/>
      <point x="404" y="750"/>
      <point x="466" y="753"/>
      <point x="516" y="754"/>
      <point x="530" y="754" type="qcurve"/>
      <point x="506" y="536" type="line"/>
      <point x="301" y="428" type="line"/>
      <point x="352" y="419"/>
      <point x="425" y="386"/>
      <point x="471" y="342"/>
      <point x="492" y="290"/>
      <point x="492" y="262" type="qcurve"/>
      <point x="492" y="215"/>
      <point x="440" y="117"/>
      <point x="353" y="38"/>
      <point x="240" y="-12"/>
      <point x="179" y="-12" type="qcurve"/>
      <point x="144" y="-12"/>
      <point x="83" y="4"/>
      <point x="37" y="38"/>
      <point x="10" y="90"/>
      <point x="10" y="126" type="qcurve"/>
      <point x="10" y="149"/>
      <point x="19" y="178" type="qcurve"/>
    </contour>
  </outline>
</glyph>
<glyph name="four" format="1">
  <advance width="470"/>
  <unicode hex="0034"/>
  <outline>
    <contour>
      <point x="512" y="640" type="qcurve"/>
      <point x="511" y="630"/>
      <point x="502" y="581"/>
      <point x="491" y="519"/>
      <point x="479" y="450"/>
      <point x="467" y="388"/>
      <point x="459" y="339"/>
      <point x="457" y="329" type="qcurve"/>
      <point x="515" y="329" type="line"/>
      <point x="473" y="165" type="line"/>
      <point x="421" y="165" type="line"/>
      <point x="412" y="31" type="line"/>
      <point x="223" y="-2" type="line"/>
      <point x="244" y="162" type="line"/>
      <point x="68" y="148" type="line"/>
      <point x="23" y="241" type="line"/>
      <point x="56" y="342"/>
      <point x="87" y="434" type="qcurve"/>
      <point x="100" y="473"/>
      <point x="127" y="556"/>
      <point x="153" y="634"/>
      <point x="175" y="703"/>
      <point x="184" y="729" type="qcurve"/>
      <point x="227" y="729"/>
      <point x="304" y="734"/>
      <point x="348" y="740" type="qcurve"/>
      <point x="310" y="645"/>
      <point x="246" y="453"/>
      <point x="215" y="353" type="qcurve"/>
      <point x="214" y="346"/>
      <point x="212" y="336"/>
      <point x="210" y="329" type="qcurve"/>
      <point x="283" y="329" type="line"/>
      <point x="284" y="336"/>
      <point x="290" y="368"/>
      <point x="298" y="411"/>
      <point x="307" y="462"/>
      <point x="312" y="488" type="qcurve"/>
      <point x="323" y="548"/>
      <point x="337" y="619" type="qcurve"/>
      <point x="370" y="624"/>
      <point x="403" y="628" type="qcurve"/>
      <point x="431" y="632"/>
      <point x="490" y="638"/>
    </contour>
  </outline>
</glyph>
<glyph name="five" format="1">
  <advance width="461"/>
  <unicode hex="0035"/>
  <outline>
    <contour>
      <point x="508" y="580" type="line"/>
      <point x="451" y="578"/>
      <point x="333" y="573"/>
      <point x="271" y="570" type="qcurve"/>
      <point x="269" y="556"/>
      <point x="264" y="511"/>
      <point x="261" y="484" type="qcurve"/>
      <point x="327" y="484"/>
      <point x="419" y="460"/>
      <point x="476" y="417"/>
      <point x="502" y="358"/>
      <point x="502" y="323" type="qcurve"/>
      <point x="502" y="287"/>
      <point x="477" y="211"/>
      <point x="435" y="138"/>
      <point x="378" y="73"/>
      <point x="313" y="24"/>
      <point x="244" y="-5"/>
      <point x="211" y="-5" type="qcurve"/>
      <point x="172" y="-5"/>
      <point x="110" y="22"/>
      <point x="68" y="70"/>
      <point x="45" y="137"/>
      <point x="45" y="177" type="qcurve"/>
      <point x="45" y="197"/>
      <point x="48" y="240"/>
      <point x="50" y="263" type="qcurve"/>
      <point x="208" y="251" type="line"/>
      <point x="203" y="236"/>
      <point x="203" y="226" type="qcurve"/>
      <point x="203" y="206"/>
      <point x="227" y="187"/>
      <point x="244" y="187" type="qcurve"/>
      <point x="257" y="187"/>
      <point x="285" y="199"/>
      <point x="308" y="223"/>
      <point x="323" y="260"/>
      <point x="323" y="285" type="qcurve"/>
      <point x="323" y="297"/>
      <point x="315" y="320"/>
      <point x="292" y="337"/>
      <point x="249" y="348"/>
      <point x="214" y="348" type="qcurve"/>
      <point x="205" y="348"/>
      <point x="185" y="347"/>
      <point x="153" y="343"/>
      <point x="106" y="336"/>
      <point x="71" y="330" type="qcurve"/>
      <point x="82" y="407"/>
      <point x="115" y="606"/>
      <point x="138" y="732" type="qcurve"/>
      <point x="528" y="747" type="line"/>
    </contour>
  </outline>
</glyph>
<glyph name="six" format="1">
  <advance width="489"/>
  <unicode hex="0036"/>
  <outline>
    <contour>
      <point x="404" y="512" type="line"/>
      <point x="404" y="550"/>
      <point x="384" y="585"/>
      <point x="367" y="585" type="qcurve"/>
      <point x="355" y="585"/>
      <point x="326" y="556"/>
      <point x="296" y="505"/>
      <point x="268" y="434"/>
      <point x="258" y="392" type="qcurve"/>
      <point x="303" y="405"/>
      <point x="342" y="405" type="qcurve"/>
      <point x="385" y="405"/>
      <point x="449" y="376"/>
      <point x="493" y="327"/>
      <point x="515" y="263"/>
      <point x="515" y="229" type="qcurve"/>
      <point x="515" y="188"/>
      <point x="484" y="108"/>
      <point x="423" y="45"/>
      <point x="330" y="5"/>
      <point x="267" y="5" type="qcurve"/>
      <point x="224" y="5"/>
      <point x="146" y="37"/>
      <point x="88" y="100"/>
      <point x="53" y="195"/>
      <point x="53" y="259" type="qcurve"/>
      <point x="53" y="384"/>
      <point x="120" y="571"/>
      <point x="221" y="695"/>
      <point x="340" y="756"/>
      <point x="392" y="756" type="qcurve"/>
      <point x="430" y="756"/>
      <point x="487" y="727"/>
      <point x="526" y="679"/>
      <point x="545" y="615"/>
      <point x="545" y="579" type="qcurve"/>
    </contour>
    <contour>
      <point x="301" y="282" type="qcurve"/>
      <point x="287" y="282"/>
      <point x="255" y="277"/>
      <point x="236" y="271" type="qcurve"/>
      <point x="235" y="265"/>
      <point x="235" y="253"/>
      <point x="235" y="247" type="qcurve"/>
      <point x="235" y="199"/>
      <point x="265" y="159"/>
      <point x="285" y="159" type="qcurve"/>
      <point x="305" y="159"/>
      <point x="340" y="173"/>
      <point x="366" y="196"/>
      <point x="381" y="226"/>
      <point x="381" y="241" type="qcurve"/>
      <point x="381" y="257"/>
      <point x="346" y="282"/>
    </contour>
  </outline>
</glyph>
<glyph name="seven" format="1">
  <advance width="347"/>
  <unicode hex="0037"/>
  <outline>
    <contour>
      <point x="473" y="758" type="line"/>
      <point x="213" y="26" type="line"/>
      <point x="30" y="9" type="line"/>
      <point x="233" y="569" type="line"/>
      <point x="82" y="547" type="line"/>
      <point x="114" y="727" type="line"/>
    </contour>
  </outline>
</glyph>
<glyph name="eight" format="1">
  <advance width="530"/>
  <unicode hex="0038"/>
  <outline>
    <contour>
      <point x="478" y="421" type="qcurve"/>
      <point x="514" y="383"/>
      <point x="546" y="300"/>
      <point x="546" y="259" type="qcurve"/>
      <point x="546" y="206"/>
      <point x="497" y="109"/>
      <point x="412" y="34"/>
      <point x="298" y="-11"/>
      <point x="232" y="-11" type="qcurve"/>
      <point x="187" y="-11"/>
      <point x="109" y="8"/>
      <point x="52" y="48"/>
      <point x="20" y="113"/>
      <point x="20" y="158" type="qcurve"/>
      <point x="20" y="192"/>
      <point x="38" y="267"/>
      <point x="78" y="335"/>
      <point x="140" y="391"/>
      <point x="184" y="407" type="qcurve"/>
      <point x="151" y="434"/>
      <point x="121" y="494"/>
      <point x="121" y="525" type="qcurve"/>
      <point x="121" y="570"/>
      <point x="175" y="655"/>
      <point x="262" y="721"/>
      <point x="373" y="762"/>
      <point x="429" y="762" type="qcurve"/>
      <point x="473" y="762"/>
      <point x="538" y="736"/>
      <point x="581" y="693"/>
      <point x="602" y="636"/>
      <point x="602" y="606" type="qcurve"/>
      <point x="602" y="579"/>
      <point x="586" y="524"/>
      <point x="554" y="475"/>
      <point x="508" y="434"/>
    </contour>
    <contour>
      <point x="441" y="546" type="qcurve"/>
      <point x="441" y="559"/>
      <point x="428" y="578"/>
      <point x="407" y="590"/>
      <point x="382" y="595"/>
      <point x="370" y="595" type="qcurve"/>
      <point x="347" y="595"/>
      <point x="314" y="580"/>
      <point x="292" y="556"/>
      <point x="282" y="525"/>
      <point x="282" y="510" type="qcurve"/>
      <point x="282" y="487"/>
      <point x="311" y="452"/>
      <point x="337" y="452" type="qcurve"/>
      <point x="355" y="452"/>
      <point x="392" y="470"/>
      <point x="422" y="497"/>
      <point x="441" y="531"/>
    </contour>
    <contour>
      <point x="392" y="241" type="qcurve"/>
      <point x="392" y="293"/>
      <point x="348" y="335"/>
      <point x="318" y="335" type="qcurve"/>
      <point x="294" y="335"/>
      <point x="241" y="313"/>
      <point x="197" y="277"/>
      <point x="169" y="232"/>
      <point x="169" y="210" type="qcurve"/>
      <point x="169" y="184"/>
      <point x="210" y="145"/>
      <point x="260" y="145" type="qcurve"/>
      <point x="297" y="145"/>
      <point x="348" y="162"/>
      <point x="379" y="189"/>
      <point x="392" y="224"/>
    </contour>
  </outline>
</glyph>
<glyph name="nine" format="1">
  <advance width="501"/>
  <unicode hex="0039"/>
  <outline>
    <contour>
      <point x="165" y="177" type="line"/>
      <point x="199" y="177"/>
      <point x="261" y="201"/>
      <point x="311" y="246"/>
      <point x="347" y="310"/>
      <point x="356" y="349" type="qcurve"/>
      <point x="333" y="335"/>
      <point x="281" y="321"/>
      <point x="255" y="321" type="qcurve"/>
      <point x="220" y="321"/>
      <point x="154" y="349"/>
      <point x="103" y="401"/>
      <point x="72" y="475"/>
      <point x="72" y="522" type="qcurve"/>
      <point x="72" y="579"/>
      <point x="114" y="668"/>
      <point x="182" y="729"/>
      <point x="269" y="761"/>
      <point x="314" y="761" type="qcurve"/>
      <point x="359" y="761"/>
      <point x="447" y="728"/>
      <point x="515" y="659"/>
      <point x="557" y="554"/>
      <point x="557" y="482" type="qcurve"/>
      <point x="557" y="378"/>
      <point x="487" y="203"/>
      <point x="373" y="77"/>
      <point x="227" y="7"/>
      <point x="150" y="7" type="qcurve"/>
    </contour>
    <contour>
      <point x="239" y="542" type="qcurve"/>
      <point x="239" y="508"/>
      <point x="284" y="477"/>
      <point x="310" y="477" type="qcurve"/>
      <point x="336" y="477"/>
      <point x="379" y="506"/>
      <point x="379" y="533" type="qcurve"/>
      <point x="379" y="581"/>
      <point x="345" y="612"/>
      <point x="322" y="612" type="qcurve"/>
      <point x="308" y="612"/>
      <point x="278" y="602"/>
      <point x="254" y="584"/>
      <point x="239" y="558"/>
    </contour>
  </outline>
</glyph>
<glyph name="colon" format="1">
  <advance width="200"/>
  <unicode hex="003A"/>
  <outline>
    <contour>
      <point x="261" y="590" type="qcurve"/>
      <point x="247" y="530"/>
      <point x="226" y="409"/>
      <point x="217" y="348" type="qcurve"/>
      <point x="184" y="346"/>
      <point x="118" y="344"/>
      <point x="86" y="344" type="qcurve"/>
      <point x="74" y="344" type="line"/>
      <point x="82" y="401"/>
      <point x="100" y="511"/>
      <point x="109" y="566" type="qcurve"/>
      <point x="147" y="566"/>
      <point x="223" y="579"/>
    </contour>
    <contour>
      <point x="204" y="271" type="qcurve"/>
      <point x="195" y="220"/>
      <point x="178" y="117"/>
      <point x="170" y="66" type="qcurve"/>
      <point x="132" y="64"/>
      <point x="57" y="54"/>
      <point x="20" y="43" type="qcurve"/>
      <point x="32" y="100"/>
      <point x="50" y="213"/>
      <point x="58" y="270" type="qcurve"/>
      <point x="81" y="271"/>
      <point x="127" y="272"/>
      <point x="150" y="272" type="qcurve"/>
      <point x="164" y="272"/>
      <point x="190" y="272"/>
    </contour>
  </outline>
</glyph>
<glyph name="semicolon" format="1">
  <advance width="268"/>
  <unicode hex="003B"/>
  <outline>
    <contour>
      <point x="297" y="570" type="qcurve"/>
      <point x="294" y="536"/>
      <point x="286" y="481"/>
      <point x="277" y="430"/>
      <point x="267" y="378"/>
      <point x="263" y="348" type="qcurve"/>
      <point x="246" y="347"/>
      <point x="207" y="346"/>
      <point x="167" y="345"/>
      <point x="128" y="344"/>
      <point x="112" y="344" type="qcurve"/>
      <point x="100" y="344" type="line"/>
      <point x="108" y="401"/>
      <point x="126" y="511"/>
      <point x="135" y="566" type="qcurve"/>
      <point x="154" y="566"/>
      <point x="188" y="566"/>
      <point x="225" y="567"/>
      <point x="269" y="568"/>
    </contour>
    <contour>
      <point x="19" y="-27" type="line"/>
      <point x="27" y="14"/>
      <point x="46" y="99"/>
      <point x="62" y="178"/>
      <point x="76" y="246"/>
      <point x="79" y="271" type="qcurve"/>
      <point x="87" y="271"/>
      <point x="123" y="270"/>
      <point x="132" y="270" type="qcurve"/>
      <point x="146" y="270"/>
      <point x="192" y="270"/>
      <point x="213" y="271" type="qcurve"/>
      <point x="238" y="272"/>
      <point x="264" y="273" type="qcurve"/>
      <point x="256" y="235"/>
      <point x="228" y="132"/>
      <point x="214" y="85" type="qcurve"/>
      <point x="197" y="30"/>
      <point x="180" y="-27" type="qcurve"/>
    </contour>
  </outline>
</glyph>
<glyph name="less" format="1">
  <advance width="296"/>
  <unicode hex="003C"/>
  <outline>
    <contour>
      <point x="48" y="235" type="qcurve"/>
      <point x="61" y="304"/>
      <point x="81" y="441"/>
      <point x="91" y="511" type="qcurve"/>
      <point x="167" y="568"/>
      <point x="317" y="685"/>
      <point x="387" y="754" type="qcurve"/>
      <point x="370" y="695"/>
      <point x="343" y="575"/>
      <point x="330" y="514" type="qcurve"/>
      <point x="285" y="478"/>
      <point x="191" y="414"/>
      <point x="146" y="380" type="qcurve"/>
      <point x="184" y="346"/>
      <point x="259" y="278"/>
      <point x="297" y="244" type="qcurve"/>
      <point x="285" y="190"/>
      <point x="264" y="84"/>
      <point x="251" y="30" type="qcurve"/>
      <point x="200" y="82"/>
      <point x="97" y="180"/>
    </contour>
  </outline>
</glyph>
<glyph name="equal" format="1">
  <advance width="309"/>
  <unicode hex="003D"/>
  <outline>
    <contour>
      <point x="78" y="420" type="qcurve"/>
      <point x="104" y="418"/>
      <point x="157" y="416"/>
      <point x="183" y="416" type="qcurve"/>
      <point x="223" y="416"/>
      <point x="301" y="421"/>
      <point x="340" y="426" type="qcurve"/>
      <point x="327" y="385"/>
      <point x="306" y="304"/>
      <point x="298" y="262" type="qcurve"/>
      <point x="270" y="262"/>
      <point x="216" y="261"/>
      <point x="188" y="261" type="qcurve"/>
      <point x="157" y="261"/>
      <point x="96" y="262"/>
      <point x="65" y="262" type="qcurve"/>
      <point x="70" y="303"/>
      <point x="76" y="380"/>
    </contour>
    <contour>
      <point x="136" y="165" type="line"/>
      <point x="173" y="165"/>
      <point x="245" y="165"/>
      <point x="281" y="163" type="qcurve"/>
      <point x="279" y="125"/>
      <point x="274" y="48"/>
      <point x="272" y="9" type="qcurve"/>
      <point x="219" y="12"/>
      <point x="166" y="12" type="qcurve"/>
      <point x="127" y="12"/>
      <point x="48" y="8"/>
      <point x="9" y="3" type="qcurve"/>
      <point x="23" y="43"/>
      <point x="44" y="123"/>
      <point x="52" y="165" type="qcurve"/>
    </contour>
  </outline>
</glyph>
<glyph name="greater" format="1">
  <advance width="302"/>
  <unicode hex="003E"/>
  <outline>
    <contour>
      <point x="360" y="521" type="qcurve"/>
      <point x="346" y="449"/>
      <point x="323" y="307"/>
      <point x="312" y="235" type="qcurve"/>
      <point x="237" y="178"/>
      <point x="84" y="68"/>
      <point x="14" y="1" type="qcurve"/>
      <point x="30" y="61"/>
      <point x="53" y="184"/>
      <point x="63" y="246" type="qcurve"/>
      <point x="111" y="281"/>
      <point x="209" y="346"/>
      <point x="257" y="380" type="qcurve"/>
      <point x="222" y="411"/>
      <point x="152" y="474"/>
      <point x="117" y="505" type="qcurve"/>
      <point x="122" y="564"/>
      <point x="135" y="679"/>
      <point x="141" y="738" type="qcurve"/>
      <point x="195" y="683"/>
      <point x="305" y="576"/>
    </contour>
  </outline>
</glyph>
<glyph name="question" format="1">
  <advance width="449"/>
  <unicode hex="003F"/>
  <outline>
    <contour>
      <point x="213" y="248" type="line"/>
      <point x="153" y="242" type="line"/>
      <point x="153" y="297"/>
      <point x="184" y="383"/>
      <point x="231" y="450"/>
      <point x="286" y="502"/>
      <point x="333" y="544"/>
      <point x="364" y="578"/>
      <point x="364" y="594" type="qcurve"/>
      <point x="364" y="600"/>
      <point x="347" y="622"/>
      <point x="330" y="622" type="qcurve"/>
      <point x="310" y="622"/>
      <point x="254" y="590"/>
      <point x="228" y="571" type="qcurve"/>
      <point x="197" y="548"/>
      <point x="166" y="520" type="qcurve"/>
      <point x="112" y="646" type="line"/>
      <point x="164" y="693"/>
      <point x="295" y="748"/>
      <point x="362" y="748" type="qcurve"/>
      <point x="395" y="748"/>
      <point x="454" y="734"/>
      <point x="498" y="702"/>
      <point x="524" y="652"/>
      <point x="524" y="616" type="qcurve"/>
      <point x="524" y="566"/>
      <point x="492" y="496"/>
      <point x="443" y="442"/>
      <point x="383" y="397"/>
      <point x="328" y="350"/>
      <point x="283" y="293"/>
      <point x="273" y="254" type="qcurve"/>
    </contour>
    <contour>
      <point x="178" y="-24" type="qcurve"/>
      <point x="137" y="-24"/>
      <point x="98" y="27"/>
      <point x="98" y="61" type="qcurve"/>
      <point x="98" y="81"/>
      <point x="113" y="121"/>
      <point x="142" y="154"/>
      <point x="185" y="174"/>
      <point x="213" y="174" type="qcurve"/>
      <point x="269" y="174"/>
      <point x="322" y="125"/>
      <point x="322" y="93" type="qcurve"/>
      <point x="322" y="72"/>
      <point x="303" y="31"/>
      <point x="266" y="-3"/>
      <point x="212" y="-24"/>
    </contour>
  </outline>
</glyph>
<glyph name="at" format="1">
  <advance width="1011"/>
  <unicode hex="0040"/>
  <outline>
    <contour>
      <point x="588" y="489" type="qcurve"/>
      <point x="600" y="491"/>
      <point x="628" y="493"/>
      <point x="643" y="493" type="qcurve"/>
      <point x="677" y="493"/>
      <point x="762" y="474"/>
      <point x="807" y="449" type="qcurve"/>
      <point x="801" y="428"/>
      <point x="795" y="406" type="qcurve"/>
      <point x="790" y="387"/>
      <point x="778" y="342"/>
      <point x="773" y="322" type="qcurve"/>
      <point x="741" y="193" type="line"/>
      <point x="827" y="240"/>
      <point x="893" y="348"/>
      <point x="893" y="401" type="qcurve"/>
      <point x="893" y="447"/>
      <point x="852" y="516"/>
      <point x="782" y="562"/>
      <point x="689" y="584"/>
      <point x="637" y="584" type="qcurve"/>
      <point x="560" y="584"/>
      <point x="408" y="540"/>
      <point x="285" y="454"/>
      <point x="209" y="328"/>
      <point x="209" y="247" type="qcurve"/>
      <point x="209" y="176"/>
      <point x="235" y="105" type="qcurve"/>
      <point x="104" y="-24" type="line"/>
      <point x="74" y="42"/>
      <point x="46" y="168"/>
      <point x="46" y="228" type="qcurve"/>
      <point x="46" y="310"/>
      <point x="99" y="449"/>
      <point x="190" y="562"/>
      <point x="313" y="648"/>
      <point x="453" y="706"/>
      <point x="602" y="736"/>
      <point x="674" y="736" type="qcurve"/>
      <point x="768" y="736"/>
      <point x="908" y="679"/>
      <point x="1001" y="586"/>
      <point x="1048" y="466"/>
      <point x="1048" y="404" type="qcurve"/>
      <point x="1048" y="341"/>
      <point x="1000" y="220"/>
      <point x="906" y="125"/>
      <point x="764" y="67"/>
      <point x="670" y="67" type="qcurve"/>
      <point x="652" y="67"/>
      <point x="617" y="72"/>
      <point x="588" y="83"/>
      <point x="571" y="100"/>
      <point x="571" y="112" type="qcurve"/>
      <point x="571" y="126"/>
      <point x="575" y="139" type="qcurve"/>
      <point x="537" y="115"/>
      <point x="463" y="86"/>
      <point x="425" y="86" type="qcurve"/>
      <point x="386" y="86"/>
      <point x="330" y="106"/>
      <point x="292" y="141"/>
      <point x="274" y="188"/>
      <point x="274" y="215" type="qcurve"/>
      <point x="274" y="258"/>
      <point x="323" y="346"/>
      <point x="408" y="423"/>
      <point x="522" y="479"/>
    </contour>
    <contour>
      <point x="652" y="399" type="line"/>
      <point x="644" y="401"/>
      <point x="630" y="403"/>
      <point x="622" y="403" type="qcurve"/>
      <point x="589" y="403"/>
      <point x="521" y="379"/>
      <point x="466" y="337"/>
      <point x="431" y="280"/>
      <point x="431" y="247" type="qcurve"/>
      <point x="431" y="223"/>
      <point x="460" y="193"/>
      <point x="502" y="193" type="qcurve"/>
      <point x="524" y="193"/>
      <point x="573" y="206"/>
      <point x="596" y="217" type="qcurve"/>
    </contour>
  </outline>
</glyph>
<glyph name="A" format="1">
  <advance width="443"/>
  <unicode hex="0041"/>
  <outline>
    <contour>
      <point x="195" y="175" type="line"/>
      <point x="154" y="28" type="line"/>
      <point x="131" y="25"/>
      <point x="70" y="17"/>
      <point x="43" y="14" type="qcurve"/>
      <point x="10" y="10"/>
      <point x="-22" y="6" type="qcurve"/>
      <point x="19" y="142"/>
      <point x="59" y="274" type="qcurve"/>
      <point x="76" y="330"/>
      <point x="112" y="451"/>
      <point x="147" y="570"/>
      <point x="180" y="681"/>
      <point x="193" y="727" type="qcurve"/>
      <point x="262" y="732"/>
      <point x="407" y="746"/>
      <point x="475" y="759" type="qcurve"/>
      <point x="472" y="726"/>
      <point x="465" y="629"/>
      <point x="459" y="514"/>
      <point x="453" y="389"/>
      <point x="450" y="329" type="qcurve"/>
      <point x="444" y="187"/>
      <point x="438" y="29" type="qcurve"/>
      <point x="408" y="24"/>
      <point x="377" y="20" type="qcurve"/>
      <point x="351" y="16"/>
      <point x="290" y="6"/>
      <point x="265" y="2" type="qcurve"/>
      <point x="269" y="36"/>
      <point x="273" y="69" type="qcurve"/>
      <point x="276" y="97"/>
      <point x="282" y="155"/>
      <point x="284" y="175" type="qcurve"/>
    </contour>
    <contour>
      <point x="306" y="623" type="line"/>
      <point x="283" y="535" type="line"/>
      <point x="219" y="277" type="line"/>
      <point x="223" y="278"/>
      <point x="245" y="279"/>
      <point x="268" y="280"/>
      <point x="289" y="281"/>
      <point x="293" y="282" type="qcurve"/>
      <point x="293" y="288"/>
      <point x="296" y="317"/>
      <point x="299" y="355"/>
      <point x="303" y="400"/>
      <point x="305" y="422" type="qcurve"/>
      <point x="309" y="474"/>
      <point x="315" y="535" type="qcurve"/>
      <point x="322" y="624" type="line"/>
    </contour>
  </outline>
</glyph>
<glyph name="B" format="1">
  <advance width="438"/>
  <unicode hex="0042"/>
  <outline>
    <contour>
      <point x="463" y="257" type="qcurve"/>
      <point x="463" y="215"/>
      <point x="428" y="143"/>
      <point x="369" y="85"/>
      <point x="290" y="41"/>
      <point x="203" y="11"/>
      <point x="112" y="-4"/>
      <point x="70" y="-4" type="qcurve"/>
      <point x="32" y="-4"/>
      <point x="-1" y="2" type="qcurve"/>
      <point x="48" y="181"/>
      <point x="106" y="545"/>
      <point x="133" y="729" type="qcurve"/>
      <point x="186" y="740"/>
      <point x="301" y="758"/>
      <point x="362" y="758" type="qcurve"/>
      <point x="388" y="758"/>
      <point x="445" y="745"/>
      <point x="493" y="713"/>
      <point x="524" y="659"/>
      <point x="524" y="619" type="qcurve"/>
      <point x="524" y="580"/>
      <point x="499" y="512"/>
      <point x="459" y="457"/>
      <point x="408" y="417"/>
      <point x="381" y="407" type="qcurve"/>
      <point x="394" y="399"/>
      <point x="423" y="373"/>
      <point x="447" y="337"/>
      <point x="463" y="288"/>
    </contour>
    <contour>
      <point x="200" y="203" type="qcurve"/>
      <point x="219" y="205"/>
      <point x="268" y="215"/>
      <point x="313" y="237"/>
      <point x="344" y="272"/>
      <point x="344" y="298" type="qcurve"/>
      <point x="344" y="316"/>
      <point x="325" y="341"/>
      <point x="295" y="357"/>
      <point x="260" y="365"/>
      <point x="245" y="365" type="qcurve"/>
      <point x="240" y="365"/>
      <point x="232" y="365"/>
      <point x="228" y="364" type="qcurve"/>
      <point x="224" y="339"/>
      <point x="217" y="301"/>
      <point x="211" y="266"/>
      <point x="204" y="228"/>
    </contour>
    <contour>
      <point x="274" y="611" type="line"/>
      <point x="272" y="600"/>
      <point x="267" y="569"/>
      <point x="261" y="536"/>
      <point x="254" y="503"/>
      <point x="252" y="490" type="qcurve"/>
      <point x="274" y="495"/>
      <point x="319" y="509"/>
      <point x="355" y="526"/>
      <point x="377" y="547"/>
      <point x="377" y="559" type="qcurve"/>
      <point x="377" y="574"/>
      <point x="358" y="594"/>
      <point x="329" y="606"/>
      <point x="297" y="611"/>
      <point x="285" y="611" type="qcurve"/>
    </contour>
  </outline>
</glyph>
<glyph name="F" format="1">
  <advance width="349"/>
  <unicode hex="0046"/>
  <outline>
    <contour>
      <point x="195" y="38" type="line"/>
      <point x="160" y="32"/>
      <point x="126" y="25" type="qcurve"/>
      <point x="97" y="19"/>
      <point x="30" y="5"/>
      <point x="4" y="-1" type="qcurve"/>
      <point x="16" y="43"/>
      <point x="40" y="153"/>
      <point x="63" y="273"/>
      <point x="85" y="397"/>
      <point x="95" y="455" type="qcurve"/>
      <point x="117" y="591"/>
      <point x="138" y="736" type="qcurve"/>
      <point x="481" y="754" type="line"/>
      <point x="452" y="628" type="line"/>
      <point x="291" y="628" type="line"/>
      <point x="259" y="445" type="line"/>
      <point x="291" y="446"/>
      <point x="319" y="446" type="qcurve"/>
      <point x="343" y="446"/>
      <point x="392" y="446"/>
      <point x="406" y="447" type="qcurve"/>
      <point x="402" y="419"/>
      <point x="393" y="364"/>
      <point x="389" y="336" type="qcurve"/>
      <point x="376" y="336"/>
      <point x="327" y="337"/>
      <point x="303" y="338" type="qcurve"/>
      <point x="274" y="339"/>
      <point x="242" y="340" type="qcurve"/>
    </contour>
  </outline>
</glyph>
<glyph name="G" format="1">
  <advance width="511"/>
  <unicode hex="0047"/>
  <outline>
    <contour>
      <point x="441" y="562" type="line"/>
      <point x="432" y="603"/>
      <point x="401" y="638"/>
      <point x="382" y="638" type="qcurve"/>
      <point x="356" y="638"/>
      <point x="295" y="565"/>
      <point x="242" y="451"/>
      <point x="205" y="313"/>
      <point x="203" y="247" type="qcurve"/>
      <point x="203" y="183"/>
      <point x="241" y="129"/>
      <point x="270" y="129" type="qcurve"/>
      <point x="291" y="129"/>
      <point x="335" y="150"/>
      <point x="370" y="187"/>
      <point x="393" y="238"/>
      <point x="394" y="267" type="qcurve"/>
      <point x="285" y="251" type="line"/>
      <point x="304" y="352" type="line"/>
      <point x="352" y="358"/>
      <point x="398" y="365" type="qcurve"/>
      <point x="437" y="370"/>
      <point x="524" y="384"/>
      <point x="557" y="390" type="qcurve"/>
      <point x="550" y="286"/>
      <point x="482" y="131"/>
      <point x="387" y="27"/>
      <point x="277" y="-25"/>
      <point x="228" y="-25" type="qcurve"/>
      <point x="190" y="-25"/>
      <point x="122" y="8"/>
      <point x="72" y="75"/>
      <point x="43" y="175"/>
      <point x="43" y="243" type="qcurve"/>
      <point x="43" y="375"/>
      <point x="119" y="571"/>
      <point x="234" y="702"/>
      <point x="367" y="766"/>
      <point x="424" y="766" type="qcurve"/>
      <point x="465" y="766"/>
      <point x="525" y="737"/>
      <point x="564" y="689"/>
      <point x="582" y="625"/>
      <point x="582" y="589" type="qcurve"/>
    </contour>
  </outline>
</glyph>
<glyph name="H" format="1">
  <advance width="453"/>
  <unicode hex="0048"/>
  <outline>
    <contour>
      <point x="9" y="-2" type="line"/>
      <point x="36" y="139"/>
      <point x="61" y="275" type="qcurve"/>
      <point x="71" y="333"/>
      <point x="93" y="457"/>
      <point x="114" y="578"/>
      <point x="132" y="691"/>
      <point x="139" y="738" type="qcurve"/>
      <point x="305" y="750" type="line"/>
      <point x="288" y="678"/>
      <point x="254" y="522"/>
      <point x="240" y="448" type="qcurve"/>
      <point x="341" y="460" type="line"/>
      <point x="355" y="532"/>
      <point x="378" y="669"/>
      <point x="396" y="741" type="qcurve"/>
      <point x="420" y="745"/>
      <point x="477" y="751"/>
      <point x="526" y="755"/>
      <point x="560" y="758"/>
      <point x="560" y="758" type="qcurve"/>
      <point x="546" y="712"/>
      <point x="520" y="602"/>
      <point x="496" y="484"/>
      <point x="473" y="364"/>
      <point x="464" y="309" type="qcurve"/>
      <point x="441" y="179"/>
      <point x="422" y="43" type="qcurve"/>
      <point x="262" y="25" type="line"/>
      <point x="275" y="86"/>
      <point x="286" y="144" type="qcurve"/>
      <point x="296" y="194"/>
      <point x="317" y="300"/>
      <point x="324" y="338" type="qcurve"/>
      <point x="224" y="329" type="line"/>
      <point x="217" y="290"/>
      <point x="198" y="187"/>
      <point x="189" y="141" type="qcurve"/>
      <point x="178" y="86"/>
      <point x="167" y="31" type="qcurve"/>
    </contour>
  </outline>
</glyph>
<glyph name="J" format="1">
  <advance width="286"/>
  <unicode hex="004A"/>
  <outline>
    <contour>
      <point x="43" y="211" type="line"/>
      <point x="48" y="201"/>
      <point x="78" y="185"/>
      <point x="95" y="185" type="qcurve"/>
      <point x="108" y="185"/>
      <point x="127" y="226"/>
      <point x="141" y="281"/>
      <point x="149" y="338"/>
      <point x="152" y="355" type="qcurve"/>
      <point x="171" y="455"/>
      <point x="206" y="652"/>
      <point x="229" y="751" type="qcurve"/>
      <point x="275" y="755"/>
      <point x="365" y="772"/>
      <point x="410" y="784" type="qcurve"/>
      <point x="394" y="732"/>
      <point x="361" y="599"/>
      <point x="331" y="460"/>
      <point x="303" y="326"/>
      <point x="293" y="272" type="qcurve"/>
      <point x="284" y="227"/>
      <point x="257" y="130"/>
      <point x="213" y="51"/>
      <point x="151" y="-1"/>
      <point x="108" y="-1" type="qcurve"/>
      <point x="79" y="-1"/>
      <point x="12" y="24"/>
      <point x="-28" y="53" type="qcurve"/>
    </contour>
  </outline>
</glyph>
<glyph name="L" format="1">
  <advance width="309"/>
  <unicode hex="004C"/>
  <outline>
    <contour>
      <point x="314" y="32" type="qcurve"/>
      <point x="306" y="32"/>
      <point x="291" y="33"/>
      <point x="283" y="33" type="qcurve"/>
      <point x="251" y="33"/>
      <point x="180" y="29"/>
      <point x="109" y="20"/>
      <point x="40" y="7"/>
      <point x="12" y="-2" type="qcurve"/>
      <point x="18" y="44"/>
      <point x="35" y="157"/>
      <point x="56" y="277"/>
      <point x="78" y="400"/>
      <point x="89" y="457" type="qcurve"/>
      <point x="115" y="591"/>
      <point x="143" y="730" type="qcurve"/>
      <point x="323" y="754" type="line"/>
      <point x="295" y="635"/>
      <point x="269" y="522" type="qcurve"/>
      <point x="258" y="474"/>
      <point x="236" y="371"/>
      <point x="215" y="272"/>
      <point x="199" y="180"/>
      <point x="194" y="144" type="qcurve"/>
      <point x="219" y="146"/>
      <point x="277" y="147"/>
      <point x="300" y="147" type="qcurve"/>
      <point x="301" y="128"/>
      <point x="305" y="90"/>
      <point x="310" y="59"/>
      <point x="313" y="36"/>
    </contour>
  </outline>
</glyph>
<glyph name="N" format="1">
  <advance width="464"/>
  <unicode hex="004E"/>
  <outline>
    <contour>
      <point x="435" y="56" type="qcurve"/>
      <point x="432" y="56"/>
      <point x="390" y="47"/>
      <point x="336" y="35"/>
      <point x="282" y="22"/>
      <point x="268" y="17" type="qcurve"/>
      <point x="261" y="100"/>
      <point x="253" y="175" type="qcurve"/>
      <point x="250" y="207"/>
      <point x="242" y="274"/>
      <point x="235" y="336"/>
      <point x="227" y="390"/>
      <point x="224" y="409" type="qcurve"/>
      <point x="221" y="390"/>
      <point x="211" y="337"/>
      <point x="201" y="276"/>
      <point x="190" y="212"/>
      <point x="184" y="181" type="qcurve"/>
      <point x="171" y="109"/>
      <point x="156" y="30" type="qcurve"/>
      <point x="6" y="-5" type="line"/>
      <point x="35" y="139"/>
      <point x="61" y="276" type="qcurve"/>
      <point x="72" y="334"/>
      <point x="95" y="460"/>
      <point x="116" y="582"/>
      <point x="133" y="695"/>
      <point x="138" y="742" type="qcurve"/>
      <point x="170" y="744"/>
      <point x="200" y="747" type="qcurve"/>
      <point x="226" y="749"/>
      <point x="282" y="752"/>
      <point x="303" y="754" type="qcurve"/>
      <point x="316" y="675"/>
      <point x="327" y="603" type="qcurve"/>
      <point x="332" y="572"/>
      <point x="343" y="506"/>
      <point x="353" y="444"/>
      <point x="364" y="388"/>
      <point x="369" y="367" type="qcurve"/>
      <point x="373" y="388"/>
      <point x="383" y="444"/>
      <point x="395" y="507"/>
      <point x="409" y="572"/>
      <point x="415" y="603" type="qcurve"/>
      <point x="430" y="675"/>
      <point x="446" y="753" type="qcurve"/>
      <point x="571" y="768" type="line"/>
      <point x="537" y="614"/>
      <point x="510" y="477" type="qcurve"/>
      <point x="498" y="418"/>
      <point x="474" y="297"/>
      <point x="454" y="184"/>
      <point x="439" y="89"/>
    </contour>
  </outline>
</glyph>
<glyph name="O" format="1">
  <advance width="505"/>
  <unicode hex="004F"/>
  <outline>
    <contour>
      <point x="431" y="468" type="qcurve"/>
      <point x="431" y="480"/>
      <point x="428" y="509"/>
      <point x="419" y="534"/>
      <point x="399" y="551"/>
      <point x="383" y="551" type="qcurve"/>
      <point x="350" y="551"/>
      <point x="295" y="518"/>
      <point x="251" y="464"/>
      <point x="218" y="395"/>
      <point x="195" y="325"/>
      <point x="184" y="257"/>
      <point x="184" y="232" type="qcurve"/>
      <point x="184" y="221"/>
      <point x="192" y="197"/>
      <point x="207" y="178"/>
      <point x="228" y="165"/>
      <point x="241" y="165" type="qcurve"/>
      <point x="287" y="165"/>
      <point x="358" y="228"/>
      <point x="406" y="320"/>
      <point x="431" y="425"/>
    </contour>
    <contour>
      <point x="573" y="554" type="qcurve"/>
      <point x="573" y="470"/>
      <point x="538" y="322"/>
      <point x="478" y="198"/>
      <point x="399" y="100"/>
      <point x="313" y="32"/>
      <point x="225" y="-4"/>
      <point x="185" y="-4" type="qcurve"/>
      <point x="152" y="-4"/>
      <point x="96" y="21"/>
      <point x="55" y="72"/>
      <point x="32" y="151"/>
      <point x="32" y="206" type="qcurve"/>
      <point x="32" y="263"/>
      <point x="60" y="390"/>
      <point x="110" y="515"/>
      <point x="181" y="628"/>
      <point x="267" y="715"/>
      <point x="366" y="766"/>
      <point x="419" y="766" type="qcurve"/>
      <point x="465" y="766"/>
      <point x="525" y="728"/>
      <point x="559" y="668"/>
      <point x="573" y="592"/>
    </contour>
  </outline>
</glyph>
<glyph name="P" format="1">
  <advance width="388"/>
  <unicode hex="0050"/>
  <outline>
    <contour>
      <point x="-3" y="-1" type="line"/>
      <point x="28" y="137"/>
      <point x="55" y="269" type="qcurve"/>
      <point x="67" y="325"/>
      <point x="91" y="447"/>
      <point x="114" y="566"/>
      <point x="134" y="677"/>
      <point x="141" y="723" type="qcurve"/>
      <point x="171" y="732"/>
      <point x="202" y="739" type="qcurve"/>
      <point x="228" y="745"/>
      <point x="289" y="756"/>
      <point x="315" y="756" type="qcurve"/>
      <point x="361" y="756"/>
      <point x="424" y="725"/>
      <point x="463" y="673"/>
      <point x="479" y="603"/>
      <point x="479" y="563" type="qcurve"/>
      <point x="479" y="506"/>
      <point x="437" y="399"/>
      <point x="367" y="316"/>
      <point x="275" y="267"/>
      <point x="226" y="267" type="qcurve"/>
      <point x="215" y="267" type="line"/>
      <point x="207" y="232"/>
      <point x="193" y="151"/>
      <point x="187" y="116" type="qcurve"/>
      <point x="180" y="75"/>
      <point x="174" y="34" type="qcurve"/>
    </contour>
    <contour>
      <point x="283" y="632" type="qcurve"/>
      <point x="271" y="564"/>
      <point x="249" y="443"/>
      <point x="236" y="375" type="qcurve"/>
      <point x="252" y="379"/>
      <point x="288" y="409"/>
      <point x="318" y="457"/>
      <point x="337" y="520"/>
      <point x="337" y="555" type="qcurve"/>
      <point x="337" y="593"/>
      <point x="303" y="632"/>
    </contour>
  </outline>
</glyph>
<glyph name="Q" format="1">
  <advance width="538"/>
  <unicode hex="0051"/>
  <outline>
    <contour>
      <point x="573" y="554" type="qcurve"/>
      <point x="573" y="454"/>
      <point x="524" y="285"/>
      <point x="485" y="217" type="qcurve"/>
      <point x="583" y="102" type="line"/>
      <point x="560" y="73"/>
      <point x="538" y="45" type="qcurve"/>
      <point x="519" y="21"/>
      <point x="477" y="-31"/>
      <point x="462" y="-49" type="qcurve"/>
      <point x="441" y="-20"/>
      <point x="397" y="39"/>
      <point x="377" y="70" type="qcurve"/>
      <point x="372" y="78" type="line"/>
      <point x="325" y="38"/>
      <point x="229" y="-4"/>
      <point x="185" y="-4" type="qcurve"/>
      <point x="152" y="-4"/>
      <point x="96" y="21"/>
      <point x="55" y="72"/>
      <point x="32" y="151"/>
      <point x="32" y="206" type="qcurve"/>
      <point x="32" y="263"/>
      <point x="60" y="390"/>
      <point x="110" y="515"/>
      <point x="181" y="628"/>
      <point x="267" y="715"/>
      <point x="366" y="766"/>
      <point x="419" y="766" type="qcurve"/>
      <point x="465" y="766"/>
      <point x="525" y="728"/>
      <point x="559" y="668"/>
      <point x="573" y="592"/>
    </contour>
    <contour>
      <point x="431" y="468" type="qcurve"/>
      <point x="431" y="480"/>
      <point x="428" y="509"/>
      <point x="419" y="534"/>
      <point x="399" y="551"/>
      <point x="383" y="551" type="qcurve"/>
      <point x="350" y="551"/>
      <point x="295" y="518"/>
      <point x="251" y="464"/>
      <point x="218" y="395"/>
      <point x="195" y="325"/>
      <point x="184" y="257"/>
      <point x="184" y="232" type="qcurve"/>
      <point x="184" y="221"/>
      <point x="192" y="197"/>
      <point x="207" y="178"/>
      <point x="228" y="165"/>
      <point x="241" y="165" type="qcurve"/>
      <point x="276" y="165"/>
      <point x="306" y="184" type="qcurve"/>
      <point x="265" y="252" type="line"/>
      <point x="308" y="285"/>
      <point x="354" y="322"/>
      <point x="365" y="330" type="qcurve"/>
      <point x="377" y="340"/>
      <point x="379" y="342" type="qcurve"/>
      <point x="401" y="316" type="line"/>
      <point x="415" y="354"/>
      <point x="431" y="434"/>
    </contour>
  </outline>
</glyph>
<glyph name="R" format="1">
  <advance width="455"/>
  <unicode hex="0052"/>
  <outline>
    <contour>
      <point x="312" y="16" type="line"/>
      <point x="292" y="87"/>
      <point x="275" y="149" type="qcurve"/>
      <point x="268" y="175"/>
      <point x="254" y="229"/>
      <point x="242" y="277"/>
      <point x="233" y="314"/>
      <point x="232" y="325" type="qcurve"/>
      <point x="219" y="321" type="line"/>
      <point x="213" y="288"/>
      <point x="196" y="194"/>
      <point x="188" y="149" type="qcurve"/>
      <point x="179" y="97"/>
      <point x="170" y="42" type="qcurve"/>
      <point x="4" y="-1" type="line"/>
      <point x="32" y="135"/>
      <point x="57" y="265" type="qcurve"/>
      <point x="67" y="320"/>
      <point x="89" y="440"/>
      <point x="109" y="558"/>
      <point x="126" y="668"/>
      <point x="131" y="713" type="qcurve"/>
      <point x="189" y="731"/>
      <point x="325" y="749"/>
      <point x="391" y="749" type="qcurve"/>
      <point x="431" y="749"/>
      <point x="483" y="730"/>
      <point x="513" y="696"/>
      <point x="525" y="651"/>
      <point x="525" y="624" type="qcurve"/>
      <point x="525" y="583"/>
      <point x="497" y="504"/>
      <point x="449" y="433"/>
      <point x="386" y="375"/>
      <point x="350" y="356" type="qcurve"/>
      <point x="369" y="315"/>
      <point x="411" y="218"/>
      <point x="429" y="174" type="qcurve"/>
      <point x="450" y="123"/>
      <point x="471" y="72" type="qcurve"/>
    </contour>
    <contour>
      <point x="245" y="443" type="line"/>
      <point x="264" y="445"/>
      <point x="320" y="474"/>
      <point x="372" y="514"/>
      <point x="409" y="557"/>
      <point x="409" y="573" type="qcurve"/>
      <point x="409" y="585"/>
      <point x="394" y="598"/>
      <point x="369" y="605"/>
      <point x="338" y="607"/>
      <point x="322" y="607" type="qcurve"/>
      <point x="310" y="607"/>
      <point x="287" y="606"/>
      <point x="278" y="606" type="qcurve"/>
    </contour>
  </outline>
</glyph>
<glyph name="S" format="1">
  <advance width="440"/>
  <unicode hex="0053"/>
  <outline>
    <contour>
      <point x="374" y="523" type="line"/>
      <point x="376" y="531"/>
      <point x="379" y="548"/>
      <point x="379" y="556" type="qcurve"/>
      <point x="379" y="587"/>
      <point x="357" y="614"/>
      <point x="340" y="614" type="qcurve"/>
      <point x="332" y="614"/>
      <point x="308" y="602"/>
      <point x="285" y="583"/>
      <point x="268" y="556"/>
      <point x="268" y="541" type="qcurve"/>
      <point x="268" y="516"/>
      <point x="296" y="483"/>
      <point x="337" y="455"/>
      <point x="385" y="425"/>
      <point x="426" y="378"/>
      <point x="454" y="307"/>
      <point x="454" y="253" type="qcurve"/>
      <point x="454" y="196"/>
      <point x="410" y="102"/>
      <point x="335" y="35"/>
      <point x="233" y="-2"/>
      <point x="175" y="-2" type="qcurve"/>
      <point x="134" y="-2"/>
      <point x="52" y="42"/>
      <point x="14" y="90" type="qcurve"/>
      <point x="90" y="239" type="line"/>
      <point x="97" y="225"/>
      <point x="126" y="198"/>
      <point x="162" y="177"/>
      <point x="198" y="164"/>
      <point x="212" y="164" type="qcurve"/>
      <point x="224" y="164"/>
      <point x="251" y="172"/>
      <point x="273" y="188"/>
      <point x="287" y="210"/>
      <point x="287" y="224" type="qcurve"/>
      <point x="287" y="249"/>
      <point x="255" y="291"/>
      <point x="208" y="329"/>
      <point x="153" y="368"/>
      <point x="106" y="411"/>
      <point x="74" y="464"/>
      <point x="74" y="497" type="qcurve"/>
      <point x="74" y="550"/>
      <point x="137" y="642"/>
      <point x="232" y="709"/>
      <point x="345" y="748"/>
      <point x="395" y="748" type="qcurve"/>
      <point x="423" y="748"/>
      <point x="472" y="734"/>
      <point x="508" y="705"/>
      <point x="529" y="659"/>
      <point x="529" y="626" type="qcurve"/>
      <point x="529" y="611"/>
      <point x="524" y="583"/>
      <point x="522" y="566" type="qcurve"/>
    </contour>
  </outline>
</glyph>
<glyph name="V" format="1">
  <advance width="388"/>
  <unicode hex="0056"/>
  <outline>
    <contour>
      <point x="349" y="739" type="line"/>
      <point x="377" y="740"/>
      <point x="406" y="742" type="qcurve"/>
      <point x="431" y="744"/>
      <point x="487" y="747"/>
      <point x="511" y="750" type="qcurve"/>
      <point x="497" y="705"/>
      <point x="467" y="596"/>
      <point x="435" y="479"/>
      <point x="405" y="358"/>
      <point x="391" y="302" type="qcurve"/>
      <point x="358" y="170"/>
      <point x="326" y="31" type="qcurve"/>
      <point x="60" y="-9" type="line"/>
      <point x="74" y="134"/>
      <point x="85" y="272" type="qcurve"/>
      <point x="90" y="330"/>
      <point x="99" y="457"/>
      <point x="106" y="581"/>
      <point x="111" y="696"/>
      <point x="112" y="744" type="qcurve"/>
      <point x="136" y="744"/>
      <point x="192" y="746"/>
      <point x="239" y="749"/>
      <point x="271" y="752"/>
      <point x="271" y="752" type="qcurve"/>
      <point x="260" y="633"/>
      <point x="249" y="526" type="qcurve"/>
      <point x="244" y="480"/>
      <point x="235" y="385"/>
      <point x="227" y="297"/>
      <point x="219" y="221"/>
      <point x="216" y="195" type="qcurve"/>
      <point x="235" y="195" type="line"/>
    </contour>
  </outline>
</glyph>
<glyph name="X" format="1">
  <advance width="421"/>
  <unicode hex="0058"/>
  <outline>
    <contour>
      <point x="267" y="747" type="line"/>
      <point x="272" y="698"/>
      <point x="286" y="582"/>
      <point x="291" y="532" type="qcurve"/>
      <point x="314" y="584"/>
      <point x="360" y="686"/>
      <point x="385" y="736" type="qcurve"/>
      <point x="534" y="696" type="line"/>
      <point x="507" y="651"/>
      <point x="464" y="575"/>
      <point x="425" y="500"/>
      <point x="386" y="421"/>
      <point x="364" y="373" type="qcurve"/>
      <point x="370" y="328"/>
      <point x="386" y="248"/>
      <point x="405" y="170"/>
      <point x="425" y="91"/>
      <point x="436" y="47" type="qcurve"/>
      <point x="434" y="46"/>
      <point x="410" y="40"/>
      <point x="373" y="30"/>
      <point x="329" y="17"/>
      <point x="287" y="5"/>
      <point x="250" y="-6"/>
      <point x="240" y="-10" type="qcurve"/>
      <point x="237" y="31"/>
      <point x="234" y="70" type="qcurve"/>
      <point x="232" y="103"/>
      <point x="227" y="171"/>
      <point x="226" y="194" type="qcurve"/>
      <point x="217" y="171"/>
      <point x="187" y="103"/>
      <point x="173" y="71" type="qcurve"/>
      <point x="156" y="33"/>
      <point x="137" y="-6" type="qcurve"/>
      <point x="-37" y="9" type="line"/>
      <point x="14" y="100"/>
      <point x="117" y="279"/>
      <point x="160" y="376" type="qcurve"/>
      <point x="154" y="422"/>
      <point x="142" y="494"/>
      <point x="128" y="563"/>
      <point x="112" y="634"/>
      <point x="103" y="679" type="qcurve"/>
    </contour>
  </outline>
</glyph>
<glyph name="Y" format="1">
  <advance width="393"/>
  <unicode hex="0059"/>
  <outline>
    <contour>
      <point x="269" y="754" type="line"/>
      <point x="269" y="629" type="line"/>
      <point x="269" y="603"/>
      <point x="269" y="550"/>
      <point x="268" y="499"/>
      <point x="268" y="454"/>
      <point x="268" y="438" type="qcurve"/>
      <point x="282" y="473"/>
      <point x="319" y="575"/>
      <point x="336" y="624" type="qcurve"/>
      <point x="355" y="680"/>
      <point x="376" y="742" type="qcurve"/>
      <point x="535" y="707" type="line"/>
      <point x="491" y="618"/>
      <point x="449" y="531" type="qcurve"/>
      <point x="431" y="494"/>
      <point x="392" y="413"/>
      <point x="353" y="332"/>
      <point x="316" y="256"/>
      <point x="301" y="223" type="qcurve"/>
      <point x="296" y="197"/>
      <point x="281" y="133"/>
      <point x="273" y="104" type="qcurve"/>
      <point x="264" y="71"/>
      <point x="254" y="37" type="qcurve"/>
      <point x="79" y="15" type="line"/>
      <point x="126" y="221" type="line"/>
      <point x="126" y="265"/>
      <point x="123" y="369"/>
      <point x="117" y="473"/>
      <point x="111" y="570"/>
      <point x="106" y="645"/>
      <point x="102" y="690"/>
      <point x="102" y="690" type="qcurve"/>
    </contour>
  </outline>
</glyph>
<glyph name="bracketleft" format="1">
  <advance width="327"/>
  <unicode hex="005B"/>
  <outline>
    <contour>
      <point x="22" y="-5" type="qcurve"/>
      <point x="51" y="126"/>
      <point x="79" y="262" type="qcurve"/>
      <point x="91" y="320"/>
      <point x="117" y="448"/>
      <point x="142" y="579"/>
      <point x="166" y="710"/>
      <point x="177" y="771" type="qcurve"/>
      <point x="183" y="771" type="line"/>
      <point x="192" y="771"/>
      <point x="218" y="772"/>
      <point x="231" y="773" type="qcurve"/>
      <point x="246" y="774"/>
      <point x="262" y="775" type="qcurve"/>
      <point x="299" y="776"/>
      <point x="335" y="779" type="qcurve"/>
      <point x="366" y="781"/>
      <point x="436" y="789"/>
      <point x="465" y="796" type="qcurve"/>
      <point x="458" y="766"/>
      <point x="442" y="705"/>
      <point x="436" y="675" type="qcurve"/>
      <point x="423" y="674"/>
      <point x="397" y="674"/>
      <point x="383" y="674" type="qcurve"/>
      <point x="327" y="674" type="line"/>
      <point x="315" y="612"/>
      <point x="297" y="516"/>
      <point x="282" y="434"/>
      <point x="268" y="359"/>
      <point x="254" y="277"/>
      <point x="237" y="180"/>
      <point x="227" y="118" type="qcurve"/>
      <point x="240" y="118"/>
      <point x="275" y="122"/>
      <point x="307" y="127"/>
      <point x="329" y="132"/>
      <point x="329" y="133" type="qcurve"/>
      <point x="303" y="26" type="line"/>
      <point x="243" y="18"/>
      <point x="100" y="4"/>
    </contour>
  </outline>
</glyph>
<glyph name="backslash" format="1">
  <advance width="522"/>
  <unicode hex="005C"/>
  <outline>
    <contour>
      <point x="131" y="739" type="line"/>
      <point x="133" y="739"/>
      <point x="142" y="740"/>
      <point x="147" y="741" type="qcurve"/>
      <point x="153" y="742"/>
      <point x="160" y="743" type="qcurve"/>
      <point x="187" y="748"/>
      <point x="212" y="752" type="qcurve"/>
      <point x="233" y="756"/>
      <point x="278" y="766"/>
      <point x="292" y="772" type="qcurve"/>
      <point x="309" y="712"/>
      <point x="347" y="573"/>
      <point x="385" y="430"/>
      <point x="423" y="290"/>
      <point x="457" y="166"/>
      <point x="486" y="65"/>
      <point x="497" y="33" type="qcurve"/>
      <point x="490" y="31"/>
      <point x="457" y="24"/>
      <point x="440" y="21" type="qcurve"/>
      <point x="420" y="17"/>
      <point x="397" y="14" type="qcurve"/>
      <point x="386" y="12"/>
      <point x="375" y="10" type="qcurve"/>
      <point x="365" y="8"/>
      <point x="342" y="3"/>
      <point x="331" y="1" type="qcurve"/>
      <point x="307" y="92"/>
      <point x="258" y="269"/>
      <point x="209" y="450"/>
      <point x="157" y="638"/>
      <point x="130" y="739" type="qcurve"/>
    </contour>
  </outline>
</glyph>
<glyph name="bracketright" format="1">
  <advance width="320"/>
  <unicode hex="005D"/>
  <outline>
    <contour>
      <point x="410" y="779" type="line"/>
      <point x="381" y="650"/>
      <point x="354" y="516" type="qcurve"/>
      <point x="342" y="459"/>
      <point x="317" y="332"/>
      <point x="292" y="200"/>
      <point x="269" y="67"/>
      <point x="260" y="5" type="qcurve"/>
      <point x="252" y="4"/>
      <point x="220" y="0"/>
      <point x="177" y="-5"/>
      <point x="128" y="-11"/>
      <point x="104" y="-14" type="qcurve"/>
      <point x="47" y="-21"/>
      <point x="-20" y="-30" type="qcurve"/>
      <point x="-18" y="-7"/>
      <point x="-15" y="15" type="qcurve"/>
      <point x="-13" y="34"/>
      <point x="-6" y="75"/>
      <point x="-3" y="91" type="qcurve"/>
      <point x="10" y="94"/>
      <point x="54" y="102"/>
      <point x="75" y="105" type="qcurve"/>
      <point x="100" y="109"/>
      <point x="127" y="113" type="qcurve"/>
      <point x="220" y="636" type="line"/>
      <point x="103" y="623" type="line"/>
      <point x="112" y="741" type="line"/>
    </contour>
  </outline>
</glyph>
<glyph name="asciicircum" format="1">
  <advance width="373"/>
  <unicode hex="005E"/>
  <outline>
    <contour>
      <point x="200" y="314" type="qcurve"/>
      <point x="214" y="313"/>
      <point x="240" y="313"/>
      <point x="254" y="313" type="qcurve"/>
      <point x="284" y="313"/>
      <point x="343" y="315"/>
      <point x="374" y="317" type="qcurve"/>
      <point x="371" y="300"/>
      <point x="370" y="265"/>
      <point x="370" y="247" type="qcurve"/>
      <point x="370" y="190"/>
      <point x="387" y="81"/>
      <point x="406" y="30" type="qcurve"/>
      <point x="369" y="34"/>
      <point x="296" y="39"/>
      <point x="259" y="39" type="qcurve"/>
      <point x="258" y="59"/>
      <point x="258" y="97"/>
      <point x="258" y="116" type="qcurve"/>
      <point x="258" y="182" type="line"/>
      <point x="247" y="145"/>
      <point x="226" y="72"/>
      <point x="214" y="36" type="qcurve"/>
      <point x="200" y="37"/>
      <point x="173" y="37"/>
      <point x="161" y="37" type="qcurve"/>
      <point x="111" y="37"/>
      <point x="60" y="34" type="qcurve"/>
      <point x="103" y="98"/>
      <point x="165" y="244"/>
    </contour>
  </outline>
</glyph>
<glyph name="underscore" format="1">
  <advance width="411"/>
  <unicode hex="005F"/>
  <outline>
    <contour>
      <point x="-31" y="3" type="qcurve"/>
      <point x="16" y="2"/>
      <point x="58" y="1" type="qcurve"/>
      <point x="94" y="0"/>
      <point x="169" y="0"/>
      <point x="192" y="0" type="qcurve"/>
      <point x="245" y="0"/>
      <point x="347" y="2"/>
      <point x="399" y="4" type="qcurve"/>
      <point x="394" y="-11"/>
      <point x="386" y="-51"/>
      <point x="383" y="-69" type="qcurve"/>
      <point x="379" y="-90"/>
      <point x="377" y="-112" type="qcurve"/>
      <point x="329" y="-112"/>
      <point x="285" y="-111" type="qcurve"/>
      <point x="247" y="-110"/>
      <point x="166" y="-109"/>
      <point x="139" y="-109" type="qcurve"/>
      <point x="91" y="-109"/>
      <point x="-6" y="-110"/>
      <point x="-54" y="-111" type="qcurve"/>
      <point x="-49" y="-99"/>
      <point x="-41" y="-61"/>
      <point x="-38" y="-42" type="qcurve"/>
      <point x="-34" y="-21"/>
    </contour>
  </outline>
</glyph>
<glyph name="grave" format="1">
  <advance width="373"/>
  <unicode hex="0060"/>
  <outline>
    <contour>
      <point x="78" y="79" type="qcurve"/>
      <point x="84" y="109"/>
      <point x="100" y="194"/>
      <point x="108" y="234" type="qcurve"/>
      <point x="117" y="281"/>
      <point x="126" y="330" type="qcurve"/>
      <point x="166" y="287"/>
      <point x="206" y="246" type="qcurve"/>
      <point x="240" y="211"/>
      <point x="316" y="129"/>
      <point x="345" y="96" type="qcurve"/>
      <point x="338" y="13" type="line"/>
      <point x="286" y="25"/>
      <point x="238" y="37" type="qcurve"/>
      <point x="196" y="47"/>
      <point x="108" y="70"/>
    </contour>
  </outline>
</glyph>
<glyph name="c" format="1">
  <advance width="424"/>
  <unicode hex="0063"/>
  <outline>
    <contour>
      <point x="388" y="543" type="line"/>
      <point x="376" y="568"/>
      <point x="359" y="568" type="qcurve"/>
      <point x="343" y="568"/>
      <point x="307" y="530"/>
      <point x="272" y="470"/>
      <point x="240" y="395"/>
      <point x="215" y="319"/>
      <point x="200" y="251"/>
      <point x="200" y="229" type="qcurve"/>
      <point x="200" y="197"/>
      <point x="217" y="170"/>
      <point x="231" y="170" type="qcurve"/>
      <point x="243" y="170"/>
      <point x="271" y="187"/>
      <point x="296" y="215"/>
      <point x="316" y="250"/>
      <point x="320" y="267" type="qcurve"/>
      <point x="437" y="220" type="line"/>
      <point x="413" y="164"/>
      <point x="352" y="81"/>
      <point x="286" y="25"/>
      <point x="218" y="-2"/>
      <point x="186" y="-2" type="qcurve"/>
      <point x="155" y="-2"/>
      <point x="102" y="27"/>
      <point x="63" y="84"/>
      <point x="40" y="168"/>
      <point x="40" y="224" type="qcurve"/>
      <point x="40" y="320"/>
      <point x="93" y="508"/>
      <point x="189" y="657"/>
      <point x="322" y="749"/>
      <point x="401" y="749" type="qcurve"/>
      <point x="426" y="749"/>
      <point x="471" y="728"/>
      <point x="504" y="691"/>
      <point x="523" y="638"/>
      <point x="523" y="605" type="qcurve"/>
      <point x="523" y="599"/>
      <point x="523" y="586"/>
      <point x="522" y="579" type="qcurve"/>
    </contour>
  </outline>
</glyph>
<glyph name="d" format="1">
  <advance width="452"/>
  <unicode hex="0064"/>
  <outline>
    <contour>
      <point x="183" y="124" type="qcurve"/>
      <point x="208" y="140"/>
      <point x="254" y="197"/>
      <point x="295" y="270"/>
      <point x="329" y="352"/>
      <point x="353" y="430"/>
      <point x="367" y="498"/>
      <point x="367" y="522" type="qcurve"/>
      <point x="367" y="560"/>
      <point x="325" y="603"/>
      <point x="280" y="603" type="qcurve"/>
      <point x="268" y="543"/>
      <point x="244" y="432"/>
      <point x="219" y="319"/>
      <point x="195" y="197"/>
    </contour>
    <contour>
      <point x="137" y="725" type="qcurve"/>
      <point x="181" y="733"/>
      <point x="271" y="748"/>
      <point x="318" y="748" type="qcurve"/>
      <point x="374" y="748"/>
      <point x="451" y="713"/>
      <point x="499" y="651"/>
      <point x="521" y="569"/>
      <point x="521" y="523" type="qcurve"/>
      <point x="521" y="470"/>
      <point x="491" y="350"/>
      <point x="435" y="232"/>
      <point x="354" y="125"/>
      <point x="252" y="44"/>
      <point x="130" y="-5"/>
      <point x="61" y="-5" type="qcurve"/>
      <point x="47" y="-5"/>
      <point x="18" y="-2"/>
      <point x="4" y="0" type="qcurve"/>
      <point x="32" y="141"/>
      <point x="58" y="275" type="qcurve"/>
      <point x="69" y="332"/>
      <point x="91" y="454"/>
      <point x="112" y="572"/>
      <point x="131" y="681"/>
    </contour>
  </outline>
</glyph>
<glyph name="e" format="1">
  <advance width="349"/>
  <unicode hex="0065"/>
  <outline>
    <contour>
      <point x="8" y="-1" type="line"/>
      <point x="142" y="727" type="line"/>
      <point x="466" y="755" type="line"/>
      <point x="459" y="732"/>
      <point x="454" y="709" type="qcurve"/>
      <point x="449" y="689"/>
      <point x="439" y="647"/>
      <point x="436" y="631" type="qcurve"/>
      <point x="426" y="630"/>
      <point x="388" y="629"/>
      <point x="345" y="628"/>
      <point x="301" y="628"/>
      <point x="285" y="628" type="qcurve"/>
      <point x="249" y="444" type="line"/>
      <point x="281" y="446"/>
      <point x="308" y="447" type="qcurve"/>
      <point x="331" y="448"/>
      <point x="378" y="449"/>
      <point x="389" y="450" type="qcurve"/>
      <point x="385" y="421"/>
      <point x="378" y="366"/>
      <point x="373" y="337" type="qcurve"/>
      <point x="362" y="336"/>
      <point x="316" y="335"/>
      <point x="293" y="334" type="qcurve"/>
      <point x="266" y="333"/>
      <point x="235" y="332" type="qcurve"/>
      <point x="200" y="143" type="line"/>
      <point x="349" y="167" type="line"/>
      <point x="339" y="50" type="line"/>
    </contour>
  </outline>
</glyph>
<glyph name="h" format="1">
  <advance width="452"/>
  <unicode hex="0068"/>
  <outline>
    <contour>
      <point x="8" y="-2" type="line"/>
      <point x="37" y="141"/>
      <point x="63" y="278" type="qcurve"/>
      <point x="74" y="336"/>
      <point x="96" y="462"/>
      <point x="116" y="585"/>
      <point x="133" y="700"/>
      <point x="138" y="748" type="qcurve"/>
      <point x="162" y="746"/>
      <point x="202" y="743"/>
      <point x="241" y="741"/>
      <point x="281" y="740"/>
      <point x="304" y="740" type="qcurve"/>
      <point x="287" y="668"/>
      <point x="253" y="522"/>
      <point x="239" y="448" type="qcurve"/>
      <point x="340" y="460" type="line"/>
      <point x="354" y="532"/>
      <point x="377" y="669"/>
      <point x="395" y="741" type="qcurve"/>
      <point x="419" y="745"/>
      <point x="476" y="751"/>
      <point x="525" y="755"/>
      <point x="559" y="758"/>
      <point x="559" y="758" type="qcurve"/>
      <point x="545" y="712"/>
      <point x="519" y="602"/>
      <point x="495" y="484"/>
      <point x="472" y="364"/>
      <point x="463" y="309" type="qcurve"/>
      <point x="440" y="179"/>
      <point x="421" y="43" type="qcurve"/>
      <point x="261" y="25" type="line"/>
      <point x="274" y="86"/>
      <point x="285" y="144" type="qcurve"/>
      <point x="295" y="194"/>
      <point x="316" y="300"/>
      <point x="323" y="338" type="qcurve"/>
      <point x="223" y="329" type="line"/>
      <point x="216" y="290"/>
      <point x="197" y="187"/>
      <point x="188" y="141" type="qcurve"/>
      <point x="177" y="86"/>
      <point x="166" y="31" type="qcurve"/>
    </contour>
  </outline>
</glyph>
<glyph name="i" format="1">
  <advance width="205"/>
  <unicode hex="0069"/>
  <outline>
    <contour>
      <point x="301" y="742" type="line"/>
      <point x="274" y="605"/>
      <point x="248" y="473" type="qcurve"/>
      <point x="237" y="417"/>
      <point x="213" y="296"/>
      <point x="191" y="177"/>
      <point x="170" y="66"/>
      <point x="162" y="20" type="qcurve"/>
      <point x="153" y="20"/>
      <point x="99" y="15"/>
      <point x="42" y="8"/>
      <point x="-4" y="2"/>
      <point x="-6" y="1" type="qcurve"/>
      <point x="6" y="45"/>
      <point x="31" y="153"/>
      <point x="56" y="270"/>
      <point x="80" y="391"/>
      <point x="91" y="447" type="qcurve"/>
      <point x="117" y="579"/>
      <point x="141" y="717" type="qcurve"/>
    </contour>
  </outline>
</glyph>
<glyph name="k" format="1">
  <advance width="473"/>
  <unicode hex="006B"/>
  <outline>
    <contour>
      <point x="225" y="288" type="line"/>
      <point x="218" y="257"/>
      <point x="201" y="167"/>
      <point x="193" y="125" type="qcurve"/>
      <point x="183" y="76"/>
      <point x="173" y="24" type="qcurve"/>
      <point x="7" y="-1" type="line"/>
      <point x="38" y="142"/>
      <point x="64" y="278" type="qcurve"/>
      <point x="75" y="336"/>
      <point x="97" y="461"/>
      <point x="117" y="584"/>
      <point x="132" y="699"/>
      <point x="136" y="747" type="qcurve"/>
      <point x="160" y="744"/>
      <point x="219" y="741"/>
      <point x="245" y="739" type="qcurve"/>
      <point x="275" y="737"/>
      <point x="306" y="737" type="qcurve"/>
      <point x="305" y="733"/>
      <point x="301" y="711"/>
      <point x="295" y="679"/>
      <point x="288" y="640"/>
      <point x="284" y="621" type="qcurve"/>
      <point x="275" y="575"/>
      <point x="265" y="519" type="qcurve"/>
      <point x="271" y="520" type="line"/>
      <point x="282" y="537"/>
      <point x="319" y="595"/>
      <point x="360" y="660"/>
      <point x="399" y="721"/>
      <point x="413" y="742" type="qcurve"/>
      <point x="464" y="746"/>
      <point x="566" y="757"/>
      <point x="617" y="765" type="qcurve"/>
      <point x="569" y="700"/>
      <point x="524" y="638" type="qcurve"/>
      <point x="505" y="611"/>
      <point x="465" y="554"/>
      <point x="426" y="499"/>
      <point x="392" y="447"/>
      <point x="379" y="426" type="qcurve"/>
      <point x="401" y="323"/>
      <point x="463" y="130"/>
      <point x="495" y="30" type="qcurve"/>
      <point x="471" y="31"/>
      <point x="422" y="32"/>
      <point x="398" y="32" type="qcurve"/>
      <point x="369" y="32"/>
      <point x="313" y="31"/>
      <point x="284" y="30" type="qcurve"/>
      <point x="274" y="96"/>
      <point x="253" y="243"/>
      <point x="244" y="309" type="qcurve"/>
    </contour>
  </outline>
</glyph>
<glyph name="m" format="1">
  <advance width="634"/>
  <unicode hex="006D"/>
  <outline>
    <contour>
      <point x="363" y="358" type="line"/>
      <point x="392" y="436"/>
      <point x="419" y="509" type="qcurve"/>
      <point x="431" y="540"/>
      <point x="456" y="605"/>
      <point x="481" y="668"/>
      <point x="505" y="724"/>
      <point x="515" y="745" type="qcurve"/>
      <point x="541" y="748"/>
      <point x="586" y="754"/>
      <point x="631" y="761"/>
      <point x="677" y="768"/>
      <point x="704" y="773" type="qcurve"/>
      <point x="694" y="714"/>
      <point x="676" y="589"/>
      <point x="661" y="465"/>
      <point x="648" y="344"/>
      <point x="643" y="290" type="qcurve"/>
      <point x="631" y="163"/>
      <point x="622" y="42" type="qcurve"/>
      <point x="443" y="10" type="line"/>
      <point x="443" y="15"/>
      <point x="446" y="60"/>
      <point x="452" y="126"/>
      <point x="461" y="206"/>
      <point x="470" y="286"/>
      <point x="480" y="360"/>
      <point x="485" y="387" type="qcurve"/>
      <point x="476" y="387" type="line"/>
      <point x="462" y="344"/>
      <point x="427" y="249"/>
      <point x="391" y="151"/>
      <point x="356" y="56"/>
      <point x="343" y="13" type="qcurve"/>
      <point x="307" y="12"/>
      <point x="256" y="9"/>
      <point x="222" y="7" type="qcurve"/>
      <point x="255" y="387" type="line"/>
      <point x="240" y="387" type="line"/>
      <point x="238" y="374"/>
      <point x="221" y="311"/>
      <point x="200" y="230"/>
      <point x="175" y="143"/>
      <point x="154" y="69"/>
      <point x="139" y="20"/>
      <point x="138" y="17" type="qcurve"/>
      <point x="-31" y="6" type="line"/>
      <point x="14" y="142"/>
      <point x="55" y="273" type="qcurve"/>
      <point x="73" y="329"/>
      <point x="110" y="450"/>
      <point x="146" y="568"/>
      <point x="178" y="679"/>
      <point x="190" y="726" type="qcurve"/>
      <point x="247" y="726"/>
      <point x="347" y="738"/>
      <point x="405" y="743" type="qcurve"/>
      <point x="402" y="721"/>
      <point x="395" y="665"/>
      <point x="386" y="603"/>
      <point x="376" y="538"/>
      <point x="372" y="507" type="qcurve"/>
      <point x="361" y="435"/>
      <point x="349" y="358" type="qcurve"/>
    </contour>
  </outline>
</glyph>
<glyph name="n" format="1">
  <advance width="463"/>
  <unicode hex="006E"/>
  <outline>
    <contour>
      <point x="434" y="43" type="qcurve"/>
      <point x="431" y="43"/>
      <point x="389" y="34"/>
      <point x="335" y="22"/>
      <point x="281" y="9"/>
      <point x="267" y="4" type="qcurve"/>
      <point x="261" y="86"/>
      <point x="254" y="160" type="qcurve"/>
      <point x="251" y="191"/>
      <point x="244" y="258"/>
      <point x="236" y="319"/>
      <point x="227" y="373"/>
      <point x="223" y="392" type="qcurve"/>
      <point x="220" y="373"/>
      <point x="210" y="322"/>
      <point x="200" y="264"/>
      <point x="189" y="202"/>
      <point x="183" y="173" type="qcurve"/>
      <point x="170" y="104"/>
      <point x="155" y="30" type="qcurve"/>
      <point x="5" y="-5" type="line"/>
      <point x="36" y="142"/>
      <point x="63" y="281" type="qcurve"/>
      <point x="74" y="340"/>
      <point x="97" y="467"/>
      <point x="118" y="591"/>
      <point x="134" y="705"/>
      <point x="138" y="751" type="qcurve"/>
      <point x="152" y="750"/>
      <point x="170" y="750"/>
      <point x="182" y="750" type="qcurve"/>
      <point x="197" y="750"/>
      <point x="238" y="751"/>
      <point x="257" y="752" type="qcurve"/>
      <point x="279" y="753"/>
      <point x="302" y="754" type="qcurve"/>
      <point x="316" y="682"/>
      <point x="328" y="615" type="qcurve"/>
      <point x="339" y="557"/>
      <point x="362" y="434"/>
      <point x="372" y="391" type="qcurve"/>
      <point x="376" y="412"/>
      <point x="386" y="466"/>
      <point x="398" y="525"/>
      <point x="410" y="586"/>
      <point x="416" y="615" type="qcurve"/>
      <point x="430" y="682"/>
      <point x="445" y="753" type="qcurve"/>
      <point x="570" y="768" type="line"/>
      <point x="536" y="611"/>
      <point x="509" y="471" type="qcurve"/>
      <point x="497" y="411"/>
      <point x="473" y="287"/>
      <point x="453" y="173"/>
      <point x="438" y="76"/>
    </contour>
  </outline>
</glyph>
<glyph name="t" format="1">
  <advance width="371"/>
  <unicode hex="0074"/>
  <outline>
    <contour>
      <point x="110" y="733" type="qcurve"/>
      <point x="136" y="731"/>
      <point x="189" y="729"/>
      <point x="216" y="729" type="qcurve"/>
      <point x="268" y="729"/>
      <point x="366" y="734"/>
      <point x="404" y="737" type="qcurve"/>
      <point x="449" y="741"/>
      <point x="488" y="746" type="qcurve"/>
      <point x="477" y="691" type="line"/>
      <point x="472" y="668"/>
      <point x="463" y="619"/>
      <point x="459" y="601" type="qcurve"/>
      <point x="436" y="595"/>
      <point x="390" y="590"/>
      <point x="368" y="586" type="qcurve"/>
      <point x="360" y="551"/>
      <point x="344" y="466"/>
      <point x="329" y="375"/>
      <point x="314" y="281"/>
      <point x="307" y="238" type="qcurve"/>
      <point x="291" y="136"/>
      <point x="276" y="28" type="qcurve"/>
      <point x="92" y="-1" type="line"/>
      <point x="116" y="112"/>
      <point x="137" y="221" type="qcurve"/>
      <point x="146" y="267"/>
      <point x="165" y="368"/>
      <point x="182" y="465"/>
      <point x="196" y="556"/>
      <point x="201" y="594" type="qcurve"/>
      <point x="177" y="597"/>
      <point x="129" y="595"/>
      <point x="105" y="602" type="qcurve"/>
      <point x="106" y="618"/>
      <point x="107" y="662"/>
      <point x="108" y="683" type="qcurve"/>
      <point x="109" y="707"/>
    </contour>
  </outline>
</glyph>
<glyph name="u" format="1">
  <advance width="429"/>
  <unicode hex="0075"/>
  <outline>
    <contour>
      <point x="136" y="728" type="qcurve"/>
      <point x="158" y="730"/>
      <point x="217" y="736"/>
      <point x="243" y="738" type="qcurve"/>
      <point x="274" y="741"/>
      <point x="305" y="744" type="qcurve"/>
      <point x="279" y="621"/>
      <point x="258" y="520" type="qcurve"/>
      <point x="249" y="477"/>
      <point x="231" y="391"/>
      <point x="216" y="319"/>
      <point x="205" y="267"/>
      <point x="203" y="258" type="qcurve"/>
      <point x="198" y="234"/>
      <point x="188" y="184"/>
      <point x="188" y="164" type="qcurve"/>
      <point x="188" y="147"/>
      <point x="205" y="126"/>
      <point x="217" y="126" type="qcurve"/>
      <point x="234" y="126"/>
      <point x="257" y="154"/>
      <point x="272" y="192"/>
      <point x="280" y="232"/>
      <point x="283" y="244" type="qcurve"/>
      <point x="289" y="273"/>
      <point x="304" y="346"/>
      <point x="319" y="425"/>
      <point x="335" y="507"/>
      <point x="342" y="546" type="qcurve"/>
      <point x="359" y="636"/>
      <point x="376" y="732" type="qcurve"/>
      <point x="531" y="742" type="line"/>
      <point x="531" y="742"/>
      <point x="521" y="689"/>
      <point x="505" y="601"/>
      <point x="485" y="488"/>
      <point x="461" y="367"/>
      <point x="437" y="249"/>
      <point x="426" y="200" type="qcurve"/>
      <point x="412" y="141"/>
      <point x="359" y="59"/>
      <point x="289" y="6"/>
      <point x="209" y="-18"/>
      <point x="169" y="-18" type="qcurve"/>
      <point x="145" y="-18"/>
      <point x="96" y="-3"/>
      <point x="57" y="28"/>
      <point x="32" y="75"/>
      <point x="32" y="107" type="qcurve"/>
      <point x="32" y="111"/>
      <point x="32" y="119"/>
      <point x="33" y="123" type="qcurve"/>
      <point x="37" y="165"/>
      <point x="55" y="284"/>
      <point x="76" y="413"/>
      <point x="100" y="543"/>
      <point x="120" y="649"/>
      <point x="134" y="720"/>
    </contour>
  </outline>
</glyph>
<glyph name="w" format="1">
  <advance width="615"/>
  <unicode hex="0077"/>
  <outline>
    <contour>
      <point x="555" y="731" type="line"/>
      <point x="590" y="736"/>
      <point x="624" y="740" type="qcurve"/>
      <point x="653" y="744"/>
      <point x="717" y="753"/>
      <point x="741" y="758" type="qcurve"/>
      <point x="726" y="715"/>
      <point x="695" y="609"/>
      <point x="663" y="493"/>
      <point x="633" y="374"/>
      <point x="619" y="318" type="qcurve"/>
      <point x="586" y="187"/>
      <point x="555" y="49" type="qcurve"/>
      <point x="324" y="10" type="line"/>
      <point x="369" y="405" type="line"/>
      <point x="356" y="405" type="line"/>
      <point x="255" y="34" type="line"/>
      <point x="42" y="-4" type="line"/>
      <point x="120" y="723" type="line"/>
      <point x="168" y="725"/>
      <point x="253" y="740"/>
      <point x="295" y="743" type="qcurve"/>
      <point x="295" y="742"/>
      <point x="289" y="702"/>
      <point x="279" y="638"/>
      <point x="266" y="557"/>
      <point x="259" y="515" type="qcurve"/>
      <point x="243" y="416"/>
      <point x="223" y="291" type="qcurve"/>
      <point x="239" y="291" type="line"/>
      <point x="265" y="385"/>
      <point x="290" y="469" type="qcurve"/>
      <point x="300" y="505"/>
      <point x="322" y="580"/>
      <point x="341" y="649"/>
      <point x="358" y="709"/>
      <point x="364" y="729" type="qcurve"/>
      <point x="373" y="729" type="line"/>
      <point x="391" y="729"/>
      <point x="429" y="733"/>
      <point x="445" y="735" type="qcurve"/>
      <point x="463" y="738"/>
      <point x="481" y="742" type="qcurve"/>
      <point x="479" y="733"/>
      <point x="474" y="676"/>
      <point x="466" y="595"/>
      <point x="458" y="498"/>
      <point x="450" y="404"/>
      <point x="442" y="320"/>
      <point x="439" y="291" type="qcurve"/>
      <point x="458" y="291" type="line"/>
    </contour>
  </outline>
</glyph>
<glyph name="z" format="1">
  <advance width="441"/>
  <unicode hex="007A"/>
  <outline>
    <contour>
      <point x="545" y="724" type="line"/>
      <point x="518" y="583" type="line"/>
      <point x="239" y="185" type="line"/>
      <point x="259" y="185"/>
      <point x="328" y="189"/>
      <point x="362" y="191" type="qcurve"/>
      <point x="401" y="194"/>
      <point x="444" y="197" type="qcurve"/>
      <point x="441" y="41" type="line"/>
      <point x="432" y="41"/>
      <point x="373" y="39"/>
      <point x="292" y="35"/>
      <point x="198" y="29"/>
      <point x="108" y="22"/>
      <point x="31" y="13"/>
      <point x="8" y="9" type="qcurve"/>
      <point x="9" y="159" type="line"/>
      <point x="300" y="555" type="line"/>
      <point x="283" y="555"/>
      <point x="219" y="548"/>
      <point x="155" y="540"/>
      <point x="131" y="536" type="qcurve"/>
      <point x="107" y="533" type="line"/>
      <point x="126" y="694" type="line"/>
    </contour>
  </outline>
</glyph>
<glyph name="braceleft" format="1">
  <advance width="288"/>
  <unicode hex="007B"/>
  <outline>
    <contour>
      <point x="248" y="7" type="line"/>
      <point x="220" y="21"/>
      <point x="171" y="61"/>
      <point x="135" y="111"/>
      <point x="115" y="173"/>
      <point x="115" y="210" type="qcurve"/>
      <point x="115" y="232"/>
      <point x="111" y="277"/>
      <point x="96" y="314"/>
      <point x="63" y="339"/>
      <point x="35" y="342" type="qcurve"/>
      <point x="53" y="460" type="line"/>
      <point x="61" y="460" type="line"/>
      <point x="97" y="460"/>
      <point x="131" y="491"/>
      <point x="149" y="541"/>
      <point x="162" y="604"/>
      <point x="193" y="668"/>
      <point x="253" y="727"/>
      <point x="309" y="749" type="qcurve"/>
      <point x="368" y="598" type="line"/>
      <point x="332" y="595"/>
      <point x="293" y="566"/>
      <point x="271" y="526"/>
      <point x="259" y="479"/>
      <point x="242" y="436"/>
      <point x="211" y="401"/>
      <point x="181" y="393" type="qcurve"/>
      <point x="200" y="386"/>
      <point x="222" y="361"/>
      <point x="234" y="328"/>
      <point x="237" y="290"/>
      <point x="237" y="272" type="qcurve"/>
      <point x="237" y="236" type="line"/>
      <point x="237" y="223"/>
      <point x="249" y="198"/>
      <point x="267" y="176"/>
      <point x="290" y="160"/>
      <point x="302" y="156" type="qcurve"/>
    </contour>
  </outline>
</glyph>
<glyph name="bar" format="1">
  <advance width="254"/>
  <unicode hex="007C"/>
  <outline>
    <contour>
      <point x="328" y="776" type="line"/>
      <point x="299" y="623"/>
      <point x="273" y="480" type="qcurve"/>
      <point x="262" y="419"/>
      <point x="239" y="288"/>
      <point x="217" y="162"/>
      <point x="199" y="46"/>
      <point x="192" y="0" type="qcurve"/>
      <point x="183" y="0"/>
      <point x="129" y="-5"/>
      <point x="71" y="-12"/>
      <point x="25" y="-18"/>
      <point x="23" y="-19" type="qcurve"/>
      <point x="33" y="25"/>
      <point x="57" y="139"/>
      <point x="82" y="266"/>
      <point x="107" y="399"/>
      <point x="118" y="461" type="qcurve"/>
      <point x="144" y="607"/>
      <point x="171" y="764" type="qcurve"/>
    </contour>
  </outline>
</glyph>
<glyph name="braceright" format="1">
  <advance width="280"/>
  <unicode hex="007D"/>
  <outline>
    <contour>
      <point x="19" y="146" type="line"/>
      <point x="35" y="150"/>
      <point x="70" y="161"/>
      <point x="101" y="181"/>
      <point x="123" y="212"/>
      <point x="126" y="236" type="qcurve"/>
      <point x="128" y="255"/>
      <point x="138" y="300"/>
      <point x="156" y="342"/>
      <point x="185" y="375"/>
      <point x="206" y="383" type="qcurve"/>
      <point x="181" y="393"/>
      <point x="161" y="435"/>
      <point x="156" y="486"/>
      <point x="158" y="542"/>
      <point x="148" y="590"/>
      <point x="119" y="624"/>
      <point x="87" y="628" type="qcurve"/>
      <point x="178" y="749" type="line"/>
      <point x="213" y="733"/>
      <point x="254" y="693"/>
      <point x="275" y="648"/>
      <point x="281" y="601"/>
      <point x="281" y="578" type="qcurve"/>
      <point x="281" y="564"/>
      <point x="280" y="538"/>
      <point x="280" y="526" type="qcurve"/>
      <point x="280" y="509"/>
      <point x="284" y="482"/>
      <point x="298" y="461"/>
      <point x="324" y="450"/>
      <point x="345" y="450" type="qcurve"/>
      <point x="353" y="450" type="line"/>
      <point x="338" y="332" type="line"/>
      <point x="314" y="329"/>
      <point x="280" y="307"/>
      <point x="257" y="273"/>
      <point x="244" y="227"/>
      <point x="240" y="200" type="qcurve"/>
      <point x="234" y="164"/>
      <point x="197" y="99"/>
      <point x="142" y="48"/>
      <point x="71" y="13"/>
      <point x="31" y="7" type="qcurve"/>
    </contour>
  </outline>
</glyph>
<glyph name="asciitilde" format="1">
  <advance width="416"/>
  <unicode hex="007E"/>
  <outline>
    <contour>
      <point x="249" y="703" type="qcurve"/>
      <point x="277" y="703"/>
      <point x="319" y="676"/>
      <point x="350" y="645"/>
      <point x="375" y="618"/>
      <point x="386" y="618" type="qcurve"/>
      <point x="398" y="618"/>
      <point x="423" y="656"/>
      <point x="439" y="707" type="qcurve"/>
      <point x="478" y="688"/>
      <point x="501" y="676" type="qcurve"/>
      <point x="514" y="669"/>
      <point x="524" y="662" type="qcurve"/>
      <point x="514" y="606"/>
      <point x="492" y="563" type="qcurve"/>
      <point x="483" y="544"/>
      <point x="457" y="509"/>
      <point x="424" y="481"/>
      <point x="383" y="464"/>
      <point x="358" y="464" type="qcurve"/>
      <point x="339" y="464"/>
      <point x="302" y="492"/>
      <point x="266" y="525"/>
      <point x="232" y="553"/>
      <point x="216" y="553" type="qcurve"/>
      <point x="199" y="553"/>
      <point x="169" y="513"/>
      <point x="155" y="462" type="qcurve"/>
      <point x="135" y="471"/>
      <point x="104" y="487"/>
      <point x="93" y="493" type="qcurve"/>
      <point x="80" y="500"/>
      <point x="70" y="507" type="qcurve"/>
      <point x="71" y="507"/>
      <point x="79" y="536"/>
      <point x="96" y="580"/>
      <point x="123" y="630"/>
      <point x="162" y="674"/>
      <point x="215" y="703"/>
    </contour>
  </outline>
</glyph>
<glyph name="cent" format="1">
  <advance width="457"/>
  <unicode hex="00A2"/>
  <outline>
    <contour>
      <point x="384" y="533" type="line"/>
      <point x="384" y="545" type="line"/>
      <point x="384" y="554"/>
      <point x="382" y="577"/>
      <point x="378" y="598"/>
      <point x="372" y="612"/>
      <point x="367" y="612" type="qcurve"/>
      <point x="349" y="612"/>
      <point x="314" y="572"/>
      <point x="280" y="506"/>
      <point x="251" y="423"/>
      <point x="229" y="338"/>
      <point x="216" y="258"/>
      <point x="216" y="229" type="qcurve"/>
      <point x="216" y="205"/>
      <point x="225" y="177"/>
      <point x="236" y="177" type="qcurve"/>
      <point x="255" y="177"/>
      <point x="286" y="203"/>
      <point x="310" y="242"/>
      <point x="329" y="287"/>
      <point x="336" y="307" type="qcurve"/>
      <point x="453" y="260" type="line"/>
      <point x="419" y="167"/>
      <point x="331" y="50"/>
      <point x="283" y="22" type="qcurve"/>
      <point x="281" y="2"/>
      <point x="276" y="-47"/>
      <point x="271" y="-79" type="qcurve"/>
      <point x="258" y="-79"/>
      <point x="245" y="-80" type="qcurve"/>
      <point x="234" y="-81"/>
      <point x="209" y="-83"/>
      <point x="200" y="-84" type="qcurve"/>
      <point x="176" y="-87"/>
      <point x="163" y="-88"/>
      <point x="162" y="-88" type="qcurve"/>
      <point x="169" y="-59"/>
      <point x="176" y="-20"/>
      <point x="179" y="0" type="qcurve"/>
      <point x="126" y="10"/>
      <point x="56" y="123"/>
      <point x="56" y="224" type="qcurve"/>
      <point x="56" y="308"/>
      <point x="98" y="475"/>
      <point x="173" y="616"/>
      <point x="279" y="718"/>
      <point x="343" y="738" type="qcurve"/>
      <point x="345" y="754"/>
      <point x="349" y="781"/>
      <point x="351" y="792" type="qcurve"/>
      <point x="353" y="804"/>
      <point x="355" y="814" type="qcurve"/>
      <point x="452" y="816" type="line"/>
      <point x="450" y="809"/>
      <point x="447" y="798" type="qcurve"/>
      <point x="445" y="789"/>
      <point x="439" y="763"/>
      <point x="436" y="747" type="qcurve"/>
      <point x="481" y="740"/>
      <point x="539" y="665"/>
      <point x="539" y="605" type="qcurve"/>
      <point x="539" y="599"/>
      <point x="539" y="586"/>
      <point x="538" y="579" type="qcurve"/>
    </contour>
  </outline>
</glyph>
<glyph name="sterling" format="1">
  <advance width="411"/>
  <unicode hex="00A3"/>
  <outline>
    <contour>
      <point x="442" y="577" type="qcurve"/>
      <point x="429" y="584"/>
      <point x="378" y="600"/>
      <point x="352" y="600" type="qcurve"/>
      <point x="328" y="600"/>
      <point x="292" y="572"/>
      <point x="292" y="533" type="qcurve"/>
      <point x="292" y="516"/>
      <point x="307" y="466"/>
      <point x="311" y="443" type="qcurve"/>
      <point x="331" y="443"/>
      <point x="369" y="443"/>
      <point x="383" y="444" type="qcurve"/>
      <point x="400" y="445"/>
      <point x="415" y="446" type="qcurve"/>
      <point x="398" y="311" type="line"/>
      <point x="385" y="311"/>
      <point x="371" y="312" type="qcurve"/>
      <point x="359" y="313"/>
      <point x="328" y="313"/>
      <point x="311" y="314" type="qcurve"/>
      <point x="311" y="298"/>
      <point x="304" y="254"/>
      <point x="288" y="207"/>
      <point x="261" y="161"/>
      <point x="242" y="144" type="qcurve"/>
      <point x="257" y="145"/>
      <point x="295" y="146"/>
      <point x="335" y="148"/>
      <point x="373" y="149"/>
      <point x="387" y="149" type="qcurve"/>
      <point x="385" y="117"/>
      <point x="381" y="58"/>
      <point x="381" y="42" type="qcurve"/>
      <point x="381" y="39"/>
      <point x="382" y="34"/>
      <point x="382" y="32" type="qcurve"/>
      <point x="370" y="32"/>
      <point x="343" y="33"/>
      <point x="331" y="33" type="qcurve"/>
      <point x="293" y="33"/>
      <point x="206" y="29"/>
      <point x="119" y="20"/>
      <point x="35" y="7"/>
      <point x="0" y="-2" type="qcurve"/>
      <point x="2" y="13"/>
      <point x="10" y="58"/>
      <point x="15" y="79" type="qcurve"/>
      <point x="20" y="104"/>
      <point x="26" y="131" type="qcurve"/>
      <point x="51" y="141" type="line"/>
      <point x="66" y="145"/>
      <point x="99" y="177"/>
      <point x="130" y="225"/>
      <point x="156" y="283"/>
      <point x="165" y="313" type="qcurve"/>
      <point x="154" y="312"/>
      <point x="130" y="312"/>
      <point x="119" y="312" type="qcurve"/>
      <point x="95" y="312" type="line"/>
      <point x="126" y="445" type="line"/>
      <point x="135" y="444"/>
      <point x="143" y="444" type="qcurve"/>
      <point x="150" y="443"/>
      <point x="163" y="443"/>
      <point x="168" y="443" type="qcurve"/>
      <point x="148" y="521"/>
      <point x="148" y="577" type="qcurve"/>
      <point x="148" y="625"/>
      <point x="182" y="691"/>
      <point x="238" y="732"/>
      <point x="310" y="750"/>
      <point x="347" y="750" type="qcurve"/>
      <point x="385" y="750"/>
      <point x="455" y="734"/>
      <point x="482" y="720" type="qcurve"/>
      <point x="476" y="697"/>
      <point x="462" y="646"/>
      <point x="456" y="625" type="qcurve"/>
      <point x="449" y="600"/>
    </contour>
  </outline>
</glyph>
<glyph name="currency" format="1">
  <advance width="439"/>
  <unicode hex="00A4"/>
  <outline>
    <contour>
      <point x="349" y="706" type="qcurve"/>
      <point x="397" y="706"/>
      <point x="429" y="682" type="qcurve"/>
      <point x="467" y="721" type="line"/>
      <point x="477" y="707"/>
      <point x="509" y="676"/>
      <point x="519" y="666" type="qcurve"/>
      <point x="472" y="621" type="line"/>
      <point x="481" y="588"/>
      <point x="481" y="555" type="qcurve"/>
      <point x="481" y="506"/>
      <point x="446" y="409"/>
      <point x="414" y="367" type="qcurve"/>
      <point x="428" y="347"/>
      <point x="446" y="320"/>
      <point x="452" y="312" type="qcurve"/>
      <point x="459" y="302"/>
      <point x="463" y="298" type="qcurve"/>
      <point x="398" y="252" type="line"/>
      <point x="396" y="253"/>
      <point x="392" y="261" type="qcurve"/>
      <point x="387" y="268"/>
      <point x="371" y="294"/>
      <point x="355" y="320" type="qcurve"/>
      <point x="329" y="302"/>
      <point x="276" y="282"/>
      <point x="251" y="282" type="qcurve"/>
      <point x="192" y="282"/>
      <point x="157" y="305" type="qcurve"/>
      <point x="142" y="291"/>
      <point x="123" y="273"/>
      <point x="118" y="268" type="qcurve"/>
      <point x="109" y="259" type="line"/>
      <point x="57" y="318" type="line"/>
      <point x="62" y="323"/>
      <point x="70" y="330" type="qcurve"/>
      <point x="77" y="336"/>
      <point x="96" y="353"/>
      <point x="110" y="366" type="qcurve"/>
      <point x="107" y="378"/>
      <point x="102" y="405"/>
      <point x="102" y="420" type="qcurve"/>
      <point x="102" y="468"/>
      <point x="140" y="570"/>
      <point x="174" y="612" type="qcurve"/>
      <point x="125" y="684" type="line"/>
      <point x="139" y="692"/>
      <point x="177" y="714"/>
      <point x="190" y="725" type="qcurve"/>
      <point x="198" y="711"/>
      <point x="208" y="695"/>
      <point x="215" y="682"/>
      <point x="223" y="669"/>
      <point x="229" y="660" type="qcurve"/>
      <point x="255" y="681"/>
      <point x="317" y="706"/>
    </contour>
    <contour>
      <point x="269" y="384" type="qcurve"/>
      <point x="294" y="384"/>
      <point x="337" y="416"/>
      <point x="370" y="465"/>
      <point x="389" y="522"/>
      <point x="389" y="547" type="qcurve"/>
      <point x="389" y="574"/>
      <point x="364" y="611"/>
      <point x="337" y="611" type="qcurve"/>
      <point x="306" y="611"/>
      <point x="259" y="581"/>
      <point x="226" y="534"/>
      <point x="209" y="479"/>
      <point x="209" y="455" type="qcurve"/>
      <point x="209" y="425"/>
      <point x="238" y="384"/>
    </contour>
  </outline>
</glyph>
<glyph name="yen" format="1">
  <advance width="457"/>
  <unicode hex="00A5"/>
  <outline>
    <contour>
      <point x="92" y="339" type="line"/>
      <point x="100" y="338"/>
      <point x="109" y="338" type="qcurve"/>
      <point x="117" y="338"/>
      <point x="137" y="337"/>
      <point x="148" y="337" type="qcurve"/>
      <point x="146" y="400"/>
      <point x="139" y="525"/>
      <point x="135" y="576" type="qcurve"/>
      <point x="131" y="635"/>
      <point x="126" y="690" type="qcurve"/>
      <point x="293" y="754" type="line"/>
      <point x="293" y="629" type="line"/>
      <point x="293" y="603"/>
      <point x="293" y="550"/>
      <point x="292" y="499"/>
      <point x="292" y="454"/>
      <point x="292" y="438" type="qcurve"/>
      <point x="306" y="473"/>
      <point x="343" y="575"/>
      <point x="360" y="624" type="qcurve"/>
      <point x="379" y="680"/>
      <point x="400" y="742" type="qcurve"/>
      <point x="559" y="707" type="line"/>
      <point x="531" y="648"/>
      <point x="500" y="586" type="qcurve"/>
      <point x="474" y="532"/>
      <point x="410" y="402"/>
      <point x="380" y="339" type="qcurve"/>
      <point x="394" y="339"/>
      <point x="418" y="340"/>
      <point x="426" y="341" type="qcurve"/>
      <point x="436" y="342"/>
      <point x="444" y="342" type="qcurve"/>
      <point x="411" y="254" type="line"/>
      <point x="339" y="254" type="line"/>
      <point x="325" y="223" type="line"/>
      <point x="319" y="194" type="line"/>
      <point x="400" y="194" type="line"/>
      <point x="380" y="111" type="line"/>
      <point x="355" y="111" type="line"/>
      <point x="344" y="111"/>
      <point x="314" y="111"/>
      <point x="299" y="112" type="qcurve"/>
      <point x="294" y="96"/>
      <point x="287" y="69"/>
      <point x="284" y="59" type="qcurve"/>
      <point x="280" y="47"/>
      <point x="278" y="37" type="qcurve"/>
      <point x="103" y="15" type="line"/>
      <point x="125" y="111" type="line"/>
      <point x="108" y="111"/>
      <point x="81" y="110"/>
      <point x="70" y="110" type="qcurve"/>
      <point x="48" y="110" type="line"/>
      <point x="72" y="195" type="line"/>
      <point x="144" y="195" type="line"/>
      <point x="150" y="221" type="line"/>
      <point x="150" y="254" type="line"/>
      <point x="76" y="254" type="line"/>
    </contour>
  </outline>
</glyph>
<glyph name="brokenbar" format="1">
  <advance width="249"/>
  <unicode hex="00A6"/>
  <outline>
    <contour>
      <point x="242" y="320" type="line"/>
      <point x="226" y="231"/>
      <point x="198" y="63"/>
      <point x="189" y="0" type="qcurve"/>
      <point x="180" y="0"/>
      <point x="126" y="-5"/>
      <point x="68" y="-12"/>
      <point x="22" y="-18"/>
      <point x="20" y="-19" type="qcurve"/>
      <point x="34" y="41"/>
      <point x="68" y="206"/>
      <point x="85" y="296" type="qcurve"/>
    </contour>
    <contour>
      <point x="111" y="436" type="line"/>
      <point x="123" y="503"/>
      <point x="143" y="622"/>
      <point x="151" y="667" type="qcurve"/>
      <point x="160" y="720"/>
      <point x="168" y="764" type="qcurve"/>
      <point x="325" y="776" type="line"/>
      <point x="317" y="733"/>
      <point x="307" y="681" type="qcurve"/>
      <point x="299" y="636"/>
      <point x="278" y="520"/>
      <point x="266" y="454" type="qcurve"/>
    </contour>
  </outline>
</glyph>
<glyph name="section" format="1">
  <advance width="450"/>
  <unicode hex="00A7"/>
  <outline>
    <contour>
      <point x="406" y="614" type="line"/>
      <point x="406" y="643"/>
      <point x="382" y="665"/>
      <point x="367" y="665" type="qcurve"/>
      <point x="348" y="665"/>
      <point x="315" y="640"/>
      <point x="315" y="623" type="qcurve"/>
      <point x="315" y="611"/>
      <point x="339" y="590"/>
      <point x="376" y="567"/>
      <point x="419" y="540"/>
      <point x="456" y="504"/>
      <point x="480" y="457"/>
      <point x="480" y="425" type="qcurve"/>
      <point x="480" y="372"/>
      <point x="411" y="294"/>
      <point x="360" y="268" type="qcurve"/>
      <point x="374" y="238"/>
      <point x="387" y="183"/>
      <point x="387" y="158" type="qcurve"/>
      <point x="387" y="117"/>
      <point x="354" y="51"/>
      <point x="298" y="6"/>
      <point x="224" y="-18"/>
      <point x="183" y="-18" type="qcurve"/>
      <point x="144" y="-18"/>
      <point x="63" y="11"/>
      <point x="23" y="43" type="qcurve"/>
      <point x="69" y="165" type="line"/>
      <point x="91" y="142"/>
      <point x="155" y="113"/>
      <point x="184" y="113" type="qcurve"/>
      <point x="200" y="113"/>
      <point x="225" y="134"/>
      <point x="225" y="151" type="qcurve"/>
      <point x="225" y="172"/>
      <point x="176" y="223"/>
      <point x="116" y="280"/>
      <point x="67" y="342"/>
      <point x="67" y="373" type="qcurve"/>
      <point x="67" y="424"/>
      <point x="135" y="508"/>
      <point x="207" y="528" type="qcurve"/>
      <point x="174" y="577"/>
      <point x="174" y="621" type="qcurve"/>
      <point x="174" y="658"/>
      <point x="215" y="716"/>
      <point x="279" y="756"/>
      <point x="358" y="778"/>
      <point x="397" y="778" type="qcurve"/>
      <point x="426" y="778"/>
      <point x="477" y="765"/>
      <point x="516" y="737"/>
      <point x="539" y="694"/>
      <point x="539" y="664" type="qcurve"/>
      <point x="539" y="654"/>
      <point x="535" y="634"/>
      <point x="534" y="623" type="qcurve"/>
    </contour>
    <contour>
      <point x="227" y="396" type="qcurve"/>
      <point x="227" y="382"/>
      <point x="251" y="360"/>
      <point x="270" y="348" type="qcurve"/>
      <point x="287" y="353"/>
      <point x="310" y="384"/>
      <point x="310" y="412" type="qcurve"/>
      <point x="310" y="423"/>
      <point x="294" y="444"/>
      <point x="280" y="456" type="qcurve"/>
      <point x="263" y="454"/>
      <point x="227" y="421"/>
    </contour>
  </outline>
</glyph>
<glyph name="dieresis" format="1">
  <advance width="661"/>
  <unicode hex="00A8"/>
  <outline>
    <contour>
      <point x="273" y="5" type="qcurve"/>
      <point x="232" y="5"/>
      <point x="191" y="59"/>
      <point x="191" y="93" type="qcurve"/>
      <point x="191" y="110"/>
      <point x="202" y="143"/>
      <point x="225" y="168"/>
      <point x="260" y="184"/>
      <point x="283" y="184" type="qcurve"/>
      <point x="333" y="184"/>
      <point x="382" y="133"/>
      <point x="382" y="101" type="qcurve"/>
      <point x="382" y="83"/>
      <point x="368" y="49"/>
      <point x="340" y="22"/>
      <point x="299" y="5"/>
    </contour>
    <contour>
      <point x="511" y="5" type="qcurve"/>
      <point x="470" y="5"/>
      <point x="429" y="59"/>
      <point x="429" y="93" type="qcurve"/>
      <point x="429" y="110"/>
      <point x="440" y="143"/>
      <point x="463" y="168"/>
      <point x="498" y="184"/>
      <point x="522" y="184" type="qcurve"/>
      <point x="571" y="184"/>
      <point x="620" y="133"/>
      <point x="620" y="101" type="qcurve"/>
      <point x="620" y="83"/>
      <point x="606" y="49"/>
      <point x="578" y="22"/>
      <point x="538" y="5"/>
    </contour>
  </outline>
</glyph>
<glyph name="copyright" format="1">
  <advance width="589"/>
  <unicode hex="00A9"/>
  <outline>
    <contour>
      <point x="461" y="773" type="qcurve"/>
      <point x="510" y="773"/>
      <point x="579" y="738"/>
      <point x="624" y="676"/>
      <point x="645" y="591"/>
      <point x="645" y="542" type="qcurve"/>
      <point x="645" y="437"/>
      <point x="572" y="267"/>
      <point x="461" y="147"/>
      <point x="328" y="82"/>
      <point x="268" y="82" type="qcurve"/>
      <point x="223" y="82"/>
      <point x="147" y="105"/>
      <point x="92" y="155"/>
      <point x="61" y="230"/>
      <point x="61" y="283" type="qcurve"/>
      <point x="61" y="335"/>
      <point x="82" y="449"/>
      <point x="126" y="558"/>
      <point x="192" y="656"/>
      <point x="280" y="730"/>
      <point x="393" y="773"/>
    </contour>
    <contour>
      <point x="265" y="169" type="qcurve"/>
      <point x="330" y="169"/>
      <point x="439" y="240"/>
      <point x="519" y="347"/>
      <point x="563" y="469"/>
      <point x="563" y="520" type="qcurve"/>
      <point x="563" y="593"/>
      <point x="516" y="687"/>
      <point x="466" y="687" type="qcurve"/>
      <point x="400" y="687"/>
      <point x="303" y="650"/>
      <point x="233" y="587"/>
      <point x="189" y="507"/>
      <point x="163" y="420"/>
      <point x="153" y="334"/>
      <point x="153" y="298" type="qcurve"/>
      <point x="153" y="287"/>
      <point x="153" y="269"/>
      <point x="154" y="261" type="qcurve"/>
      <point x="155" y="246"/>
      <point x="172" y="213"/>
      <point x="202" y="186"/>
      <point x="241" y="169"/>
    </contour>
    <contour>
      <point x="402" y="529" type="line"/>
      <point x="402" y="535" type="line"/>
      <point x="402" y="546"/>
      <point x="398" y="577"/>
      <point x="392" y="577" type="qcurve"/>
      <point x="376" y="577"/>
      <point x="343" y="524"/>
      <point x="316" y="450"/>
      <point x="299" y="369"/>
      <point x="299" y="342" type="qcurve"/>
      <point x="299" y="310"/>
      <point x="311" y="310" type="qcurve"/>
      <point x="322" y="310"/>
      <point x="341" y="326"/>
      <point x="356" y="350"/>
      <point x="368" y="378"/>
      <point x="372" y="390" type="qcurve"/>
      <point x="444" y="361" type="line"/>
      <point x="414" y="280"/>
      <point x="330" y="199"/>
      <point x="289" y="199" type="qcurve"/>
      <point x="251" y="199"/>
      <point x="200" y="271"/>
      <point x="200" y="342" type="qcurve"/>
      <point x="200" y="400"/>
      <point x="233" y="515"/>
      <point x="293" y="606"/>
      <point x="374" y="662"/>
      <point x="422" y="662" type="qcurve"/>
      <point x="453" y="662"/>
      <point x="497" y="615"/>
      <point x="497" y="575" type="qcurve"/>
      <point x="497" y="570"/>
      <point x="497" y="562"/>
      <point x="496" y="557" type="qcurve"/>
    </contour>
  </outline>
</glyph>
<glyph name="ordfeminine" format="1">
  <advance width="402"/>
  <unicode hex="00AA"/>
  <outline>
    <contour>
      <point x="440" y="401" type="line"/>
      <point x="435" y="372"/>
      <point x="396" y="348"/>
      <point x="375" y="348" type="qcurve"/>
      <point x="350" y="348"/>
      <point x="309" y="372"/>
      <point x="309" y="397" type="qcurve"/>
      <point x="309" y="400"/>
      <point x="309" y="407"/>
      <point x="310" y="411" type="qcurve"/>
      <point x="287" y="384"/>
      <point x="232" y="359"/>
      <point x="205" y="359" type="qcurve"/>
      <point x="180" y="359"/>
      <point x="134" y="379"/>
      <point x="99" y="417"/>
      <point x="78" y="471"/>
      <point x="78" y="505" type="qcurve"/>
      <point x="78" y="552"/>
      <point x="118" y="645"/>
      <point x="187" y="719"/>
      <point x="281" y="765"/>
      <point x="335" y="765" type="qcurve"/>
      <point x="367" y="765"/>
      <point x="449" y="746"/>
      <point x="494" y="721" type="qcurve"/>
      <point x="494" y="719"/>
      <point x="491" y="694"/>
      <point x="486" y="657"/>
      <point x="480" y="613"/>
      <point x="476" y="594" type="qcurve"/>
    </contour>
    <contour>
      <point x="355" y="671" type="line"/>
      <point x="347" y="673"/>
      <point x="333" y="675"/>
      <point x="325" y="675" type="qcurve"/>
      <point x="308" y="675"/>
      <point x="275" y="654"/>
      <point x="248" y="617"/>
      <point x="231" y="566"/>
      <point x="231" y="536" type="qcurve"/>
      <point x="231" y="498"/>
      <point x="254" y="465"/>
      <point x="271" y="465" type="qcurve"/>
      <point x="294" y="465"/>
      <point x="321" y="489" type="qcurve"/>
    </contour>
  </outline>
</glyph>
<glyph name="guillemotleft" format="1">
  <advance width="476"/>
  <unicode hex="00AB"/>
  <outline>
    <contour>
      <point x="44" y="235" type="qcurve"/>
      <point x="57" y="304"/>
      <point x="77" y="441"/>
      <point x="87" y="511" type="qcurve"/>
      <point x="119" y="539"/>
      <point x="200" y="594"/>
      <point x="236" y="617" type="qcurve"/>
      <point x="278" y="643"/>
      <point x="322" y="667" type="qcurve"/>
      <point x="313" y="633"/>
      <point x="305" y="598" type="qcurve"/>
      <point x="298" y="568"/>
      <point x="282" y="498"/>
      <point x="276" y="468" type="qcurve"/>
      <point x="228" y="436"/>
      <point x="166" y="399"/>
      <point x="142" y="380" type="qcurve"/>
      <point x="171" y="346"/>
      <point x="224" y="278"/>
      <point x="253" y="244" type="qcurve"/>
      <point x="241" y="190"/>
      <point x="220" y="84"/>
      <point x="207" y="30" type="qcurve"/>
      <point x="165" y="82"/>
      <point x="84" y="180"/>
    </contour>
    <contour>
      <point x="274" y="235" type="qcurve"/>
      <point x="287" y="304"/>
      <point x="307" y="441"/>
      <point x="317" y="511" type="qcurve"/>
      <point x="349" y="539"/>
      <point x="430" y="594"/>
      <point x="466" y="617" type="qcurve"/>
      <point x="508" y="643"/>
      <point x="552" y="667" type="qcurve"/>
      <point x="543" y="633"/>
      <point x="535" y="598" type="qcurve"/>
      <point x="528" y="568"/>
      <point x="512" y="498"/>
      <point x="506" y="468" type="qcurve"/>
      <point x="458" y="436"/>
      <point x="396" y="399"/>
      <point x="372" y="380" type="qcurve"/>
      <point x="401" y="346"/>
      <point x="454" y="278"/>
      <point x="483" y="244" type="qcurve"/>
      <point x="471" y="190"/>
      <point x="450" y="84"/>
      <point x="437" y="30" type="qcurve"/>
      <point x="395" y="82"/>
      <point x="314" y="180"/>
    </contour>
  </outline>
</glyph>
<glyph name="logicalnot" format="1">
  <advance width="409"/>
  <unicode hex="00AC"/>
  <outline>
    <contour>
      <point x="69" y="399" type="line"/>
      <point x="88" y="490" type="line"/>
      <point x="166" y="492"/>
      <point x="237" y="494" type="qcurve"/>
      <point x="267" y="495"/>
      <point x="331" y="497"/>
      <point x="390" y="498"/>
      <point x="442" y="500"/>
      <point x="461" y="501" type="qcurve"/>
      <point x="450" y="460"/>
      <point x="429" y="378"/>
      <point x="421" y="344" type="qcurve"/>
      <point x="411" y="304"/>
      <point x="403" y="267" type="qcurve"/>
      <point x="243" y="249" type="line"/>
      <point x="249" y="274"/>
      <point x="256" y="300" type="qcurve"/>
      <point x="262" y="322"/>
      <point x="276" y="374"/>
      <point x="283" y="399" type="qcurve"/>
    </contour>
  </outline>
</glyph>
<glyph name="registered" format="1">
  <advance width="551"/>
  <unicode hex="00AE"/>
  <outline>
    <contour>
      <point x="439" y="773" type="qcurve"/>
      <point x="484" y="773"/>
      <point x="549" y="740"/>
      <point x="591" y="682"/>
      <point x="611" y="603"/>
      <point x="611" y="558" type="qcurve"/>
      <point x="611" y="460"/>
      <point x="543" y="302"/>
      <point x="440" y="190"/>
      <point x="316" y="130"/>
      <point x="260" y="130" type="qcurve"/>
      <point x="218" y="130"/>
      <point x="147" y="152"/>
      <point x="96" y="197"/>
      <point x="67" y="268"/>
      <point x="67" y="317" type="qcurve"/>
      <point x="67" y="366"/>
      <point x="87" y="471"/>
      <point x="127" y="573"/>
      <point x="188" y="664"/>
      <point x="271" y="733"/>
      <point x="375" y="773"/>
    </contour>
    <contour>
      <point x="399" y="435" type="qcurve"/>
      <point x="410" y="406"/>
      <point x="434" y="334"/>
      <point x="442" y="308" type="qcurve"/>
      <point x="486" y="360"/>
      <point x="535" y="485"/>
      <point x="535" y="537" type="qcurve"/>
      <point x="535" y="571"/>
      <point x="524" y="628"/>
      <point x="502" y="670"/>
      <point x="468" y="693"/>
      <point x="444" y="693" type="qcurve"/>
      <point x="382" y="693"/>
      <point x="291" y="657"/>
      <point x="259" y="628" type="qcurve"/>
      <point x="294" y="635"/>
      <point x="372" y="642"/>
      <point x="408" y="642" type="qcurve"/>
      <point x="440" y="642"/>
      <point x="482" y="632"/>
      <point x="506" y="616"/>
      <point x="515" y="593"/>
      <point x="515" y="580" type="qcurve"/>
      <point x="515" y="535"/>
      <point x="449" y="456"/>
    </contour>
    <contour>
      <point x="343" y="250" type="line"/>
      <point x="334" y="285"/>
      <point x="327" y="316" type="qcurve"/>
      <point x="321" y="342"/>
      <point x="310" y="394"/>
      <point x="309" y="405" type="qcurve"/>
      <point x="292" y="402" type="line"/>
      <point x="287" y="385"/>
      <point x="276" y="338"/>
      <point x="271" y="316" type="qcurve"/>
      <point x="265" y="290"/>
      <point x="258" y="264" type="qcurve"/>
      <point x="176" y="247" type="line"/>
      <point x="190" y="231"/>
      <point x="231" y="210"/>
      <point x="257" y="210" type="qcurve"/>
      <point x="297" y="210"/>
      <point x="368" y="239"/>
      <point x="399" y="265" type="qcurve"/>
    </contour>
    <contour>
      <point x="158" y="278" type="qcurve"/>
      <point x="165" y="304"/>
      <point x="185" y="383"/>
      <point x="206" y="472"/>
      <point x="226" y="563"/>
      <point x="233" y="601" type="qcurve"/>
      <point x="209" y="571"/>
      <point x="178" y="502"/>
      <point x="160" y="430"/>
      <point x="153" y="360"/>
      <point x="153" y="330" type="qcurve"/>
      <point x="153" y="315"/>
      <point x="153" y="291"/>
    </contour>
    <contour>
      <point x="310" y="478" type="line"/>
      <point x="321" y="479"/>
      <point x="356" y="492"/>
      <point x="389" y="511"/>
      <point x="412" y="536"/>
      <point x="412" y="550" type="qcurve"/>
      <point x="412" y="560"/>
      <point x="385" y="566"/>
      <point x="368" y="566" type="qcurve"/>
      <point x="357" y="566"/>
      <point x="340" y="565"/>
      <point x="332" y="565" type="qcurve"/>
    </contour>
  </outline>
</glyph>
<glyph name="degree" format="1">
  <advance width="244"/>
  <unicode hex="00B0"/>
  <outline>
    <contour>
      <point x="224" y="591" type="qcurve"/>
      <point x="257" y="591"/>
      <point x="290" y="631"/>
      <point x="290" y="654" type="qcurve"/>
      <point x="290" y="675"/>
      <point x="260" y="707"/>
      <point x="230" y="707" type="qcurve"/>
      <point x="201" y="707"/>
      <point x="171" y="671"/>
      <point x="171" y="648" type="qcurve"/>
      <point x="171" y="627"/>
      <point x="198" y="591"/>
    </contour>
    <contour>
      <point x="211" y="520" type="qcurve"/>
      <point x="184" y="520"/>
      <point x="142" y="540"/>
      <point x="114" y="574"/>
      <point x="100" y="617"/>
      <point x="100" y="640" type="qcurve"/>
      <point x="100" y="663"/>
      <point x="115" y="708"/>
      <point x="146" y="743"/>
      <point x="194" y="765"/>
      <point x="226" y="765" type="qcurve"/>
      <point x="257" y="765"/>
      <point x="303" y="746"/>
      <point x="333" y="715"/>
      <point x="348" y="673"/>
      <point x="348" y="651" type="qcurve"/>
      <point x="348" y="627"/>
      <point x="330" y="580"/>
      <point x="295" y="543"/>
      <point x="244" y="520"/>
    </contour>
  </outline>
</glyph>
<glyph name="plusminus" format="1">
  <advance width="376"/>
  <unicode hex="00B1"/>
  <outline>
    <contour>
      <point x="84" y="421" type="qcurve"/>
      <point x="87" y="421"/>
      <point x="94" y="420"/>
      <point x="98" y="420" type="qcurve"/>
      <point x="110" y="420"/>
      <point x="139" y="421"/>
      <point x="152" y="422" type="qcurve"/>
      <point x="167" y="423"/>
      <point x="182" y="425" type="qcurve"/>
      <point x="189" y="460" type="line"/>
      <point x="192" y="475"/>
      <point x="200" y="510"/>
      <point x="203" y="526" type="qcurve"/>
      <point x="236" y="527"/>
      <point x="300" y="530"/>
      <point x="332" y="535" type="qcurve"/>
      <point x="327" y="518"/>
      <point x="316" y="480"/>
      <point x="311" y="463" type="qcurve"/>
      <point x="306" y="444"/>
      <point x="301" y="425" type="qcurve"/>
      <point x="316" y="426"/>
      <point x="332" y="428" type="qcurve"/>
      <point x="345" y="430"/>
      <point x="374" y="432"/>
      <point x="385" y="434" type="qcurve"/>
      <point x="374" y="394"/>
      <point x="359" y="330"/>
      <point x="351" y="290" type="qcurve"/>
      <point x="340" y="290"/>
      <point x="312" y="291"/>
      <point x="298" y="291" type="qcurve"/>
      <point x="282" y="291"/>
      <point x="266" y="292" type="qcurve"/>
      <point x="265" y="275"/>
      <point x="262" y="257" type="qcurve"/>
      <point x="260" y="242"/>
      <point x="254" y="206"/>
      <point x="250" y="190" type="qcurve"/>
      <point x="126" y="188" type="line"/>
      <point x="131" y="204"/>
      <point x="141" y="241"/>
      <point x="144" y="256" type="qcurve"/>
      <point x="151" y="291" type="line"/>
      <point x="66" y="291" type="line"/>
      <point x="68" y="313"/>
      <point x="71" y="336" type="qcurve"/>
      <point x="73" y="356"/>
      <point x="79" y="401"/>
    </contour>
    <contour>
      <point x="35" y="141" type="line"/>
      <point x="65" y="140"/>
      <point x="92" y="140" type="qcurve"/>
      <point x="115" y="139"/>
      <point x="166" y="139"/>
      <point x="185" y="139" type="qcurve"/>
      <point x="206" y="139"/>
      <point x="265" y="139"/>
      <point x="292" y="140" type="qcurve"/>
      <point x="324" y="141"/>
      <point x="357" y="142" type="qcurve"/>
      <point x="349" y="42" type="line"/>
      <point x="311" y="42"/>
      <point x="276" y="43" type="qcurve"/>
      <point x="246" y="43"/>
      <point x="180" y="44"/>
      <point x="156" y="44" type="qcurve"/>
      <point x="138" y="44"/>
      <point x="89" y="43"/>
      <point x="66" y="43" type="qcurve"/>
      <point x="12" y="43" type="line"/>
    </contour>
  </outline>
</glyph>
<glyph name="uni00B2" format="1">
  <advance width="445"/>
  <unicode hex="00B2"/>
  <outline>
    <contour>
      <point x="99" y="549" type="qcurve"/>
      <point x="99" y="596"/>
      <point x="141" y="669"/>
      <point x="209" y="720"/>
      <point x="294" y="746"/>
      <point x="336" y="746" type="qcurve"/>
      <point x="373" y="746"/>
      <point x="443" y="727"/>
      <point x="495" y="688"/>
      <point x="527" y="629"/>
      <point x="527" y="588" type="qcurve"/>
      <point x="527" y="549"/>
      <point x="481" y="475"/>
      <point x="400" y="406"/>
      <point x="289" y="340"/>
      <point x="225" y="309" type="qcurve"/>
      <point x="247" y="309"/>
      <point x="318" y="311"/>
      <point x="353" y="313" type="qcurve"/>
      <point x="393" y="315"/>
      <point x="437" y="317" type="qcurve"/>
      <point x="420" y="203" type="line"/>
      <point x="400" y="202"/>
      <point x="347" y="201"/>
      <point x="286" y="199"/>
      <point x="222" y="198"/>
      <point x="192" y="197" type="qcurve"/>
      <point x="121" y="195"/>
      <point x="43" y="193" type="qcurve"/>
      <point x="60" y="293" type="line"/>
      <point x="64" y="317"/>
      <point x="110" y="367"/>
      <point x="175" y="417"/>
      <point x="249" y="466"/>
      <point x="311" y="510"/>
      <point x="352" y="548"/>
      <point x="352" y="563" type="qcurve"/>
      <point x="352" y="586"/>
      <point x="329" y="612"/>
      <point x="312" y="612" type="qcurve"/>
      <point x="294" y="612"/>
      <point x="271" y="600"/>
      <point x="257" y="582"/>
      <point x="251" y="559"/>
      <point x="251" y="549" type="qcurve"/>
      <point x="251" y="540" type="line"/>
      <point x="251" y="538"/>
      <point x="252" y="537" type="qcurve"/>
      <point x="229" y="535"/>
      <point x="203" y="533" type="qcurve"/>
      <point x="181" y="531"/>
      <point x="127" y="526"/>
      <point x="101" y="524" type="qcurve"/>
      <point x="100" y="530"/>
      <point x="99" y="543"/>
    </contour>
  </outline>
</glyph>
<glyph name="uni00B3" format="1">
  <advance width="410"/>
  <unicode hex="00B3"/>
  <outline>
    <contour>
      <point x="221" y="306" type="line"/>
      <point x="221" y="290"/>
      <point x="234" y="276"/>
      <point x="244" y="276" type="qcurve"/>
      <point x="253" y="276"/>
      <point x="275" y="287"/>
      <point x="293" y="305"/>
      <point x="305" y="328"/>
      <point x="305" y="340" type="qcurve"/>
      <point x="305" y="360"/>
      <point x="261" y="392"/>
      <point x="212" y="392" type="qcurve"/>
      <point x="175" y="392"/>
      <point x="104" y="384"/>
      <point x="81" y="382" type="qcurve"/>
      <point x="97" y="502" type="line"/>
      <point x="131" y="520"/>
      <point x="204" y="563"/>
      <point x="235" y="582" type="qcurve"/>
      <point x="271" y="604"/>
      <point x="305" y="625" type="qcurve"/>
      <point x="114" y="622" type="line"/>
      <point x="125" y="742" type="line"/>
      <point x="203" y="745"/>
      <point x="270" y="748" type="qcurve"/>
      <point x="298" y="749"/>
      <point x="357" y="751"/>
      <point x="408" y="753"/>
      <point x="450" y="754"/>
      <point x="462" y="754" type="qcurve"/>
      <point x="440" y="582" type="line"/>
      <point x="284" y="496" type="line"/>
      <point x="329" y="489"/>
      <point x="392" y="462"/>
      <point x="432" y="426"/>
      <point x="450" y="382"/>
      <point x="450" y="359" type="qcurve"/>
      <point x="450" y="322"/>
      <point x="408" y="246"/>
      <point x="337" y="185"/>
      <point x="244" y="146"/>
      <point x="193" y="146" type="qcurve"/>
      <point x="130" y="146"/>
      <point x="49" y="197"/>
      <point x="49" y="257" type="qcurve"/>
      <point x="49" y="278"/>
      <point x="57" y="298" type="qcurve"/>
    </contour>
  </outline>
</glyph>
<glyph name="acute" format="1">
  <advance width="373"/>
  <unicode hex="00B4"/>
  <outline>
    <contour>
      <point x="345" y="110" type="qcurve"/>
      <point x="285" y="86"/>
      <point x="145" y="36"/>
      <point x="85" y="13" type="qcurve"/>
      <point x="84" y="24"/>
      <point x="84" y="43"/>
      <point x="84" y="52" type="qcurve"/>
      <point x="84" y="69"/>
      <point x="85" y="102"/>
      <point x="85" y="121" type="qcurve"/>
      <point x="155" y="191"/>
      <point x="277" y="302"/>
      <point x="331" y="360" type="qcurve"/>
      <point x="336" y="292"/>
      <point x="337" y="173"/>
    </contour>
  </outline>
</glyph>
<glyph name="paragraph" format="1">
  <advance width="459"/>
  <unicode hex="00B6"/>
  <outline>
    <contour>
      <point x="278" y="23" type="line"/>
      <point x="342" y="356" type="line"/>
      <point x="306" y="356" type="line"/>
      <point x="232" y="14" type="line"/>
      <point x="122" y="-1" type="line"/>
      <point x="137" y="71"/>
      <point x="152" y="141" type="qcurve"/>
      <point x="165" y="201"/>
      <point x="192" y="329"/>
      <point x="202" y="377" type="qcurve"/>
      <point x="146" y="394"/>
      <point x="94" y="472"/>
      <point x="94" y="520" type="qcurve"/>
      <point x="94" y="561"/>
      <point x="131" y="645"/>
      <point x="201" y="713"/>
      <point x="301" y="756"/>
      <point x="364" y="756" type="qcurve"/>
      <point x="390" y="756"/>
      <point x="447" y="745"/>
      <point x="471" y="739" type="qcurve"/>
      <point x="498" y="732"/>
      <point x="525" y="723" type="qcurve"/>
      <point x="514" y="677"/>
      <point x="490" y="569"/>
      <point x="466" y="455"/>
      <point x="443" y="340"/>
      <point x="433" y="287" type="qcurve"/>
      <point x="408" y="162"/>
      <point x="385" y="34" type="qcurve"/>
    </contour>
  </outline>
</glyph>
<glyph name="cedilla" format="1">
  <advance width="373"/>
  <unicode hex="00B8"/>
  <outline>
    <contour>
      <point x="111" y="-41" type="line"/>
      <point x="137" y="-70"/>
      <point x="165" y="-70" type="qcurve"/>
      <point x="187" y="-70"/>
      <point x="217" y="-37"/>
      <point x="217" y="-11" type="qcurve"/>
      <point x="217" y="1"/>
      <point x="212" y="19" type="qcurve"/>
      <point x="230" y="17"/>
      <point x="243" y="15" type="qcurve"/>
      <point x="254" y="13"/>
      <point x="273" y="10"/>
      <point x="274" y="10" type="qcurve"/>
      <point x="315" y="-30"/>
      <point x="315" y="-70" type="qcurve"/>
      <point x="315" y="-91"/>
      <point x="294" y="-127"/>
      <point x="257" y="-154"/>
      <point x="207" y="-169"/>
      <point x="177" y="-169" type="qcurve"/>
      <point x="153" y="-169"/>
      <point x="107" y="-151"/>
      <point x="91" y="-131" type="qcurve"/>
    </contour>
  </outline>
</glyph>
<glyph name="uni00B9" format="1">
  <advance width="325"/>
  <unicode hex="00B9"/>
  <outline>
    <contour>
      <point x="102" y="695" type="qcurve"/>
      <point x="125" y="700"/>
      <point x="165" y="706" type="qcurve"/>
      <point x="200" y="711"/>
      <point x="313" y="727"/>
      <point x="398" y="738" type="qcurve"/>
      <point x="375" y="623"/>
      <point x="326" y="341"/>
      <point x="297" y="195" type="qcurve"/>
      <point x="275" y="189"/>
      <point x="215" y="177"/>
      <point x="188" y="172" type="qcurve"/>
      <point x="155" y="166"/>
      <point x="122" y="161" type="qcurve"/>
      <point x="136" y="227"/>
      <point x="150" y="297" type="qcurve"/>
      <point x="162" y="356"/>
      <point x="190" y="496"/>
      <point x="201" y="560" type="qcurve"/>
      <point x="177" y="558"/>
      <point x="155" y="555" type="qcurve"/>
      <point x="136" y="553"/>
      <point x="96" y="547"/>
      <point x="82" y="545" type="qcurve"/>
      <point x="84" y="556"/>
      <point x="91" y="606"/>
      <point x="94" y="632" type="qcurve"/>
      <point x="98" y="662"/>
    </contour>
  </outline>
</glyph>
<glyph name="ordmasculine" format="1">
  <advance width="393"/>
  <unicode hex="00BA"/>
  <outline>
    <contour>
      <point x="227" y="541" type="qcurve"/>
      <point x="227" y="503"/>
      <point x="253" y="469"/>
      <point x="273" y="469" type="qcurve"/>
      <point x="289" y="469"/>
      <point x="324" y="490"/>
      <point x="353" y="528"/>
      <point x="372" y="580"/>
      <point x="372" y="610" type="qcurve"/>
      <point x="372" y="642"/>
      <point x="344" y="680"/>
      <point x="321" y="680" type="qcurve"/>
      <point x="304" y="680"/>
      <point x="271" y="659"/>
      <point x="244" y="622"/>
      <point x="227" y="571"/>
    </contour>
    <contour>
      <point x="466" y="515" type="qcurve"/>
      <point x="453" y="483"/>
      <point x="402" y="429"/>
      <point x="336" y="391"/>
      <point x="261" y="370"/>
      <point x="225" y="370" type="qcurve"/>
      <point x="196" y="370"/>
      <point x="145" y="386"/>
      <point x="106" y="421"/>
      <point x="84" y="476"/>
      <point x="84" y="515" type="qcurve"/>
      <point x="84" y="578"/>
      <point x="126" y="670"/>
      <point x="192" y="731"/>
      <point x="275" y="761"/>
      <point x="317" y="761" type="qcurve"/>
      <point x="350" y="761"/>
      <point x="412" y="741"/>
      <point x="459" y="702"/>
      <point x="487" y="644"/>
      <point x="487" y="606" type="qcurve"/>
      <point x="487" y="566"/>
    </contour>
  </outline>
</glyph>
<glyph name="guillemotright" format="1">
  <advance width="474"/>
  <unicode hex="00BB"/>
  <outline>
    <contour>
      <point x="522" y="462" type="qcurve"/>
      <point x="509" y="393"/>
      <point x="489" y="256"/>
      <point x="479" y="186" type="qcurve"/>
      <point x="447" y="157"/>
      <point x="366" y="103"/>
      <point x="330" y="80" type="qcurve"/>
      <point x="288" y="54"/>
      <point x="244" y="30" type="qcurve"/>
      <point x="253" y="64"/>
      <point x="261" y="99" type="qcurve"/>
      <point x="268" y="129"/>
      <point x="283" y="198"/>
      <point x="290" y="229" type="qcurve"/>
      <point x="314" y="249"/>
      <point x="352" y="279"/>
      <point x="385" y="304"/>
      <point x="412" y="325"/>
      <point x="424" y="337" type="qcurve"/>
      <point x="395" y="366"/>
      <point x="342" y="424"/>
      <point x="313" y="453" type="qcurve"/>
      <point x="325" y="507"/>
      <point x="346" y="613"/>
      <point x="359" y="667" type="qcurve"/>
      <point x="401" y="615"/>
      <point x="482" y="517"/>
    </contour>
    <contour>
      <point x="292" y="462" type="qcurve"/>
      <point x="279" y="393"/>
      <point x="259" y="256"/>
      <point x="249" y="186" type="qcurve"/>
      <point x="217" y="157"/>
      <point x="136" y="103"/>
      <point x="100" y="80" type="qcurve"/>
      <point x="58" y="54"/>
      <point x="14" y="30" type="qcurve"/>
      <point x="23" y="64"/>
      <point x="31" y="99" type="qcurve"/>
      <point x="38" y="129"/>
      <point x="53" y="198"/>
      <point x="60" y="229" type="qcurve"/>
      <point x="84" y="249"/>
      <point x="122" y="279"/>
      <point x="155" y="304"/>
      <point x="182" y="325"/>
      <point x="194" y="337" type="qcurve"/>
      <point x="165" y="366"/>
      <point x="112" y="424"/>
      <point x="83" y="453" type="qcurve"/>
      <point x="95" y="507"/>
      <point x="116" y="613"/>
      <point x="129" y="667" type="qcurve"/>
      <point x="171" y="615"/>
      <point x="252" y="517"/>
    </contour>
  </outline>
</glyph>
<glyph name="onequarter" format="1">
  <advance width="1110"/>
  <unicode hex="00BC"/>
  <outline>
    <contour>
      <point x="1116" y="439" type="qcurve"/>
      <point x="1114" y="428"/>
      <point x="1098" y="361"/>
      <point x="1080" y="285"/>
      <point x="1064" y="218"/>
      <point x="1062" y="206" type="qcurve"/>
      <point x="1118" y="206" type="line"/>
      <point x="1077" y="83" type="line"/>
      <point x="1026" y="83" type="line"/>
      <point x="1017" y="-18" type="line"/>
      <point x="851" y="-43" type="line"/>
      <point x="871" y="81" type="line"/>
      <point x="699" y="70" type="line"/>
      <point x="654" y="140" type="line"/>
      <point x="687" y="215"/>
      <point x="717" y="285" type="qcurve"/>
      <point x="730" y="315"/>
      <point x="756" y="377"/>
      <point x="782" y="435"/>
      <point x="804" y="487"/>
      <point x="813" y="506" type="qcurve"/>
      <point x="855" y="506"/>
      <point x="931" y="509"/>
      <point x="974" y="514" type="qcurve"/>
      <point x="936" y="443"/>
      <point x="873" y="299"/>
      <point x="843" y="224" type="qcurve"/>
      <point x="842" y="219"/>
      <point x="840" y="211"/>
      <point x="838" y="206" type="qcurve"/>
      <point x="910" y="206" type="line"/>
      <point x="911" y="211"/>
      <point x="917" y="235"/>
      <point x="925" y="268"/>
      <point x="934" y="306"/>
      <point x="939" y="325" type="qcurve"/>
      <point x="950" y="370"/>
      <point x="963" y="424" type="qcurve"/>
      <point x="991" y="427"/>
      <point x="1018" y="430" type="qcurve"/>
      <point x="1041" y="432"/>
      <point x="1095" y="437"/>
    </contour>
    <contour>
      <point x="124" y="695" type="qcurve"/>
      <point x="147" y="700"/>
      <point x="187" y="706" type="qcurve"/>
      <point x="222" y="711"/>
      <point x="335" y="727"/>
      <point x="420" y="738" type="qcurve"/>
      <point x="397" y="623"/>
      <point x="348" y="341"/>
      <point x="319" y="195" type="qcurve"/>
      <point x="297" y="189"/>
      <point x="237" y="177"/>
      <point x="210" y="172" type="qcurve"/>
      <point x="177" y="166"/>
      <point x="144" y="161" type="qcurve"/>
      <point x="158" y="227"/>
      <point x="172" y="297" type="qcurve"/>
      <point x="184" y="356"/>
      <point x="212" y="496"/>
      <point x="223" y="560" type="qcurve"/>
      <point x="199" y="558"/>
      <point x="177" y="555" type="qcurve"/>
      <point x="158" y="553"/>
      <point x="118" y="547"/>
      <point x="104" y="545" type="qcurve"/>
      <point x="106" y="556"/>
      <point x="113" y="606"/>
      <point x="116" y="632" type="qcurve"/>
      <point x="120" y="662"/>
    </contour>
    <contour>
      <point x="916" y="741" type="qcurve"/>
      <point x="885" y="695"/>
      <point x="808" y="580"/>
      <point x="724" y="455"/>
      <point x="637" y="325"/>
      <point x="596" y="264" type="qcurve"/>
      <point x="500" y="121"/>
      <point x="399" y="-30" type="qcurve"/>
      <point x="229" y="10" type="line"/>
      <point x="251" y="40"/>
      <point x="324" y="141"/>
      <point x="413" y="268"/>
      <point x="513" y="414"/>
      <point x="614" y="564"/>
      <point x="709" y="710"/>
      <point x="748" y="774" type="qcurve"/>
      <point x="757" y="768"/>
      <point x="799" y="757"/>
      <point x="849" y="749"/>
      <point x="899" y="743"/>
    </contour>
  </outline>
</glyph>
<glyph name="threequarters" format="1">
  <advance width="1157"/>
  <unicode hex="00BE"/>
  <outline>
    <contour>
      <point x="1163" y="439" type="qcurve"/>
      <point x="1161" y="428"/>
      <point x="1145" y="361"/>
      <point x="1127" y="285"/>
      <point x="1111" y="218"/>
      <point x="1109" y="206" type="qcurve"/>
      <point x="1165" y="206" type="line"/>
      <point x="1124" y="83" type="line"/>
      <point x="1073" y="83" type="line"/>
      <point x="1064" y="-18" type="line"/>
      <point x="898" y="-43" type="line"/>
      <point x="918" y="81" type="line"/>
      <point x="746" y="70" type="line"/>
      <point x="701" y="140" type="line"/>
      <point x="734" y="215"/>
      <point x="764" y="285" type="qcurve"/>
      <point x="777" y="315"/>
      <point x="803" y="377"/>
      <point x="829" y="435"/>
      <point x="851" y="487"/>
      <point x="860" y="506" type="qcurve"/>
      <point x="902" y="506"/>
      <point x="978" y="509"/>
      <point x="1021" y="514" type="qcurve"/>
      <point x="983" y="443"/>
      <point x="920" y="299"/>
      <point x="890" y="224" type="qcurve"/>
      <point x="889" y="219"/>
      <point x="887" y="211"/>
      <point x="885" y="206" type="qcurve"/>
      <point x="957" y="206" type="line"/>
      <point x="958" y="211"/>
      <point x="964" y="235"/>
      <point x="972" y="268"/>
      <point x="981" y="306"/>
      <point x="986" y="325" type="qcurve"/>
      <point x="997" y="370"/>
      <point x="1010" y="424" type="qcurve"/>
      <point x="1038" y="427"/>
      <point x="1065" y="430" type="qcurve"/>
      <point x="1088" y="432"/>
      <point x="1142" y="437"/>
    </contour>
    <contour>
      <point x="237" y="306" type="line"/>
      <point x="237" y="290"/>
      <point x="250" y="276"/>
      <point x="260" y="276" type="qcurve"/>
      <point x="269" y="276"/>
      <point x="291" y="287"/>
      <point x="309" y="305"/>
      <point x="321" y="328"/>
      <point x="321" y="340" type="qcurve"/>
      <point x="321" y="360"/>
      <point x="277" y="392"/>
      <point x="228" y="392" type="qcurve"/>
      <point x="191" y="392"/>
      <point x="120" y="384"/>
      <point x="97" y="382" type="qcurve"/>
      <point x="113" y="502" type="line"/>
      <point x="147" y="520"/>
      <point x="220" y="563"/>
      <point x="251" y="582" type="qcurve"/>
      <point x="287" y="604"/>
      <point x="321" y="625" type="qcurve"/>
      <point x="130" y="622" type="line"/>
      <point x="141" y="742" type="line"/>
      <point x="219" y="745"/>
      <point x="286" y="748" type="qcurve"/>
      <point x="314" y="749"/>
      <point x="373" y="751"/>
      <point x="424" y="753"/>
      <point x="466" y="754"/>
      <point x="478" y="754" type="qcurve"/>
      <point x="456" y="582" type="line"/>
      <point x="300" y="496" type="line"/>
      <point x="345" y="489"/>
      <point x="408" y="462"/>
      <point x="448" y="426"/>
      <point x="466" y="382"/>
      <point x="466" y="359" type="qcurve"/>
      <point x="466" y="322"/>
      <point x="424" y="246"/>
      <point x="353" y="185"/>
      <point x="260" y="146"/>
      <point x="209" y="146" type="qcurve"/>
      <point x="146" y="146"/>
      <point x="65" y="197"/>
      <point x="65" y="257" type="qcurve"/>
      <point x="65" y="278"/>
      <point x="73" y="298" type="qcurve"/>
    </contour>
    <contour>
      <point x="980" y="741" type="qcurve"/>
      <point x="949" y="695"/>
      <point x="872" y="580"/>
      <point x="788" y="455"/>
      <point x="701" y="325"/>
      <point x="660" y="264" type="qcurve"/>
      <point x="564" y="121"/>
      <point x="463" y="-30" type="qcurve"/>
      <point x="293" y="10" type="line"/>
      <point x="315" y="40"/>
      <point x="388" y="141"/>
      <point x="477" y="268"/>
      <point x="577" y="414"/>
      <point x="678" y="564"/>
      <point x="773" y="710"/>
      <point x="812" y="774" type="qcurve"/>
      <point x="821" y="768"/>
      <point x="863" y="757"/>
      <point x="913" y="749"/>
      <point x="963" y="743"/>
    </contour>
  </outline>
</glyph>
<glyph name="AE" format="1">
  <advance width="528"/>
  <unicode hex="00C6"/>
  <outline>
    <contour>
      <point x="252" y="-1" type="line"/>
      <point x="252" y="2" type="line"/>
      <point x="250" y="2" type="line"/>
      <point x="257" y="36"/>
      <point x="264" y="69" type="qcurve"/>
      <point x="269" y="97"/>
      <point x="281" y="155"/>
      <point x="284" y="175" type="qcurve"/>
      <point x="209" y="175" type="line"/>
      <point x="156" y="28" type="line"/>
      <point x="133" y="25"/>
      <point x="69" y="17"/>
      <point x="40" y="14" type="qcurve"/>
      <point x="6" y="10"/>
      <point x="-30" y="6" type="qcurve"/>
      <point x="24" y="142"/>
      <point x="75" y="274" type="qcurve"/>
      <point x="97" y="330"/>
      <point x="143" y="451"/>
      <point x="188" y="570"/>
      <point x="229" y="681"/>
      <point x="246" y="727" type="qcurve"/>
      <point x="281" y="730"/>
      <point x="341" y="732"/>
      <point x="402" y="733"/>
      <point x="470" y="735"/>
      <point x="513" y="739" type="qcurve"/>
      <point x="620" y="748" type="line"/>
      <point x="580" y="624" type="line"/>
      <point x="573" y="625"/>
      <point x="562" y="626" type="qcurve"/>
      <point x="553" y="627"/>
      <point x="528" y="628"/>
      <point x="512" y="628" type="qcurve"/>
      <point x="486" y="444" type="line"/>
      <point x="500" y="446"/>
      <point x="513" y="447" type="qcurve"/>
      <point x="524" y="448"/>
      <point x="551" y="449"/>
      <point x="562" y="450" type="qcurve"/>
      <point x="558" y="421"/>
      <point x="551" y="366"/>
      <point x="546" y="337" type="qcurve"/>
      <point x="535" y="336"/>
      <point x="509" y="335"/>
      <point x="498" y="334" type="qcurve"/>
      <point x="485" y="333"/>
      <point x="472" y="332" type="qcurve"/>
      <point x="445" y="144" type="line"/>
      <point x="531" y="151" type="line"/>
      <point x="521" y="34" type="line"/>
    </contour>
    <contour>
      <point x="354" y="623" type="line"/>
      <point x="321" y="535" type="line"/>
      <point x="242" y="277" type="line"/>
      <point x="246" y="278"/>
      <point x="263" y="279"/>
      <point x="281" y="280"/>
      <point x="298" y="281"/>
      <point x="302" y="282" type="qcurve"/>
      <point x="303" y="291"/>
      <point x="311" y="336"/>
      <point x="322" y="397"/>
      <point x="335" y="468"/>
      <point x="348" y="539"/>
      <point x="360" y="602"/>
      <point x="365" y="624" type="qcurve"/>
    </contour>
  </outline>
</glyph>
<glyph name="multiply" format="1">
  <advance width="508"/>
  <unicode hex="00D7"/>
  <outline>
    <contour>
      <point x="318" y="637" type="line"/>
      <point x="324" y="604"/>
      <point x="345" y="526"/>
      <point x="352" y="492" type="qcurve"/>
      <point x="372" y="527"/>
      <point x="414" y="592"/>
      <point x="436" y="626" type="qcurve"/>
      <point x="585" y="596" type="line"/>
      <point x="558" y="566"/>
      <point x="499" y="490"/>
      <point x="473" y="455" type="qcurve"/>
      <point x="443" y="415"/>
      <point x="415" y="373" type="qcurve"/>
      <point x="427" y="336"/>
      <point x="440" y="301" type="qcurve"/>
      <point x="451" y="271"/>
      <point x="476" y="203"/>
      <point x="487" y="177" type="qcurve"/>
      <point x="485" y="176"/>
      <point x="461" y="170"/>
      <point x="424" y="160"/>
      <point x="380" y="147"/>
      <point x="338" y="135"/>
      <point x="301" y="124"/>
      <point x="291" y="120" type="qcurve"/>
      <point x="285" y="143"/>
      <point x="281" y="165" type="qcurve"/>
      <point x="277" y="183"/>
      <point x="269" y="222"/>
      <point x="267" y="234" type="qcurve"/>
      <point x="259" y="221"/>
      <point x="233" y="184"/>
      <point x="220" y="167" type="qcurve"/>
      <point x="205" y="147"/>
      <point x="188" y="124" type="qcurve"/>
      <point x="14" y="139" type="line"/>
      <point x="40" y="169"/>
      <point x="107" y="251"/>
      <point x="138" y="288" type="qcurve"/>
      <point x="174" y="331"/>
      <point x="211" y="376" type="qcurve"/>
      <point x="201" y="410"/>
      <point x="191" y="444" type="qcurve"/>
      <point x="183" y="473"/>
      <point x="163" y="540"/>
      <point x="154" y="569" type="qcurve"/>
    </contour>
  </outline>
</glyph>
<glyph name="Oslash" format="1">
  <advance width="505"/>
  <unicode hex="00D8"/>
  <outline>
    <contour>
      <point x="638" y="741" type="line"/>
      <point x="563" y="645" type="line"/>
      <point x="568" y="623"/>
      <point x="573" y="577"/>
      <point x="573" y="554" type="qcurve"/>
      <point x="573" y="470"/>
      <point x="538" y="322"/>
      <point x="478" y="198"/>
      <point x="399" y="100"/>
      <point x="313" y="32"/>
      <point x="225" y="-4"/>
      <point x="185" y="-4" type="qcurve"/>
      <point x="124" y="-4"/>
      <point x="84" y="36" type="qcurve"/>
      <point x="50" y="-8" type="line"/>
      <point x="-1" y="41" type="line"/>
      <point x="48" y="98" type="line"/>
      <point x="32" y="144"/>
      <point x="32" y="206" type="qcurve"/>
      <point x="32" y="263"/>
      <point x="60" y="390"/>
      <point x="110" y="515"/>
      <point x="181" y="628"/>
      <point x="267" y="715"/>
      <point x="366" y="766"/>
      <point x="419" y="766" type="qcurve"/>
      <point x="459" y="766"/>
      <point x="514" y="737"/>
      <point x="532" y="713" type="qcurve"/>
      <point x="568" y="760" type="line"/>
      <point x="621" y="721" type="line"/>
    </contour>
    <contour>
      <point x="201" y="185" type="line"/>
      <point x="227" y="172"/>
      <point x="253" y="172" type="qcurve"/>
      <point x="282" y="172"/>
      <point x="334" y="203"/>
      <point x="378" y="252"/>
      <point x="412" y="316"/>
      <point x="437" y="381"/>
      <point x="450" y="444"/>
      <point x="450" y="468" type="qcurve"/>
      <point x="450" y="484"/>
      <point x="447" y="496" type="qcurve"/>
    </contour>
    <contour>
      <point x="423" y="546" type="line"/>
      <point x="397" y="590"/>
      <point x="362" y="590" type="qcurve"/>
      <point x="330" y="590"/>
      <point x="265" y="529"/>
      <point x="211" y="436"/>
      <point x="177" y="326"/>
      <point x="177" y="278" type="qcurve"/>
      <point x="177" y="271"/>
      <point x="178" y="258"/>
      <point x="179" y="252" type="qcurve"/>
    </contour>
  </outline>
</glyph>
<glyph name="Thorn" format="1">
  <advance width="395"/>
  <unicode hex="00DE"/>
  <outline>
    <contour>
      <point x="1" y="-1" type="line"/>
      <point x="32" y="144"/>
      <point x="59" y="282" type="qcurve"/>
      <point x="71" y="341"/>
      <point x="95" y="467"/>
      <point x="118" y="589"/>
      <point x="138" y="702"/>
      <point x="145" y="748" type="qcurve"/>
      <point x="188" y="753"/>
      <point x="224" y="757" type="qcurve"/>
      <point x="255" y="760"/>
      <point x="309" y="766"/>
      <point x="315" y="766" type="qcurve"/>
      <point x="294" y="664" type="line"/>
      <point x="341" y="664"/>
      <point x="407" y="632"/>
      <point x="448" y="578"/>
      <point x="467" y="506"/>
      <point x="467" y="466" type="qcurve"/>
      <point x="467" y="409"/>
      <point x="424" y="304"/>
      <point x="353" y="223"/>
      <point x="262" y="175"/>
      <point x="214" y="175" type="qcurve"/>
      <point x="203" y="175" type="line"/>
      <point x="195" y="140"/>
      <point x="186" y="88"/>
      <point x="183" y="70" type="qcurve"/>
      <point x="179" y="49"/>
      <point x="178" y="34" type="qcurve"/>
    </contour>
    <contour>
      <point x="271" y="540" type="qcurve"/>
      <point x="259" y="472"/>
      <point x="237" y="351"/>
      <point x="224" y="283" type="qcurve"/>
      <point x="240" y="287"/>
      <point x="276" y="317"/>
      <point x="306" y="365"/>
      <point x="325" y="428"/>
      <point x="325" y="463" type="qcurve"/>
      <point x="325" y="501"/>
      <point x="291" y="540"/>
    </contour>
  </outline>
</glyph>
<glyph name="germandbls" format="1">
  <advance width="449"/>
  <unicode hex="00DF"/>
  <outline>
    <contour>
      <point x="145" y="760" type="qcurve"/>
      <point x="260" y="760"/>
      <point x="410" y="740"/>
      <point x="498" y="705"/>
      <point x="532" y="658"/>
      <point x="532" y="631" type="qcurve"/>
      <point x="532" y="580"/>
      <point x="492" y="511"/>
      <point x="442" y="459"/>
      <point x="398" y="417"/>
      <point x="395" y="394" type="qcurve"/>
      <point x="395" y="392" type="line"/>
      <point x="395" y="383"/>
      <point x="414" y="343"/>
      <point x="438" y="287"/>
      <point x="457" y="218"/>
      <point x="457" y="179" type="qcurve"/>
      <point x="457" y="141"/>
      <point x="441" y="73"/>
      <point x="403" y="21"/>
      <point x="342" y="-10"/>
      <point x="296" y="-10" type="qcurve"/>
      <point x="270" y="-10"/>
      <point x="224" y="14"/>
      <point x="204" y="41" type="qcurve"/>
      <point x="234" y="190" type="line"/>
      <point x="242" y="165"/>
      <point x="270" y="135"/>
      <point x="283" y="135" type="qcurve"/>
      <point x="294" y="135"/>
      <point x="308" y="156"/>
      <point x="308" y="180" type="qcurve"/>
      <point x="308" y="211"/>
      <point x="290" y="251"/>
      <point x="269" y="293"/>
      <point x="252" y="351"/>
      <point x="252" y="401" type="qcurve"/>
      <point x="252" y="443"/>
      <point x="296" y="511"/>
      <point x="348" y="564"/>
      <point x="392" y="603"/>
      <point x="392" y="615" type="qcurve"/>
      <point x="392" y="626"/>
      <point x="340" y="637"/>
      <point x="274" y="637" type="qcurve"/>
      <point x="264" y="579"/>
      <point x="237" y="421"/>
      <point x="209" y="251"/>
      <point x="183" y="85"/>
      <point x="174" y="20" type="qcurve"/>
      <point x="165" y="20"/>
      <point x="111" y="15"/>
      <point x="53" y="8"/>
      <point x="7" y="2"/>
      <point x="5" y="1" type="qcurve"/>
      <point x="15" y="45"/>
      <point x="39" y="157"/>
      <point x="62" y="281"/>
      <point x="85" y="409"/>
      <point x="96" y="469" type="qcurve"/>
      <point x="121" y="610"/>
    </contour>
  </outline>
</glyph>
<glyph name="eth" format="1">
  <advance width="456"/>
  <unicode hex="00F0"/>
  <outline>
    <contour>
      <point x="69" y="446" type="line"/>
      <point x="72" y="445"/>
      <point x="76" y="445" type="qcurve"/>
      <point x="92" y="445" type="line"/>
      <point x="106" y="521"/>
      <point x="131" y="666"/>
      <point x="139" y="725" type="qcurve"/>
      <point x="183" y="733"/>
      <point x="273" y="748"/>
      <point x="320" y="748" type="qcurve"/>
      <point x="373" y="748"/>
      <point x="447" y="710"/>
      <point x="493" y="643"/>
      <point x="513" y="554"/>
      <point x="513" y="503" type="qcurve"/>
      <point x="513" y="449"/>
      <point x="489" y="332"/>
      <point x="444" y="221"/>
      <point x="379" y="121"/>
      <point x="296" y="46"/>
      <point x="196" y="2"/>
      <point x="139" y="2" type="qcurve"/>
      <point x="107" y="2"/>
      <point x="44" y="21"/>
      <point x="13" y="43" type="qcurve"/>
      <point x="21" y="83"/>
      <point x="31" y="131" type="qcurve"/>
      <point x="39" y="172"/>
      <point x="61" y="278"/>
      <point x="72" y="339" type="qcurve"/>
      <point x="64" y="338"/>
      <point x="51" y="338"/>
      <point x="46" y="338" type="qcurve"/>
      <point x="35" y="338" type="line"/>
    </contour>
    <contour>
      <point x="175" y="124" type="qcurve"/>
      <point x="212" y="146"/>
      <point x="278" y="233"/>
      <point x="329" y="340"/>
      <point x="359" y="454"/>
      <point x="359" y="502" type="qcurve"/>
      <point x="359" y="527"/>
      <point x="349" y="571"/>
      <point x="327" y="604"/>
      <point x="294" y="623"/>
      <point x="272" y="623" type="qcurve"/>
      <point x="262" y="576"/>
      <point x="245" y="490"/>
      <point x="237" y="445" type="qcurve"/>
      <point x="248" y="445"/>
      <point x="268" y="446"/>
      <point x="276" y="446" type="qcurve"/>
      <point x="285" y="446"/>
      <point x="293" y="447" type="qcurve"/>
      <point x="268" y="337" type="line"/>
      <point x="253" y="337" type="line"/>
      <point x="246" y="337"/>
      <point x="228" y="338"/>
      <point x="218" y="338" type="qcurve"/>
      <point x="208" y="289"/>
      <point x="188" y="184"/>
    </contour>
  </outline>
</glyph>
<glyph name="divide" format="1">
  <advance width="350"/>
  <unicode hex="00F7"/>
  <outline>
    <contour>
      <point x="272" y="214" type="qcurve"/>
      <point x="267" y="188"/>
      <point x="260" y="146"/>
      <point x="253" y="104"/>
      <point x="246" y="61"/>
      <point x="242" y="36" type="qcurve"/>
      <point x="222" y="35"/>
      <point x="173" y="34"/>
      <point x="150" y="34" type="qcurve"/>
      <point x="96" y="34" type="line"/>
      <point x="102" y="64"/>
      <point x="107" y="95" type="qcurve"/>
      <point x="112" y="121"/>
      <point x="121" y="184"/>
      <point x="126" y="213" type="qcurve"/>
      <point x="149" y="214"/>
      <point x="193" y="215"/>
      <point x="216" y="215" type="qcurve"/>
      <point x="230" y="215"/>
      <point x="258" y="215"/>
    </contour>
    <contour>
      <point x="341" y="600" type="qcurve"/>
      <point x="334" y="576"/>
      <point x="329" y="550" type="qcurve"/>
      <point x="324" y="527"/>
      <point x="314" y="469"/>
      <point x="309" y="439" type="qcurve"/>
      <point x="276" y="437"/>
      <point x="208" y="435"/>
      <point x="166" y="435" type="qcurve"/>
      <point x="170" y="463"/>
      <point x="176" y="500"/>
      <point x="181" y="533"/>
      <point x="187" y="569"/>
      <point x="192" y="596" type="qcurve"/>
      <point x="211" y="596"/>
      <point x="262" y="597"/>
      <point x="285" y="598" type="qcurve"/>
      <point x="312" y="599"/>
    </contour>
    <contour>
      <point x="72" y="397" type="line"/>
      <point x="101" y="396"/>
      <point x="129" y="395" type="qcurve"/>
      <point x="153" y="394"/>
      <point x="205" y="394"/>
      <point x="224" y="394" type="qcurve"/>
      <point x="246" y="394"/>
      <point x="303" y="394"/>
      <point x="329" y="395" type="qcurve"/>
      <point x="359" y="396"/>
      <point x="390" y="397" type="qcurve"/>
      <point x="364" y="258" type="line"/>
      <point x="326" y="258"/>
      <point x="290" y="259" type="qcurve"/>
      <point x="259" y="260"/>
      <point x="192" y="261"/>
      <point x="168" y="261" type="qcurve"/>
      <point x="150" y="261"/>
      <point x="106" y="260"/>
      <point x="87" y="260" type="qcurve"/>
      <point x="64" y="259"/>
      <point x="42" y="259" type="qcurve"/>
    </contour>
  </outline>
</glyph>
<glyph name="dotlessi" format="1">
  <advance width="207"/>
  <unicode hex="0131"/>
  <outline>
    <contour>
      <point x="292" y="742" type="line"/>
      <point x="268" y="605"/>
      <point x="246" y="473" type="qcurve"/>
      <point x="237" y="417"/>
      <point x="217" y="296"/>
      <point x="198" y="177"/>
      <point x="181" y="66"/>
      <point x="174" y="20" type="qcurve"/>
      <point x="165" y="20"/>
      <point x="111" y="15"/>
      <point x="53" y="8"/>
      <point x="7" y="2"/>
      <point x="5" y="1" type="qcurve"/>
      <point x="15" y="45"/>
      <point x="37" y="153"/>
      <point x="59" y="270"/>
      <point x="80" y="391"/>
      <point x="89" y="447" type="qcurve"/>
      <point x="111" y="579"/>
      <point x="132" y="717" type="qcurve"/>
    </contour>
  </outline>
</glyph>
<glyph name="Lslash" format="1">
  <advance width="316"/>
  <unicode hex="0141"/>
  <outline>
    <contour>
      <point x="320" y="32" type="qcurve"/>
      <point x="312" y="32"/>
      <point x="297" y="33"/>
      <point x="289" y="33" type="qcurve"/>
      <point x="257" y="33"/>
      <point x="186" y="29"/>
      <point x="115" y="20"/>
      <point x="46" y="7"/>
      <point x="18" y="-2" type="qcurve"/>
      <point x="27" y="69"/>
      <point x="56" y="249"/>
      <point x="73" y="341" type="qcurve"/>
      <point x="64" y="337"/>
      <point x="48" y="332"/>
      <point x="43" y="330" type="qcurve"/>
      <point x="36" y="327"/>
      <point x="31" y="325" type="qcurve"/>
      <point x="42" y="452" type="line"/>
      <point x="50" y="454"/>
      <point x="59" y="457" type="qcurve"/>
      <point x="67" y="459"/>
      <point x="86" y="465"/>
      <point x="97" y="469" type="qcurve"/>
      <point x="108" y="524"/>
      <point x="125" y="619"/>
      <point x="133" y="654" type="qcurve"/>
      <point x="141" y="695"/>
      <point x="149" y="730" type="qcurve"/>
      <point x="329" y="754" type="line"/>
      <point x="322" y="724"/>
      <point x="313" y="689" type="qcurve"/>
      <point x="305" y="659"/>
      <point x="287" y="578"/>
      <point x="276" y="531" type="qcurve"/>
      <point x="293" y="537"/>
      <point x="328" y="550"/>
      <point x="342" y="555" type="qcurve"/>
      <point x="359" y="561"/>
      <point x="374" y="568" type="qcurve"/>
      <point x="377" y="445" type="line"/>
      <point x="248" y="402" type="line"/>
      <point x="233" y="330"/>
      <point x="207" y="195"/>
      <point x="200" y="144" type="qcurve"/>
      <point x="225" y="146"/>
      <point x="283" y="147"/>
      <point x="306" y="147" type="qcurve"/>
      <point x="307" y="128"/>
      <point x="311" y="90"/>
      <point x="316" y="59"/>
      <point x="319" y="36"/>
    </contour>
  </outline>
</glyph>
<glyph name="oe" format="1">
  <advance width="574"/>
  <unicode hex="0153"/>
  <outline>
    <contour>
      <point x="264" y="10" type="line"/>
      <point x="254" y="10" type="line"/>
      <point x="195" y="10"/>
      <point x="113" y="46"/>
      <point x="60" y="108"/>
      <point x="36" y="192"/>
      <point x="36" y="240" type="qcurve"/>
      <point x="36" y="291"/>
      <point x="62" y="403"/>
      <point x="109" y="510"/>
      <point x="175" y="608"/>
      <point x="256" y="684"/>
      <point x="348" y="733"/>
      <point x="398" y="737" type="qcurve"/>
      <point x="691" y="757" type="line"/>
      <point x="684" y="734"/>
      <point x="679" y="711" type="qcurve"/>
      <point x="674" y="691"/>
      <point x="664" y="649"/>
      <point x="661" y="633" type="qcurve"/>
      <point x="649" y="633" type="line"/>
      <point x="627" y="633"/>
      <point x="562" y="638"/>
      <point x="534" y="638" type="qcurve"/>
      <point x="498" y="454" type="line"/>
      <point x="516" y="453"/>
      <point x="534" y="453" type="qcurve"/>
      <point x="549" y="452"/>
      <point x="584" y="452"/>
      <point x="598" y="452" type="qcurve"/>
      <point x="614" y="452" type="line"/>
      <point x="610" y="423"/>
      <point x="603" y="368"/>
      <point x="598" y="339" type="qcurve"/>
      <point x="594" y="339"/>
      <point x="585" y="338"/>
      <point x="580" y="338" type="qcurve"/>
      <point x="566" y="338"/>
      <point x="532" y="339"/>
      <point x="518" y="340" type="qcurve"/>
      <point x="500" y="341"/>
      <point x="484" y="342" type="qcurve"/>
      <point x="449" y="153" type="line"/>
      <point x="574" y="169" type="line"/>
      <point x="564" y="52" type="line"/>
    </contour>
    <contour>
      <point x="365" y="559" type="line"/>
      <point x="332" y="554"/>
      <point x="267" y="496"/>
      <point x="214" y="413"/>
      <point x="182" y="317"/>
      <point x="182" y="276" type="qcurve"/>
      <point x="182" y="233"/>
      <point x="226" y="175"/>
      <point x="276" y="175" type="qcurve"/>
      <point x="281" y="175"/>
      <point x="289" y="175"/>
      <point x="294" y="176" type="qcurve"/>
    </contour>
  </outline>
</glyph>
<glyph name="circumflex" format="1">
  <advance width="373"/>
  <unicode hex="02C6"/>
  <outline>
    <contour>
      <point x="258" y="129" type="line"/>
      <point x="247" y="118"/>
      <point x="216" y="86"/>
      <point x="185" y="51"/>
      <point x="155" y="18"/>
      <point x="144" y="7" type="qcurve"/>
      <point x="131" y="18"/>
      <point x="111" y="38"/>
      <point x="104" y="46" type="qcurve"/>
      <point x="95" y="55"/>
      <point x="89" y="63" type="qcurve"/>
      <point x="118" y="105"/>
      <point x="148" y="145" type="qcurve"/>
      <point x="174" y="179"/>
      <point x="234" y="253"/>
      <point x="261" y="279" type="qcurve"/>
      <point x="301" y="273"/>
      <point x="333" y="275"/>
      <point x="335" y="273" type="qcurve"/>
      <point x="343" y="245"/>
      <point x="363" y="174"/>
      <point x="372" y="142" type="qcurve"/>
      <point x="383" y="104"/>
      <point x="394" y="66" type="qcurve"/>
      <point x="382" y="56"/>
      <point x="370" y="46" type="qcurve"/>
      <point x="359" y="37"/>
      <point x="333" y="17"/>
      <point x="320" y="8" type="qcurve"/>
    </contour>
  </outline>
</glyph>
<glyph name="caron" format="1">
  <advance width="373"/>
  <unicode hex="02C7"/>
  <outline>
    <contour>
      <point x="273" y="153" type="line"/>
      <point x="284" y="165"/>
      <point x="312" y="199"/>
      <point x="342" y="235"/>
      <point x="370" y="269"/>
      <point x="381" y="281" type="qcurve"/>
      <point x="394" y="270"/>
      <point x="415" y="252"/>
      <point x="423" y="244" type="qcurve"/>
      <point x="439" y="228" type="line"/>
      <point x="412" y="184"/>
      <point x="384" y="143" type="qcurve"/>
      <point x="360" y="108"/>
      <point x="303" y="31"/>
      <point x="278" y="3" type="qcurve"/>
      <point x="264" y="4"/>
      <point x="242" y="5"/>
      <point x="234" y="5" type="qcurve"/>
      <point x="224" y="5"/>
      <point x="212" y="4"/>
      <point x="208" y="4" type="qcurve"/>
      <point x="204" y="4"/>
      <point x="204" y="5" type="qcurve"/>
      <point x="195" y="32"/>
      <point x="171" y="102"/>
      <point x="160" y="134" type="qcurve"/>
      <point x="147" y="171"/>
      <point x="134" y="209" type="qcurve"/>
      <point x="145" y="219"/>
      <point x="157" y="230" type="qcurve"/>
      <point x="168" y="239"/>
      <point x="192" y="261"/>
      <point x="205" y="271" type="qcurve"/>
    </contour>
  </outline>
</glyph>
<glyph name="ring" format="1">
  <advance width="294"/>
  <unicode hex="02DA"/>
  <outline>
    <contour>
      <point x="218" y="54" type="qcurve"/>
      <point x="250" y="54"/>
      <point x="284" y="94"/>
      <point x="284" y="117" type="qcurve"/>
      <point x="284" y="138"/>
      <point x="254" y="171"/>
      <point x="224" y="171" type="qcurve"/>
      <point x="194" y="171"/>
      <point x="164" y="134"/>
      <point x="164" y="111" type="qcurve"/>
      <point x="164" y="90"/>
      <point x="192" y="54"/>
    </contour>
    <contour>
      <point x="207" y="0" type="qcurve"/>
      <point x="181" y="0"/>
      <point x="142" y="19"/>
      <point x="115" y="51"/>
      <point x="102" y="92"/>
      <point x="102" y="113" type="qcurve"/>
      <point x="102" y="135"/>
      <point x="116" y="178"/>
      <point x="146" y="211"/>
      <point x="191" y="231"/>
      <point x="221" y="231" type="qcurve"/>
      <point x="250" y="231"/>
      <point x="293" y="213"/>
      <point x="322" y="184"/>
      <point x="336" y="145"/>
      <point x="336" y="124" type="qcurve"/>
      <point x="336" y="101"/>
      <point x="319" y="57"/>
      <point x="286" y="22"/>
      <point x="238" y="0"/>
    </contour>
  </outline>
</glyph>
<glyph name="tilde" format="1">
  <advance width="373"/>
  <unicode hex="02DC"/>
  <outline>
    <contour>
      <point x="300" y="141" type="qcurve"/>
      <point x="315" y="141"/>
      <point x="344" y="163"/>
      <point x="371" y="193"/>
      <point x="395" y="224"/>
      <point x="406" y="233" type="qcurve"/>
      <point x="418" y="224"/>
      <point x="438" y="208"/>
      <point x="446" y="202" type="qcurve"/>
      <point x="455" y="195"/>
      <point x="461" y="188" type="qcurve"/>
      <point x="439" y="138"/>
      <point x="412" y="99" type="qcurve"/>
      <point x="400" y="82"/>
      <point x="372" y="51"/>
      <point x="339" y="26"/>
      <point x="303" y="11"/>
      <point x="283" y="11" type="qcurve"/>
      <point x="258" y="11"/>
      <point x="232" y="33"/>
      <point x="212" y="59"/>
      <point x="190" y="81"/>
      <point x="169" y="81" type="qcurve"/>
      <point x="154" y="81"/>
      <point x="125" y="63"/>
      <point x="99" y="39"/>
      <point x="75" y="12"/>
      <point x="64" y="3" type="qcurve"/>
      <point x="51" y="12"/>
      <point x="32" y="28"/>
      <point x="24" y="34" type="qcurve"/>
      <point x="15" y="41"/>
      <point x="9" y="48" type="qcurve"/>
      <point x="9" y="48"/>
      <point x="22" y="75"/>
      <point x="44" y="115"/>
      <point x="76" y="162"/>
      <point x="115" y="202"/>
      <point x="160" y="229"/>
      <point x="186" y="229" type="qcurve"/>
      <point x="211" y="229"/>
      <point x="249" y="201"/>
      <point x="277" y="168"/>
      <point x="295" y="141"/>
    </contour>
  </outline>
</glyph>
<glyph name="hungarumlaut" format="1">
  <advance width="492"/>
  <unicode hex="02DD"/>
  <outline>
    <contour>
      <point x="499" y="40" type="line"/>
      <point x="418" y="35"/>
      <point x="344" y="31" type="qcurve"/>
      <point x="312" y="29"/>
      <point x="246" y="25"/>
      <point x="182" y="20"/>
      <point x="126" y="15"/>
      <point x="105" y="13" type="qcurve"/>
      <point x="100" y="30"/>
      <point x="98" y="87"/>
      <point x="98" y="114" type="qcurve"/>
      <point x="98" y="155" type="line"/>
      <point x="98" y="165"/>
      <point x="99" y="173" type="qcurve"/>
      <point x="482" y="206" type="line"/>
    </contour>
  </outline>
</glyph>
<glyph name="emdash" format="1">
  <advance width="534"/>
  <unicode hex="2014"/>
  <outline>
    <contour>
      <point x="83" y="422" type="line"/>
      <point x="87" y="424"/>
      <point x="115" y="424" type="qcurve"/>
      <point x="128" y="424"/>
      <point x="161" y="423"/>
      <point x="194" y="423"/>
      <point x="225" y="422"/>
      <point x="237" y="422" type="qcurve"/>
      <point x="247" y="422"/>
      <point x="288" y="422"/>
      <point x="339" y="423"/>
      <point x="398" y="424"/>
      <point x="427" y="424" type="qcurve"/>
      <point x="495" y="425"/>
      <point x="574" y="427" type="qcurve"/>
      <point x="539" y="244" type="line"/>
      <point x="511" y="244"/>
      <point x="416" y="246"/>
      <point x="308" y="247"/>
      <point x="196" y="248"/>
      <point x="105" y="249"/>
      <point x="46" y="250"/>
      <point x="44" y="250" type="qcurve"/>
    </contour>
  </outline>
</glyph>
<glyph name="quoteleft" format="1">
  <advance width="207"/>
  <unicode hex="2018"/>
  <outline>
    <contour>
      <point x="248" y="489" type="line"/>
      <point x="80" y="472" type="line"/>
      <point x="94" y="527"/>
      <point x="108" y="583" type="qcurve"/>
      <point x="120" y="631"/>
      <point x="147" y="745"/>
      <point x="159" y="797" type="qcurve"/>
      <point x="165" y="796"/>
      <point x="187" y="795"/>
      <point x="210" y="794"/>
      <point x="232" y="794"/>
      <point x="238" y="794" type="qcurve"/>
      <point x="252" y="794"/>
      <point x="290" y="798"/>
      <point x="307" y="801" type="qcurve"/>
      <point x="327" y="804"/>
      <point x="348" y="808" type="qcurve"/>
    </contour>
  </outline>
</glyph>
<glyph name="quoteright" format="1">
  <advance width="207"/>
  <unicode hex="2019"/>
  <outline>
    <contour>
      <point x="245" y="491" type="qcurve"/>
      <point x="246" y="491"/>
      <point x="221" y="490"/>
      <point x="184" y="487"/>
      <point x="139" y="485"/>
      <point x="101" y="482"/>
      <point x="75" y="481"/>
      <point x="75" y="481" type="qcurve"/>
      <point x="79" y="494"/>
      <point x="92" y="536"/>
      <point x="108" y="586"/>
      <point x="125" y="641"/>
      <point x="133" y="668" type="qcurve"/>
      <point x="152" y="731"/>
      <point x="174" y="803" type="qcurve"/>
      <point x="257" y="801" type="line"/>
      <point x="349" y="803" type="line"/>
      <point x="325" y="732"/>
      <point x="305" y="670" type="qcurve"/>
      <point x="296" y="644"/>
      <point x="278" y="590"/>
      <point x="262" y="542"/>
      <point x="249" y="503"/>
    </contour>
  </outline>
</glyph>
<glyph name="quotedblleft" format="1">
  <advance width="413"/>
  <unicode hex="201C"/>
  <outline>
    <contour>
      <point x="513" y="771" type="line"/>
      <point x="448" y="382" type="line"/>
      <point x="365" y="382" type="line"/>
      <point x="286" y="380" type="line"/>
      <point x="291" y="411"/>
      <point x="297" y="442" type="qcurve"/>
      <point x="302" y="468"/>
      <point x="313" y="527"/>
      <point x="318" y="550" type="qcurve"/>
      <point x="327" y="598"/>
      <point x="340" y="679"/>
      <point x="345" y="708" type="qcurve"/>
      <point x="350" y="742"/>
      <point x="354" y="771" type="qcurve"/>
    </contour>
    <contour>
      <point x="303" y="773" type="line"/>
      <point x="229" y="380" type="line"/>
      <point x="75" y="371" type="line"/>
      <point x="109" y="564" type="line"/>
      <point x="143" y="773" type="line"/>
    </contour>
  </outline>
</glyph>
<glyph name="quotedblright" format="1">
  <advance width="410"/>
  <unicode hex="201D"/>
  <outline>
    <contour>
      <point x="324" y="577" type="line"/>
      <point x="367" y="793" type="line"/>
      <point x="521" y="802" type="line"/>
      <point x="447" y="403" type="line"/>
      <point x="288" y="403" type="line"/>
    </contour>
    <contour>
      <point x="109" y="579" type="line"/>
      <point x="143" y="793" type="line"/>
      <point x="308" y="793" type="line"/>
      <point x="236" y="418" type="line"/>
      <point x="82" y="402" type="line"/>
    </contour>
  </outline>
</glyph>
<glyph name="dagger" format="1">
  <advance width="319"/>
  <unicode hex="2020"/>
  <outline>
    <contour>
      <point x="120" y="623" type="line"/>
      <point x="127" y="623"/>
      <point x="138" y="624" type="qcurve"/>
      <point x="148" y="625"/>
      <point x="180" y="626"/>
      <point x="203" y="628" type="qcurve"/>
      <point x="208" y="658"/>
      <point x="218" y="701"/>
      <point x="221" y="715" type="qcurve"/>
      <point x="225" y="732"/>
      <point x="227" y="743" type="qcurve"/>
      <point x="341" y="757" type="line"/>
      <point x="337" y="742"/>
      <point x="333" y="724" type="qcurve"/>
      <point x="329" y="708"/>
      <point x="319" y="661"/>
      <point x="314" y="632" type="qcurve"/>
      <point x="335" y="633"/>
      <point x="381" y="633"/>
      <point x="407" y="633" type="qcurve"/>
      <point x="405" y="620"/>
      <point x="402" y="609" type="qcurve"/>
      <point x="400" y="599"/>
      <point x="395" y="578"/>
      <point x="393" y="570" type="qcurve"/>
      <point x="389" y="556"/>
      <point x="382" y="534"/>
      <point x="380" y="526" type="qcurve"/>
      <point x="376" y="517"/>
      <point x="374" y="510" type="qcurve"/>
      <point x="289" y="507" type="line"/>
      <point x="280" y="458"/>
      <point x="260" y="358"/>
      <point x="242" y="262"/>
      <point x="226" y="174"/>
      <point x="220" y="138" type="qcurve"/>
      <point x="189" y="138"/>
      <point x="128" y="121"/>
      <point x="96" y="121" type="qcurve"/>
      <point x="105" y="156"/>
      <point x="126" y="248"/>
      <point x="148" y="349"/>
      <point x="169" y="456"/>
      <point x="179" y="506" type="qcurve"/>
      <point x="91" y="506" type="line"/>
    </contour>
  </outline>
</glyph>
<glyph name="daggerdbl" format="1">
  <advance width="329"/>
  <unicode hex="2021"/>
  <outline>
    <contour>
      <point x="355" y="358" type="line"/>
      <point x="326" y="241" type="line"/>
      <point x="319" y="241"/>
      <point x="308" y="240" type="qcurve"/>
      <point x="298" y="239"/>
      <point x="266" y="237"/>
      <point x="243" y="236" type="qcurve"/>
      <point x="237" y="206"/>
      <point x="228" y="162"/>
      <point x="225" y="148" type="qcurve"/>
      <point x="221" y="131"/>
      <point x="219" y="121" type="qcurve"/>
      <point x="105" y="107" type="line"/>
      <point x="109" y="122"/>
      <point x="113" y="140" type="qcurve"/>
      <point x="117" y="156"/>
      <point x="126" y="202"/>
      <point x="132" y="232" type="qcurve"/>
      <point x="111" y="231"/>
      <point x="65" y="231"/>
      <point x="39" y="231" type="qcurve"/>
      <point x="41" y="244"/>
      <point x="44" y="255" type="qcurve"/>
      <point x="46" y="265"/>
      <point x="51" y="286"/>
      <point x="53" y="294" type="qcurve"/>
      <point x="57" y="308"/>
      <point x="63" y="330"/>
      <point x="66" y="338" type="qcurve"/>
      <point x="69" y="347"/>
      <point x="72" y="354" type="qcurve"/>
      <point x="157" y="357" type="line"/>
      <point x="158" y="363"/>
      <point x="162" y="381" type="qcurve"/>
      <point x="165" y="396"/>
      <point x="176" y="455"/>
      <point x="186" y="506" type="qcurve"/>
      <point x="98" y="506" type="line"/>
      <point x="127" y="623" type="line"/>
      <point x="134" y="623"/>
      <point x="145" y="624" type="qcurve"/>
      <point x="155" y="625"/>
      <point x="187" y="626"/>
      <point x="210" y="628" type="qcurve"/>
      <point x="215" y="658"/>
      <point x="225" y="701"/>
      <point x="228" y="715" type="qcurve"/>
      <point x="232" y="732"/>
      <point x="234" y="743" type="qcurve"/>
      <point x="348" y="757" type="line"/>
      <point x="344" y="742"/>
      <point x="340" y="724" type="qcurve"/>
      <point x="336" y="708"/>
      <point x="326" y="661"/>
      <point x="321" y="632" type="qcurve"/>
      <point x="342" y="633"/>
      <point x="388" y="633"/>
      <point x="414" y="633" type="qcurve"/>
      <point x="412" y="620"/>
      <point x="409" y="609" type="qcurve"/>
      <point x="407" y="599"/>
      <point x="402" y="578"/>
      <point x="400" y="570" type="qcurve"/>
      <point x="396" y="556"/>
      <point x="389" y="534"/>
      <point x="387" y="526" type="qcurve"/>
      <point x="383" y="517"/>
      <point x="381" y="510" type="qcurve"/>
      <point x="296" y="507" type="line"/>
      <point x="286" y="457"/>
      <point x="275" y="399"/>
      <point x="272" y="383" type="qcurve"/>
      <point x="268" y="365"/>
      <point x="267" y="358" type="qcurve"/>
    </contour>
  </outline>
</glyph>
<glyph name="bullet" format="1">
  <advance width="291"/>
  <unicode hex="2022"/>
  <outline>
    <contour>
      <point x="344" y="419" type="qcurve"/>
      <point x="344" y="383"/>
      <point x="320" y="304"/>
      <point x="269" y="238"/>
      <point x="190" y="195"/>
      <point x="136" y="195" type="qcurve"/>
      <point x="90" y="195"/>
      <point x="43" y="255"/>
      <point x="43" y="294" type="qcurve"/>
      <point x="43" y="331"/>
      <point x="66" y="420"/>
      <point x="116" y="496"/>
      <point x="195" y="548"/>
      <point x="251" y="548" type="qcurve"/>
      <point x="279" y="548"/>
      <point x="315" y="523"/>
      <point x="336" y="485"/>
      <point x="344" y="439"/>
    </contour>
  </outline>
</glyph>
<glyph name="guilsinglleft" format="1">
  <advance width="271"/>
  <unicode hex="2039"/>
  <outline>
    <contour>
      <point x="32" y="235" type="qcurve"/>
      <point x="45" y="304"/>
      <point x="65" y="441"/>
      <point x="75" y="511" type="qcurve"/>
      <point x="151" y="568"/>
      <point x="301" y="685"/>
      <point x="371" y="754" type="qcurve"/>
      <point x="354" y="695"/>
      <point x="327" y="575"/>
      <point x="314" y="514" type="qcurve"/>
      <point x="269" y="478"/>
      <point x="175" y="414"/>
      <point x="130" y="380" type="qcurve"/>
      <point x="168" y="346"/>
      <point x="243" y="278"/>
      <point x="281" y="244" type="qcurve"/>
      <point x="269" y="190"/>
      <point x="248" y="84"/>
      <point x="235" y="30" type="qcurve"/>
      <point x="184" y="82"/>
      <point x="81" y="180"/>
    </contour>
  </outline>
</glyph>
<glyph name="guilsinglright" format="1">
  <advance width="278"/>
  <unicode hex="203A"/>
  <outline>
    <contour>
      <point x="350" y="521" type="qcurve"/>
      <point x="336" y="449"/>
      <point x="313" y="307"/>
      <point x="302" y="235" type="qcurve"/>
      <point x="227" y="178"/>
      <point x="74" y="68"/>
      <point x="4" y="1" type="qcurve"/>
      <point x="20" y="61"/>
      <point x="43" y="184"/>
      <point x="53" y="246" type="qcurve"/>
      <point x="101" y="281"/>
      <point x="199" y="346"/>
      <point x="247" y="380" type="qcurve"/>
      <point x="212" y="411"/>
      <point x="142" y="474"/>
      <point x="107" y="505" type="qcurve"/>
      <point x="112" y="564"/>
      <point x="125" y="679"/>
      <point x="131" y="738" type="qcurve"/>
      <point x="185" y="683"/>
      <point x="295" y="576"/>
    </contour>
  </outline>
</glyph>
